<ttFont>
    <TTGlyph name="A" xMin="10" yMin="-9" xMax="624" yMax="689">
      <contour>
        <pt x="240" y="146" on="1"/>
        <pt x="212" y="146" on="0"/>
        <pt x="198" y="147" on="1"/>
        <pt x="154" y="-1" on="1"/>
        <pt x="131" y="-7" on="0"/>
        <pt x="43" y="-7" on="0"/>
        <pt x="16" y="4" on="1"/>
        <pt x="10" y="12" on="1"/>
        <pt x="232" y="683" on="1"/>
        <pt x="268" y="689" on="0"/>
        <pt x="374" y="689" on="0"/>
        <pt x="408" y="682" on="1"/>
        <pt x="624" y="10" on="1"/>
        <pt x="591" y="-9" on="0"/>
        <pt x="499" y="-9" on="0"/>
        <pt x="459" y="26" on="0"/>
        <pt x="446" y="74" on="1"/>
        <pt x="425" y="147" on="1"/>
        <pt x="411" y="146" on="0"/>
        <pt x="382" y="146" on="1"/>
      </contour>
      <contour>
        <pt x="233" y="266" on="1"/>
        <pt x="275" y="267" on="1"/>
        <pt x="352" y="267" on="1"/>
        <pt x="357" y="267" on="0"/>
        <pt x="383" y="266" on="0"/>
        <pt x="390" y="266" on="1"/>
        <pt x="314" y="542" on="1"/>
        <pt x="309" y="542" on="1"/>
        <pt x="300" y="493" on="0"/>
        <pt x="261" y="358" on="1"/>
      </contour>
    </TTGlyph>
    <TTGlyph name="AE" xMin="6" yMin="-6" xMax="849" yMax="683">
      <contour>
        <pt x="539" y="195" on="1"/>
        <pt x="538" y="124" on="1"/>
        <pt x="538" y="123" on="1"/>
        <pt x="582" y="125" on="0"/>
        <pt x="610" y="125" on="1"/>
        <pt x="849" y="125" on="1"/>
        <pt x="849" y="89" on="0"/>
        <pt x="846" y="71" on="1"/>
        <pt x="834" y="-3" on="0"/>
        <pt x="748" y="-3" on="1"/>
        <pt x="478" y="-3" on="1"/>
        <pt x="437" y="-3" on="0"/>
        <pt x="391" y="45" on="0"/>
        <pt x="391" y="87" on="1"/>
        <pt x="391" y="147" on="1"/>
        <pt x="378" y="146" on="0"/>
        <pt x="354" y="146" on="1"/>
        <pt x="265" y="146" on="1"/>
        <pt x="237" y="146" on="0"/>
        <pt x="223" y="147" on="1"/>
        <pt x="160" y="0" on="1"/>
        <pt x="137" y="-6" on="0"/>
        <pt x="38" y="-6" on="0"/>
        <pt x="11" y="4" on="1"/>
        <pt x="6" y="12" on="1"/>
        <pt x="306" y="670" on="1"/>
        <pt x="335" y="683" on="0"/>
        <pt x="398" y="683" on="1"/>
        <pt x="824" y="683" on="1"/>
        <pt x="830" y="655" on="0"/>
        <pt x="830" y="592" on="0"/>
        <pt x="817" y="555" on="1"/>
        <pt x="538" y="555" on="1"/>
        <pt x="539" y="484" on="1"/>
        <pt x="539" y="405" on="1"/>
        <pt x="565" y="406" on="0"/>
        <pt x="605" y="406" on="1"/>
        <pt x="766" y="406" on="1"/>
        <pt x="774" y="381" on="0"/>
        <pt x="774" y="308" on="0"/>
        <pt x="766" y="281" on="1"/>
        <pt x="539" y="281" on="1"/>
      </contour>
      <contour>
        <pt x="353" y="266" on="1"/>
        <pt x="391" y="265" on="1"/>
        <pt x="391" y="542" on="1"/>
        <pt x="387" y="542" on="1"/>
        <pt x="350" y="440" on="0"/>
        <pt x="313" y="357" on="1"/>
        <pt x="273" y="265" on="1"/>
        <pt x="308" y="266" on="1"/>
      </contour>
    </TTGlyph>
    <TTGlyph name="Aacute" xMin="10" yMin="-9" xMax="624" yMax="934">
      <contour>
        <pt x="240" y="146" on="1"/>
        <pt x="212" y="146" on="0"/>
        <pt x="198" y="147" on="1"/>
        <pt x="154" y="-1" on="1"/>
        <pt x="131" y="-7" on="0"/>
        <pt x="43" y="-7" on="0"/>
        <pt x="16" y="4" on="1"/>
        <pt x="10" y="12" on="1"/>
        <pt x="232" y="683" on="1"/>
        <pt x="268" y="689" on="0"/>
        <pt x="374" y="689" on="0"/>
        <pt x="408" y="682" on="1"/>
        <pt x="624" y="10" on="1"/>
        <pt x="591" y="-9" on="0"/>
        <pt x="499" y="-9" on="0"/>
        <pt x="459" y="26" on="0"/>
        <pt x="446" y="74" on="1"/>
        <pt x="425" y="147" on="1"/>
        <pt x="411" y="146" on="0"/>
        <pt x="382" y="146" on="1"/>
      </contour>
      <contour>
        <pt x="233" y="266" on="1"/>
        <pt x="275" y="267" on="1"/>
        <pt x="352" y="267" on="1"/>
        <pt x="357" y="267" on="0"/>
        <pt x="383" y="266" on="0"/>
        <pt x="390" y="266" on="1"/>
        <pt x="314" y="542" on="1"/>
        <pt x="309" y="542" on="1"/>
        <pt x="300" y="493" on="0"/>
        <pt x="261" y="358" on="1"/>
      </contour>
      <contour>
        <pt x="199" y="799" on="1"/>
        <pt x="420" y="934" on="1"/>
        <pt x="440" y="919" on="0"/>
        <pt x="476" y="852" on="0"/>
        <pt x="479" y="821" on="1"/>
        <pt x="241" y="727" on="1"/>
        <pt x="226" y="736" on="0"/>
        <pt x="201" y="779" on="0"/>
      </contour>
    </TTGlyph>
    <TTGlyph name="Acircumflex" xMin="10" yMin="-9" xMax="624" yMax="914">
      <contour>
        <pt x="240" y="146" on="1"/>
        <pt x="212" y="146" on="0"/>
        <pt x="198" y="147" on="1"/>
        <pt x="154" y="-1" on="1"/>
        <pt x="131" y="-7" on="0"/>
        <pt x="43" y="-7" on="0"/>
        <pt x="16" y="4" on="1"/>
        <pt x="10" y="12" on="1"/>
        <pt x="232" y="683" on="1"/>
        <pt x="268" y="689" on="0"/>
        <pt x="374" y="689" on="0"/>
        <pt x="408" y="682" on="1"/>
        <pt x="624" y="10" on="1"/>
        <pt x="591" y="-9" on="0"/>
        <pt x="499" y="-9" on="0"/>
        <pt x="459" y="26" on="0"/>
        <pt x="446" y="74" on="1"/>
        <pt x="425" y="147" on="1"/>
        <pt x="411" y="146" on="0"/>
        <pt x="382" y="146" on="1"/>
      </contour>
      <contour>
        <pt x="233" y="266" on="1"/>
        <pt x="275" y="267" on="1"/>
        <pt x="352" y="267" on="1"/>
        <pt x="357" y="267" on="0"/>
        <pt x="383" y="266" on="0"/>
        <pt x="390" y="266" on="1"/>
        <pt x="314" y="542" on="1"/>
        <pt x="309" y="542" on="1"/>
        <pt x="300" y="493" on="0"/>
        <pt x="261" y="358" on="1"/>
      </contour>
      <contour>
        <pt x="435" y="735" on="1"/>
        <pt x="318" y="810" on="1"/>
        <pt x="199" y="724" on="1"/>
        <pt x="182" y="730" on="0"/>
        <pt x="143" y="767" on="0"/>
        <pt x="138" y="786" on="1"/>
        <pt x="256" y="906" on="1"/>
        <pt x="287" y="913" on="0"/>
        <pt x="349" y="913" on="0"/>
        <pt x="381" y="907" on="1"/>
        <pt x="494" y="797" on="1"/>
        <pt x="488" y="776" on="0"/>
        <pt x="452" y="742" on="0"/>
      </contour>
    </TTGlyph>
    <TTGlyph name="Adieresis" xMin="10" yMin="-9" xMax="624" yMax="866">
      <contour>
        <pt x="240" y="146" on="1"/>
        <pt x="212" y="146" on="0"/>
        <pt x="198" y="147" on="1"/>
        <pt x="154" y="-1" on="1"/>
        <pt x="131" y="-7" on="0"/>
        <pt x="43" y="-7" on="0"/>
        <pt x="16" y="4" on="1"/>
        <pt x="10" y="12" on="1"/>
        <pt x="232" y="683" on="1"/>
        <pt x="268" y="689" on="0"/>
        <pt x="374" y="689" on="0"/>
        <pt x="408" y="682" on="1"/>
        <pt x="624" y="10" on="1"/>
        <pt x="591" y="-9" on="0"/>
        <pt x="499" y="-9" on="0"/>
        <pt x="459" y="26" on="0"/>
        <pt x="446" y="74" on="1"/>
        <pt x="425" y="147" on="1"/>
        <pt x="411" y="146" on="0"/>
        <pt x="382" y="146" on="1"/>
      </contour>
      <contour>
        <pt x="233" y="266" on="1"/>
        <pt x="275" y="267" on="1"/>
        <pt x="352" y="267" on="1"/>
        <pt x="357" y="267" on="0"/>
        <pt x="383" y="266" on="0"/>
        <pt x="390" y="266" on="1"/>
        <pt x="314" y="542" on="1"/>
        <pt x="309" y="542" on="1"/>
        <pt x="300" y="493" on="0"/>
        <pt x="261" y="358" on="1"/>
      </contour>
      <contour>
        <pt x="375" y="850" on="1"/>
        <pt x="403" y="866" on="0"/>
        <pt x="469" y="866" on="0"/>
        <pt x="494" y="850" on="1"/>
        <pt x="506" y="834" on="0"/>
        <pt x="506" y="767" on="0"/>
        <pt x="494" y="752" on="1"/>
        <pt x="470" y="735" on="0"/>
        <pt x="402" y="735" on="0"/>
        <pt x="375" y="752" on="1"/>
        <pt x="361" y="767" on="0"/>
        <pt x="361" y="833" on="0"/>
      </contour>
      <contour>
        <pt x="169" y="866" on="0"/>
        <pt x="237" y="866" on="0"/>
        <pt x="265" y="850" on="1"/>
        <pt x="277" y="836" on="0"/>
        <pt x="277" y="765" on="0"/>
        <pt x="265" y="752" on="1"/>
        <pt x="238" y="735" on="0"/>
        <pt x="168" y="735" on="0"/>
        <pt x="146" y="752" on="1"/>
        <pt x="134" y="767" on="0"/>
        <pt x="134" y="834" on="0"/>
        <pt x="146" y="850" on="1"/>
      </contour>
    </TTGlyph>
    <TTGlyph name="Agrave" xMin="10" yMin="-9" xMax="624" yMax="934">
      <contour>
        <pt x="240" y="146" on="1"/>
        <pt x="212" y="146" on="0"/>
        <pt x="198" y="147" on="1"/>
        <pt x="154" y="-1" on="1"/>
        <pt x="131" y="-7" on="0"/>
        <pt x="43" y="-7" on="0"/>
        <pt x="16" y="4" on="1"/>
        <pt x="10" y="12" on="1"/>
        <pt x="232" y="683" on="1"/>
        <pt x="268" y="689" on="0"/>
        <pt x="374" y="689" on="0"/>
        <pt x="408" y="682" on="1"/>
        <pt x="624" y="10" on="1"/>
        <pt x="591" y="-9" on="0"/>
        <pt x="499" y="-9" on="0"/>
        <pt x="459" y="26" on="0"/>
        <pt x="446" y="74" on="1"/>
        <pt x="425" y="147" on="1"/>
        <pt x="411" y="146" on="0"/>
        <pt x="382" y="146" on="1"/>
      </contour>
      <contour>
        <pt x="233" y="266" on="1"/>
        <pt x="275" y="267" on="1"/>
        <pt x="352" y="267" on="1"/>
        <pt x="357" y="267" on="0"/>
        <pt x="383" y="266" on="0"/>
        <pt x="390" y="266" on="1"/>
        <pt x="314" y="542" on="1"/>
        <pt x="309" y="542" on="1"/>
        <pt x="300" y="493" on="0"/>
        <pt x="261" y="358" on="1"/>
      </contour>
      <contour>
        <pt x="230" y="934" on="1"/>
        <pt x="451" y="799" on="1"/>
        <pt x="443" y="747" on="0"/>
        <pt x="409" y="727" on="1"/>
        <pt x="171" y="821" on="1"/>
        <pt x="174" y="852" on="0"/>
        <pt x="210" y="919" on="0"/>
      </contour>
    </TTGlyph>
    <TTGlyph name="Aogonek" xMin="10" yMin="-218" xMax="663" yMax="689">
      <contour>
        <pt x="10" y="12" on="1"/>
        <pt x="232" y="683" on="1"/>
        <pt x="268" y="689" on="0"/>
        <pt x="374" y="689" on="0"/>
        <pt x="408" y="682" on="1"/>
        <pt x="624" y="10" on="1"/>
        <pt x="615" y="5" on="1"/>
        <pt x="539" y="-37" on="0"/>
        <pt x="539" y="-88" on="1"/>
        <pt x="539" y="-125" on="0"/>
        <pt x="581" y="-125" on="1"/>
        <pt x="604" y="-125" on="0"/>
        <pt x="632" y="-111" on="1"/>
        <pt x="662" y="-137" on="0"/>
        <pt x="663" y="-178" on="1"/>
        <pt x="618" y="-218" on="0"/>
        <pt x="495" y="-218" on="0"/>
        <pt x="429" y="-164" on="0"/>
        <pt x="429" y="-119" on="1"/>
        <pt x="429" y="-57" on="0"/>
        <pt x="493" y="-1" on="1"/>
        <pt x="462" y="14" on="0"/>
        <pt x="446" y="74" on="1"/>
        <pt x="425" y="147" on="1"/>
        <pt x="411" y="146" on="0"/>
        <pt x="382" y="146" on="1"/>
        <pt x="240" y="146" on="1"/>
        <pt x="212" y="146" on="0"/>
        <pt x="198" y="147" on="1"/>
        <pt x="154" y="-1" on="1"/>
        <pt x="131" y="-7" on="0"/>
        <pt x="43" y="-7" on="0"/>
        <pt x="16" y="4" on="1"/>
      </contour>
      <contour>
        <pt x="233" y="266" on="1"/>
        <pt x="275" y="267" on="1"/>
        <pt x="352" y="267" on="1"/>
        <pt x="357" y="267" on="0"/>
        <pt x="383" y="266" on="0"/>
        <pt x="390" y="266" on="1"/>
        <pt x="314" y="542" on="1"/>
        <pt x="309" y="542" on="1"/>
        <pt x="300" y="493" on="0"/>
        <pt x="261" y="358" on="1"/>
      </contour>
    </TTGlyph>
    <TTGlyph name="Aring" xMin="10" yMin="-9" xMax="624" yMax="913">
      <contour>
        <pt x="402" y="683" on="1"/>
        <pt x="408" y="682" on="1"/>
        <pt x="624" y="10" on="1"/>
        <pt x="591" y="-9" on="0"/>
        <pt x="499" y="-9" on="0"/>
        <pt x="459" y="26" on="0"/>
        <pt x="446" y="74" on="1"/>
        <pt x="425" y="147" on="1"/>
        <pt x="411" y="146" on="0"/>
        <pt x="382" y="146" on="1"/>
        <pt x="240" y="146" on="1"/>
        <pt x="212" y="146" on="0"/>
        <pt x="198" y="147" on="1"/>
        <pt x="154" y="-1" on="1"/>
        <pt x="131" y="-7" on="0"/>
        <pt x="43" y="-7" on="0"/>
        <pt x="16" y="4" on="1"/>
        <pt x="10" y="12" on="1"/>
        <pt x="232" y="683" on="1"/>
        <pt x="235" y="683" on="0"/>
        <pt x="237" y="684" on="1"/>
        <pt x="181" y="719" on="0"/>
        <pt x="181" y="787" on="1"/>
        <pt x="181" y="841" on="0"/>
        <pt x="258" y="913" on="0"/>
        <pt x="382" y="913" on="0"/>
        <pt x="458" y="841" on="0"/>
        <pt x="458" y="720" on="0"/>
      </contour>
      <contour>
        <pt x="233" y="266" on="1"/>
        <pt x="275" y="267" on="1"/>
        <pt x="352" y="267" on="1"/>
        <pt x="357" y="267" on="0"/>
        <pt x="383" y="266" on="0"/>
        <pt x="390" y="266" on="1"/>
        <pt x="314" y="542" on="1"/>
        <pt x="309" y="542" on="1"/>
        <pt x="300" y="493" on="0"/>
        <pt x="261" y="358" on="1"/>
      </contour>
      <contour>
        <pt x="270" y="809" on="0"/>
        <pt x="270" y="765" on="0"/>
        <pt x="298" y="736" on="0"/>
        <pt x="342" y="736" on="0"/>
        <pt x="369" y="765" on="0"/>
        <pt x="369" y="809" on="0"/>
        <pt x="342" y="838" on="0"/>
        <pt x="298" y="838" on="0"/>
      </contour>
    </TTGlyph>
    <TTGlyph name="Atilde" xMin="10" yMin="-9" xMax="624" yMax="903">
      <contour>
        <pt x="240" y="146" on="1"/>
        <pt x="212" y="146" on="0"/>
        <pt x="198" y="147" on="1"/>
        <pt x="154" y="-1" on="1"/>
        <pt x="131" y="-7" on="0"/>
        <pt x="43" y="-7" on="0"/>
        <pt x="16" y="4" on="1"/>
        <pt x="10" y="12" on="1"/>
        <pt x="232" y="683" on="1"/>
        <pt x="268" y="689" on="0"/>
        <pt x="374" y="689" on="0"/>
        <pt x="408" y="682" on="1"/>
        <pt x="624" y="10" on="1"/>
        <pt x="591" y="-9" on="0"/>
        <pt x="499" y="-9" on="0"/>
        <pt x="459" y="26" on="0"/>
        <pt x="446" y="74" on="1"/>
        <pt x="425" y="147" on="1"/>
        <pt x="411" y="146" on="0"/>
        <pt x="382" y="146" on="1"/>
      </contour>
      <contour>
        <pt x="233" y="266" on="1"/>
        <pt x="275" y="267" on="1"/>
        <pt x="352" y="267" on="1"/>
        <pt x="357" y="267" on="0"/>
        <pt x="383" y="266" on="0"/>
        <pt x="390" y="266" on="1"/>
        <pt x="314" y="542" on="1"/>
        <pt x="309" y="542" on="1"/>
        <pt x="300" y="493" on="0"/>
        <pt x="261" y="358" on="1"/>
      </contour>
      <contour>
        <pt x="322" y="758" on="1"/>
        <pt x="274" y="781" on="1"/>
        <pt x="258" y="790" on="0"/>
        <pt x="222" y="790" on="0"/>
        <pt x="206" y="766" on="1"/>
        <pt x="197" y="754" on="1"/>
        <pt x="175" y="754" on="0"/>
        <pt x="130" y="779" on="0"/>
        <pt x="122" y="798" on="1"/>
        <pt x="131" y="818" on="1"/>
        <pt x="172" y="903" on="0"/>
        <pt x="252" y="903" on="1"/>
        <pt x="287" y="903" on="0"/>
        <pt x="318" y="886" on="1"/>
        <pt x="366" y="863" on="1"/>
        <pt x="382" y="854" on="0"/>
        <pt x="417" y="854" on="0"/>
        <pt x="434" y="878" on="1"/>
        <pt x="443" y="891" on="1"/>
        <pt x="465" y="891" on="0"/>
        <pt x="509" y="865" on="0"/>
        <pt x="518" y="846" on="1"/>
        <pt x="509" y="827" on="1"/>
        <pt x="490" y="787" on="0"/>
        <pt x="427" y="741" on="0"/>
        <pt x="358" y="741" on="0"/>
      </contour>
    </TTGlyph>
    <TTGlyph name="B" xMin="78" yMin="-6" xMax="576" yMax="689">
      <contour>
        <pt x="85" y="685" on="1"/>
        <pt x="243" y="689" on="0"/>
        <pt x="312" y="689" on="1"/>
        <pt x="421" y="689" on="0"/>
        <pt x="544" y="598" on="0"/>
        <pt x="544" y="507" on="1"/>
        <pt x="544" y="462" on="0"/>
        <pt x="495" y="386" on="0"/>
        <pt x="456" y="369" on="1"/>
        <pt x="506" y="353" on="0"/>
        <pt x="576" y="255" on="0"/>
        <pt x="576" y="196" on="1"/>
        <pt x="576" y="96" on="0"/>
        <pt x="446" y="-6" on="0"/>
        <pt x="328" y="-6" on="1"/>
        <pt x="253" y="-6" on="0"/>
        <pt x="85" y="-2" on="1"/>
        <pt x="78" y="5" on="1"/>
        <pt x="78" y="678" on="1"/>
      </contour>
      <contour>
        <pt x="316" y="304" on="1"/>
        <pt x="228" y="304" on="1"/>
        <pt x="228" y="102" on="1"/>
        <pt x="262" y="103" on="0"/>
        <pt x="375" y="103" on="0"/>
        <pt x="423" y="162" on="0"/>
        <pt x="423" y="243" on="0"/>
        <pt x="373" y="304" on="0"/>
      </contour>
      <contour>
        <pt x="228" y="580" on="1"/>
        <pt x="228" y="413" on="1"/>
        <pt x="305" y="413" on="1"/>
        <pt x="354" y="413" on="0"/>
        <pt x="395" y="462" on="0"/>
        <pt x="395" y="497" on="1"/>
        <pt x="395" y="579" on="0"/>
        <pt x="305" y="579" on="1"/>
        <pt x="255" y="579" on="0"/>
      </contour>
    </TTGlyph>
    <TTGlyph name="C" xMin="38" yMin="-15" xMax="582" yMax="698">
      <contour>
        <pt x="437" y="416" on="1"/>
        <pt x="437" y="421" on="0"/>
        <pt x="437" y="426" on="1"/>
        <pt x="437" y="489" on="0"/>
        <pt x="386" y="577" on="0"/>
        <pt x="258" y="577" on="0"/>
        <pt x="198" y="457" on="0"/>
        <pt x="198" y="230" on="0"/>
        <pt x="272" y="118" on="0"/>
        <pt x="413" y="118" on="0"/>
        <pt x="510" y="189" on="1"/>
        <pt x="533" y="173" on="0"/>
        <pt x="576" y="116" on="0"/>
        <pt x="581" y="91" on="1"/>
        <pt x="536" y="46" on="0"/>
        <pt x="390" y="-15" on="0"/>
        <pt x="251" y="-15" on="0"/>
        <pt x="156" y="26" on="0"/>
        <pt x="95" y="93" on="0"/>
        <pt x="75" y="140" on="1"/>
        <pt x="38" y="226" on="0"/>
        <pt x="38" y="339" on="1"/>
        <pt x="38" y="518" on="0"/>
        <pt x="201" y="698" on="0"/>
        <pt x="441" y="698" on="0"/>
        <pt x="582" y="580" on="0"/>
        <pt x="582" y="492" on="1"/>
        <pt x="582" y="408" on="0"/>
        <pt x="495" y="408" on="1"/>
        <pt x="467" y="408" on="0"/>
      </contour>
    </TTGlyph>
    <TTGlyph name="Cacute" xMin="38" yMin="-15" xMax="582" yMax="935">
      <contour>
        <pt x="437" y="416" on="1"/>
        <pt x="437" y="421" on="0"/>
        <pt x="437" y="426" on="1"/>
        <pt x="437" y="489" on="0"/>
        <pt x="386" y="577" on="0"/>
        <pt x="258" y="577" on="0"/>
        <pt x="198" y="457" on="0"/>
        <pt x="198" y="230" on="0"/>
        <pt x="272" y="118" on="0"/>
        <pt x="413" y="118" on="0"/>
        <pt x="510" y="189" on="1"/>
        <pt x="533" y="173" on="0"/>
        <pt x="576" y="116" on="0"/>
        <pt x="581" y="91" on="1"/>
        <pt x="536" y="46" on="0"/>
        <pt x="390" y="-15" on="0"/>
        <pt x="251" y="-15" on="0"/>
        <pt x="156" y="26" on="0"/>
        <pt x="95" y="93" on="0"/>
        <pt x="75" y="140" on="1"/>
        <pt x="38" y="226" on="0"/>
        <pt x="38" y="339" on="1"/>
        <pt x="38" y="518" on="0"/>
        <pt x="201" y="698" on="0"/>
        <pt x="441" y="698" on="0"/>
        <pt x="582" y="580" on="0"/>
        <pt x="582" y="492" on="1"/>
        <pt x="582" y="408" on="0"/>
        <pt x="495" y="408" on="1"/>
        <pt x="467" y="408" on="0"/>
      </contour>
      <contour>
        <pt x="205" y="800" on="1"/>
        <pt x="426" y="935" on="1"/>
        <pt x="446" y="920" on="0"/>
        <pt x="482" y="853" on="0"/>
        <pt x="485" y="822" on="1"/>
        <pt x="247" y="728" on="1"/>
        <pt x="232" y="737" on="0"/>
        <pt x="207" y="780" on="0"/>
      </contour>
    </TTGlyph>
    <TTGlyph name="Ccaron" xMin="38" yMin="-15" xMax="582" yMax="928">
      <contour>
        <pt x="437" y="416" on="1"/>
        <pt x="437" y="421" on="0"/>
        <pt x="437" y="426" on="1"/>
        <pt x="437" y="489" on="0"/>
        <pt x="386" y="577" on="0"/>
        <pt x="258" y="577" on="0"/>
        <pt x="198" y="457" on="0"/>
        <pt x="198" y="230" on="0"/>
        <pt x="272" y="118" on="0"/>
        <pt x="413" y="118" on="0"/>
        <pt x="510" y="189" on="1"/>
        <pt x="533" y="173" on="0"/>
        <pt x="576" y="116" on="0"/>
        <pt x="581" y="91" on="1"/>
        <pt x="536" y="46" on="0"/>
        <pt x="390" y="-15" on="0"/>
        <pt x="251" y="-15" on="0"/>
        <pt x="156" y="26" on="0"/>
        <pt x="95" y="93" on="0"/>
        <pt x="75" y="140" on="1"/>
        <pt x="38" y="226" on="0"/>
        <pt x="38" y="339" on="1"/>
        <pt x="38" y="518" on="0"/>
        <pt x="201" y="698" on="0"/>
        <pt x="441" y="698" on="0"/>
        <pt x="582" y="580" on="0"/>
        <pt x="582" y="492" on="1"/>
        <pt x="582" y="408" on="0"/>
        <pt x="495" y="408" on="1"/>
        <pt x="467" y="408" on="0"/>
      </contour>
      <contour>
        <pt x="204" y="916" on="1"/>
        <pt x="321" y="842" on="1"/>
        <pt x="441" y="928" on="1"/>
        <pt x="458" y="922" on="0"/>
        <pt x="498" y="886" on="0"/>
        <pt x="503" y="867" on="1"/>
        <pt x="384" y="746" on="1"/>
        <pt x="353" y="738" on="0"/>
        <pt x="290" y="738" on="0"/>
        <pt x="258" y="745" on="1"/>
        <pt x="145" y="855" on="1"/>
        <pt x="151" y="876" on="0"/>
        <pt x="187" y="910" on="0"/>
      </contour>
    </TTGlyph>
    <TTGlyph name="Ccedilla" xMin="38" yMin="-231" xMax="582" yMax="698">
      <contour>
        <pt x="255" y="-77" on="1"/>
        <pt x="263" y="-43" on="0"/>
        <pt x="275" y="-13" on="1"/>
        <pt x="211" y="-6" on="0"/>
        <pt x="115" y="59" on="0"/>
        <pt x="89" y="110" on="1"/>
        <pt x="38" y="209" on="0"/>
        <pt x="38" y="339" on="1"/>
        <pt x="38" y="518" on="0"/>
        <pt x="201" y="698" on="0"/>
        <pt x="441" y="698" on="0"/>
        <pt x="582" y="580" on="0"/>
        <pt x="582" y="492" on="1"/>
        <pt x="582" y="408" on="0"/>
        <pt x="495" y="408" on="1"/>
        <pt x="467" y="408" on="0"/>
        <pt x="437" y="416" on="1"/>
        <pt x="437" y="421" on="0"/>
        <pt x="437" y="426" on="1"/>
        <pt x="437" y="489" on="0"/>
        <pt x="386" y="577" on="0"/>
        <pt x="258" y="577" on="0"/>
        <pt x="198" y="457" on="0"/>
        <pt x="198" y="230" on="0"/>
        <pt x="272" y="118" on="0"/>
        <pt x="413" y="118" on="0"/>
        <pt x="510" y="189" on="1"/>
        <pt x="533" y="173" on="0"/>
        <pt x="576" y="116" on="0"/>
        <pt x="581" y="91" on="1"/>
        <pt x="542" y="52" on="0"/>
        <pt x="421" y="-5" on="0"/>
        <pt x="353" y="-13" on="1"/>
        <pt x="348" y="-21" on="0"/>
        <pt x="344" y="-32" on="1"/>
        <pt x="390" y="-35" on="0"/>
        <pt x="444" y="-84" on="0"/>
        <pt x="444" y="-170" on="0"/>
        <pt x="368" y="-231" on="0"/>
        <pt x="256" y="-231" on="0"/>
        <pt x="223" y="-208" on="1"/>
        <pt x="225" y="-167" on="0"/>
        <pt x="247" y="-143" on="1"/>
        <pt x="269" y="-156" on="0"/>
        <pt x="294" y="-156" on="1"/>
        <pt x="332" y="-156" on="0"/>
        <pt x="332" y="-126" on="1"/>
        <pt x="332" y="-112" on="0"/>
        <pt x="313" y="-95" on="0"/>
        <pt x="289" y="-95" on="0"/>
        <pt x="277" y="-99" on="1"/>
        <pt x="262" y="-92" on="0"/>
      </contour>
    </TTGlyph>
    <TTGlyph name="D" xMin="78" yMin="-6" xMax="626" yMax="689">
      <contour>
        <pt x="579" y="587" on="0"/>
        <pt x="626" y="442" on="0"/>
        <pt x="626" y="241" on="0"/>
        <pt x="580" y="95" on="0"/>
        <pt x="514" y="44" on="1"/>
        <pt x="483" y="19" on="0"/>
        <pt x="379" y="-6" on="0"/>
        <pt x="259" y="-6" on="0"/>
        <pt x="85" y="-2" on="1"/>
        <pt x="78" y="5" on="1"/>
        <pt x="78" y="678" on="1"/>
        <pt x="85" y="685" on="1"/>
        <pt x="200" y="689" on="0"/>
        <pt x="332" y="689" on="1"/>
        <pt x="379" y="689" on="0"/>
        <pt x="483" y="663" on="0"/>
        <pt x="514" y="638" on="1"/>
      </contour>
      <contour>
        <pt x="254" y="114" on="1"/>
        <pt x="332" y="113" on="1"/>
        <pt x="469" y="113" on="0"/>
        <pt x="469" y="569" on="0"/>
        <pt x="332" y="569" on="1"/>
        <pt x="332" y="569" on="0"/>
        <pt x="230" y="570" on="1"/>
        <pt x="230" y="113" on="1"/>
        <pt x="231" y="114" on="0"/>
      </contour>
    </TTGlyph>
    <TTGlyph name="Dcaron" xMin="78" yMin="-6" xMax="626" yMax="927">
      <contour>
        <pt x="579" y="587" on="0"/>
        <pt x="626" y="442" on="0"/>
        <pt x="626" y="241" on="0"/>
        <pt x="580" y="95" on="0"/>
        <pt x="514" y="44" on="1"/>
        <pt x="483" y="19" on="0"/>
        <pt x="379" y="-6" on="0"/>
        <pt x="259" y="-6" on="0"/>
        <pt x="85" y="-2" on="1"/>
        <pt x="78" y="5" on="1"/>
        <pt x="78" y="678" on="1"/>
        <pt x="85" y="685" on="1"/>
        <pt x="200" y="689" on="0"/>
        <pt x="332" y="689" on="1"/>
        <pt x="379" y="689" on="0"/>
        <pt x="483" y="663" on="0"/>
        <pt x="514" y="638" on="1"/>
      </contour>
      <contour>
        <pt x="254" y="114" on="1"/>
        <pt x="332" y="113" on="1"/>
        <pt x="469" y="113" on="0"/>
        <pt x="469" y="569" on="0"/>
        <pt x="332" y="569" on="1"/>
        <pt x="332" y="569" on="0"/>
        <pt x="230" y="570" on="1"/>
        <pt x="230" y="113" on="1"/>
        <pt x="231" y="114" on="0"/>
      </contour>
      <contour>
        <pt x="197" y="915" on="1"/>
        <pt x="314" y="841" on="1"/>
        <pt x="434" y="927" on="1"/>
        <pt x="451" y="921" on="0"/>
        <pt x="491" y="885" on="0"/>
        <pt x="496" y="866" on="1"/>
        <pt x="377" y="745" on="1"/>
        <pt x="346" y="737" on="0"/>
        <pt x="283" y="737" on="0"/>
        <pt x="251" y="744" on="1"/>
        <pt x="138" y="854" on="1"/>
        <pt x="144" y="875" on="0"/>
        <pt x="180" y="909" on="0"/>
      </contour>
    </TTGlyph>
    <TTGlyph name="E" xMin="77" yMin="-3" xMax="536" yMax="683">
      <contour>
        <pt x="228" y="193" on="1"/>
        <pt x="227" y="124" on="1"/>
        <pt x="227" y="123" on="1"/>
        <pt x="271" y="125" on="0"/>
        <pt x="300" y="125" on="1"/>
        <pt x="536" y="125" on="1"/>
        <pt x="536" y="89" on="0"/>
        <pt x="533" y="71" on="1"/>
        <pt x="519" y="-3" on="0"/>
        <pt x="435" y="-3" on="1"/>
        <pt x="165" y="-3" on="1"/>
        <pt x="124" y="-3" on="0"/>
        <pt x="77" y="45" on="0"/>
        <pt x="77" y="87" on="1"/>
        <pt x="77" y="676" on="1"/>
        <pt x="84" y="683" on="1"/>
        <pt x="511" y="683" on="1"/>
        <pt x="516" y="660" on="0"/>
        <pt x="516" y="590" on="0"/>
        <pt x="504" y="555" on="1"/>
        <pt x="227" y="555" on="1"/>
        <pt x="228" y="484" on="1"/>
        <pt x="228" y="405" on="1"/>
        <pt x="254" y="406" on="0"/>
        <pt x="295" y="406" on="1"/>
        <pt x="452" y="406" on="1"/>
        <pt x="461" y="382" on="0"/>
        <pt x="461" y="307" on="0"/>
        <pt x="452" y="281" on="1"/>
        <pt x="228" y="281" on="1"/>
      </contour>
    </TTGlyph>
    <TTGlyph name="Eacute" xMin="77" yMin="-3" xMax="536" yMax="934">
      <contour>
        <pt x="228" y="193" on="1"/>
        <pt x="227" y="124" on="1"/>
        <pt x="227" y="123" on="1"/>
        <pt x="271" y="125" on="0"/>
        <pt x="300" y="125" on="1"/>
        <pt x="536" y="125" on="1"/>
        <pt x="536" y="89" on="0"/>
        <pt x="533" y="71" on="1"/>
        <pt x="519" y="-3" on="0"/>
        <pt x="435" y="-3" on="1"/>
        <pt x="165" y="-3" on="1"/>
        <pt x="124" y="-3" on="0"/>
        <pt x="77" y="45" on="0"/>
        <pt x="77" y="87" on="1"/>
        <pt x="77" y="676" on="1"/>
        <pt x="84" y="683" on="1"/>
        <pt x="511" y="683" on="1"/>
        <pt x="516" y="660" on="0"/>
        <pt x="516" y="590" on="0"/>
        <pt x="504" y="555" on="1"/>
        <pt x="227" y="555" on="1"/>
        <pt x="228" y="484" on="1"/>
        <pt x="228" y="405" on="1"/>
        <pt x="254" y="406" on="0"/>
        <pt x="295" y="406" on="1"/>
        <pt x="452" y="406" on="1"/>
        <pt x="461" y="382" on="0"/>
        <pt x="461" y="307" on="0"/>
        <pt x="452" y="281" on="1"/>
        <pt x="228" y="281" on="1"/>
      </contour>
      <contour>
        <pt x="178" y="799" on="1"/>
        <pt x="399" y="934" on="1"/>
        <pt x="419" y="919" on="0"/>
        <pt x="455" y="852" on="0"/>
        <pt x="458" y="821" on="1"/>
        <pt x="220" y="727" on="1"/>
        <pt x="205" y="736" on="0"/>
        <pt x="180" y="779" on="0"/>
      </contour>
    </TTGlyph>
    <TTGlyph name="Ecaron" xMin="77" yMin="-3" xMax="536" yMax="927">
      <contour>
        <pt x="228" y="193" on="1"/>
        <pt x="227" y="124" on="1"/>
        <pt x="227" y="123" on="1"/>
        <pt x="271" y="125" on="0"/>
        <pt x="300" y="125" on="1"/>
        <pt x="536" y="125" on="1"/>
        <pt x="536" y="89" on="0"/>
        <pt x="533" y="71" on="1"/>
        <pt x="519" y="-3" on="0"/>
        <pt x="435" y="-3" on="1"/>
        <pt x="165" y="-3" on="1"/>
        <pt x="124" y="-3" on="0"/>
        <pt x="77" y="45" on="0"/>
        <pt x="77" y="87" on="1"/>
        <pt x="77" y="676" on="1"/>
        <pt x="84" y="683" on="1"/>
        <pt x="511" y="683" on="1"/>
        <pt x="516" y="660" on="0"/>
        <pt x="516" y="590" on="0"/>
        <pt x="504" y="555" on="1"/>
        <pt x="227" y="555" on="1"/>
        <pt x="228" y="484" on="1"/>
        <pt x="228" y="405" on="1"/>
        <pt x="254" y="406" on="0"/>
        <pt x="295" y="406" on="1"/>
        <pt x="452" y="406" on="1"/>
        <pt x="461" y="382" on="0"/>
        <pt x="461" y="307" on="0"/>
        <pt x="452" y="281" on="1"/>
        <pt x="228" y="281" on="1"/>
      </contour>
      <contour>
        <pt x="177" y="915" on="1"/>
        <pt x="294" y="841" on="1"/>
        <pt x="414" y="927" on="1"/>
        <pt x="431" y="921" on="0"/>
        <pt x="471" y="885" on="0"/>
        <pt x="476" y="866" on="1"/>
        <pt x="357" y="745" on="1"/>
        <pt x="326" y="737" on="0"/>
        <pt x="263" y="737" on="0"/>
        <pt x="231" y="744" on="1"/>
        <pt x="118" y="854" on="1"/>
        <pt x="124" y="875" on="0"/>
        <pt x="160" y="909" on="0"/>
      </contour>
    </TTGlyph>
    <TTGlyph name="Ecircumflex" xMin="77" yMin="-3" xMax="536" yMax="914">
      <contour>
        <pt x="228" y="193" on="1"/>
        <pt x="227" y="124" on="1"/>
        <pt x="227" y="123" on="1"/>
        <pt x="271" y="125" on="0"/>
        <pt x="300" y="125" on="1"/>
        <pt x="536" y="125" on="1"/>
        <pt x="536" y="89" on="0"/>
        <pt x="533" y="71" on="1"/>
        <pt x="519" y="-3" on="0"/>
        <pt x="435" y="-3" on="1"/>
        <pt x="165" y="-3" on="1"/>
        <pt x="124" y="-3" on="0"/>
        <pt x="77" y="45" on="0"/>
        <pt x="77" y="87" on="1"/>
        <pt x="77" y="676" on="1"/>
        <pt x="84" y="683" on="1"/>
        <pt x="511" y="683" on="1"/>
        <pt x="516" y="660" on="0"/>
        <pt x="516" y="590" on="0"/>
        <pt x="504" y="555" on="1"/>
        <pt x="227" y="555" on="1"/>
        <pt x="228" y="484" on="1"/>
        <pt x="228" y="405" on="1"/>
        <pt x="254" y="406" on="0"/>
        <pt x="295" y="406" on="1"/>
        <pt x="452" y="406" on="1"/>
        <pt x="461" y="382" on="0"/>
        <pt x="461" y="307" on="0"/>
        <pt x="452" y="281" on="1"/>
        <pt x="228" y="281" on="1"/>
      </contour>
      <contour>
        <pt x="414" y="735" on="1"/>
        <pt x="297" y="810" on="1"/>
        <pt x="178" y="724" on="1"/>
        <pt x="161" y="730" on="0"/>
        <pt x="122" y="767" on="0"/>
        <pt x="117" y="786" on="1"/>
        <pt x="235" y="906" on="1"/>
        <pt x="266" y="913" on="0"/>
        <pt x="328" y="913" on="0"/>
        <pt x="360" y="907" on="1"/>
        <pt x="473" y="797" on="1"/>
        <pt x="467" y="776" on="0"/>
        <pt x="431" y="742" on="0"/>
      </contour>
    </TTGlyph>
    <TTGlyph name="Edieresis" xMin="77" yMin="-3" xMax="536" yMax="866">
      <contour>
        <pt x="228" y="193" on="1"/>
        <pt x="227" y="124" on="1"/>
        <pt x="227" y="123" on="1"/>
        <pt x="271" y="125" on="0"/>
        <pt x="300" y="125" on="1"/>
        <pt x="536" y="125" on="1"/>
        <pt x="536" y="89" on="0"/>
        <pt x="533" y="71" on="1"/>
        <pt x="519" y="-3" on="0"/>
        <pt x="435" y="-3" on="1"/>
        <pt x="165" y="-3" on="1"/>
        <pt x="124" y="-3" on="0"/>
        <pt x="77" y="45" on="0"/>
        <pt x="77" y="87" on="1"/>
        <pt x="77" y="676" on="1"/>
        <pt x="84" y="683" on="1"/>
        <pt x="511" y="683" on="1"/>
        <pt x="516" y="660" on="0"/>
        <pt x="516" y="590" on="0"/>
        <pt x="504" y="555" on="1"/>
        <pt x="227" y="555" on="1"/>
        <pt x="228" y="484" on="1"/>
        <pt x="228" y="405" on="1"/>
        <pt x="254" y="406" on="0"/>
        <pt x="295" y="406" on="1"/>
        <pt x="452" y="406" on="1"/>
        <pt x="461" y="382" on="0"/>
        <pt x="461" y="307" on="0"/>
        <pt x="452" y="281" on="1"/>
        <pt x="228" y="281" on="1"/>
      </contour>
      <contour>
        <pt x="354" y="850" on="1"/>
        <pt x="382" y="866" on="0"/>
        <pt x="448" y="866" on="0"/>
        <pt x="473" y="850" on="1"/>
        <pt x="485" y="834" on="0"/>
        <pt x="485" y="767" on="0"/>
        <pt x="473" y="752" on="1"/>
        <pt x="449" y="735" on="0"/>
        <pt x="381" y="735" on="0"/>
        <pt x="354" y="752" on="1"/>
        <pt x="340" y="767" on="0"/>
        <pt x="340" y="833" on="0"/>
      </contour>
      <contour>
        <pt x="148" y="866" on="0"/>
        <pt x="216" y="866" on="0"/>
        <pt x="244" y="850" on="1"/>
        <pt x="256" y="836" on="0"/>
        <pt x="256" y="765" on="0"/>
        <pt x="244" y="752" on="1"/>
        <pt x="217" y="735" on="0"/>
        <pt x="147" y="735" on="0"/>
        <pt x="125" y="752" on="1"/>
        <pt x="113" y="767" on="0"/>
        <pt x="113" y="834" on="0"/>
        <pt x="125" y="850" on="1"/>
      </contour>
    </TTGlyph>
    <TTGlyph name="Egrave" xMin="77" yMin="-3" xMax="536" yMax="934">
      <contour>
        <pt x="228" y="193" on="1"/>
        <pt x="227" y="124" on="1"/>
        <pt x="227" y="123" on="1"/>
        <pt x="271" y="125" on="0"/>
        <pt x="300" y="125" on="1"/>
        <pt x="536" y="125" on="1"/>
        <pt x="536" y="89" on="0"/>
        <pt x="533" y="71" on="1"/>
        <pt x="519" y="-3" on="0"/>
        <pt x="435" y="-3" on="1"/>
        <pt x="165" y="-3" on="1"/>
        <pt x="124" y="-3" on="0"/>
        <pt x="77" y="45" on="0"/>
        <pt x="77" y="87" on="1"/>
        <pt x="77" y="676" on="1"/>
        <pt x="84" y="683" on="1"/>
        <pt x="511" y="683" on="1"/>
        <pt x="516" y="660" on="0"/>
        <pt x="516" y="590" on="0"/>
        <pt x="504" y="555" on="1"/>
        <pt x="227" y="555" on="1"/>
        <pt x="228" y="484" on="1"/>
        <pt x="228" y="405" on="1"/>
        <pt x="254" y="406" on="0"/>
        <pt x="295" y="406" on="1"/>
        <pt x="452" y="406" on="1"/>
        <pt x="461" y="382" on="0"/>
        <pt x="461" y="307" on="0"/>
        <pt x="452" y="281" on="1"/>
        <pt x="228" y="281" on="1"/>
      </contour>
      <contour>
        <pt x="209" y="934" on="1"/>
        <pt x="430" y="799" on="1"/>
        <pt x="422" y="747" on="0"/>
        <pt x="388" y="727" on="1"/>
        <pt x="150" y="821" on="1"/>
        <pt x="153" y="852" on="0"/>
        <pt x="189" y="919" on="0"/>
      </contour>
    </TTGlyph>
    <TTGlyph name="Eogonek" xMin="77" yMin="-218" xMax="536" yMax="683">
      <contour>
        <pt x="228" y="193" on="1"/>
        <pt x="227" y="124" on="1"/>
        <pt x="227" y="123" on="1"/>
        <pt x="271" y="125" on="0"/>
        <pt x="300" y="125" on="1"/>
        <pt x="536" y="125" on="1"/>
        <pt x="536" y="89" on="0"/>
        <pt x="533" y="71" on="1"/>
        <pt x="524" y="21" on="0"/>
        <pt x="483" y="6" on="1"/>
        <pt x="400" y="-30" on="0"/>
        <pt x="400" y="-88" on="1"/>
        <pt x="400" y="-125" on="0"/>
        <pt x="442" y="-125" on="1"/>
        <pt x="467" y="-125" on="0"/>
        <pt x="493" y="-111" on="1"/>
        <pt x="522" y="-136" on="0"/>
        <pt x="525" y="-178" on="1"/>
        <pt x="478" y="-218" on="0"/>
        <pt x="355" y="-218" on="0"/>
        <pt x="290" y="-164" on="0"/>
        <pt x="290" y="-118" on="1"/>
        <pt x="290" y="-52" on="0"/>
        <pt x="351" y="-3" on="1"/>
        <pt x="165" y="-3" on="1"/>
        <pt x="124" y="-3" on="0"/>
        <pt x="77" y="45" on="0"/>
        <pt x="77" y="87" on="1"/>
        <pt x="77" y="676" on="1"/>
        <pt x="84" y="683" on="1"/>
        <pt x="511" y="683" on="1"/>
        <pt x="516" y="660" on="0"/>
        <pt x="516" y="590" on="0"/>
        <pt x="504" y="555" on="1"/>
        <pt x="227" y="555" on="1"/>
        <pt x="227" y="555" on="0"/>
        <pt x="228" y="484" on="1"/>
        <pt x="228" y="405" on="1"/>
        <pt x="254" y="406" on="0"/>
        <pt x="295" y="406" on="1"/>
        <pt x="452" y="406" on="1"/>
        <pt x="461" y="382" on="0"/>
        <pt x="461" y="307" on="0"/>
        <pt x="452" y="281" on="1"/>
        <pt x="228" y="281" on="1"/>
      </contour>
    </TTGlyph>
    <TTGlyph name="Eth" xMin="18" yMin="-6" xMax="641" yMax="689">
      <contour>
        <pt x="594" y="587" on="0"/>
        <pt x="641" y="441" on="0"/>
        <pt x="641" y="241" on="0"/>
        <pt x="595" y="95" on="0"/>
        <pt x="530" y="44" on="1"/>
        <pt x="498" y="19" on="0"/>
        <pt x="395" y="-6" on="0"/>
        <pt x="274" y="-6" on="0"/>
        <pt x="100" y="-2" on="1"/>
        <pt x="93" y="5" on="1"/>
        <pt x="93" y="285" on="1"/>
        <pt x="25" y="285" on="1"/>
        <pt x="18" y="307" on="0"/>
        <pt x="18" y="385" on="0"/>
        <pt x="25" y="408" on="1"/>
        <pt x="93" y="408" on="1"/>
        <pt x="93" y="678" on="1"/>
        <pt x="100" y="685" on="1"/>
        <pt x="216" y="689" on="0"/>
        <pt x="348" y="689" on="1"/>
        <pt x="395" y="689" on="0"/>
        <pt x="498" y="663" on="0"/>
        <pt x="530" y="638" on="1"/>
      </contour>
      <contour>
        <pt x="348" y="569" on="1"/>
        <pt x="242" y="570" on="1"/>
        <pt x="242" y="408" on="1"/>
        <pt x="373" y="408" on="1"/>
        <pt x="379" y="378" on="0"/>
        <pt x="379" y="314" on="0"/>
        <pt x="373" y="285" on="1"/>
        <pt x="242" y="285" on="1"/>
        <pt x="242" y="113" on="1"/>
        <pt x="348" y="113" on="1"/>
        <pt x="484" y="113" on="0"/>
        <pt x="484" y="342" on="1"/>
        <pt x="484" y="504" on="0"/>
        <pt x="419" y="549" on="1"/>
        <pt x="390" y="569" on="0"/>
      </contour>
    </TTGlyph>
    <TTGlyph name="Euro" xMin="8" yMin="-15" xMax="553" yMax="663">
      <contour>
        <pt x="491" y="487" on="1"/>
        <pt x="419" y="543" on="0"/>
        <pt x="269" y="543" on="0"/>
        <pt x="245" y="450" on="1"/>
        <pt x="413" y="450" on="1"/>
        <pt x="418" y="425" on="0"/>
        <pt x="418" y="380" on="0"/>
        <pt x="413" y="357" on="1"/>
        <pt x="233" y="357" on="1"/>
        <pt x="233" y="290" on="1"/>
        <pt x="413" y="290" on="1"/>
        <pt x="418" y="266" on="0"/>
        <pt x="418" y="220" on="0"/>
        <pt x="413" y="197" on="1"/>
        <pt x="245" y="197" on="1"/>
        <pt x="269" y="105" on="0"/>
        <pt x="418" y="105" on="0"/>
        <pt x="491" y="160" on="1"/>
        <pt x="544" y="130" on="0"/>
        <pt x="553" y="72" on="1"/>
        <pt x="451" y="-15" on="0"/>
        <pt x="327" y="-15" on="1"/>
        <pt x="138" y="-15" on="0"/>
        <pt x="96" y="197" on="1"/>
        <pt x="14" y="197" on="1"/>
        <pt x="8" y="215" on="0"/>
        <pt x="8" y="271" on="0"/>
        <pt x="14" y="290" on="1"/>
        <pt x="86" y="290" on="1"/>
        <pt x="85" y="301" on="0"/>
        <pt x="85" y="345" on="0"/>
        <pt x="86" y="357" on="1"/>
        <pt x="14" y="357" on="1"/>
        <pt x="8" y="375" on="0"/>
        <pt x="8" y="430" on="0"/>
        <pt x="14" y="450" on="1"/>
        <pt x="96" y="450" on="1"/>
        <pt x="138" y="663" on="0"/>
        <pt x="327" y="663" on="1"/>
        <pt x="449" y="663" on="0"/>
        <pt x="553" y="576" on="1"/>
        <pt x="549" y="551" on="0"/>
        <pt x="514" y="500" on="0"/>
      </contour>
    </TTGlyph>
    <TTGlyph name="Euro.smcp" xMin="5" yMin="-15" xMax="492" yMax="565">
      <contour>
        <pt x="433" y="412" on="1"/>
        <pt x="372" y="451" on="0"/>
        <pt x="248" y="451" on="0"/>
        <pt x="226" y="384" on="1"/>
        <pt x="361" y="384" on="1"/>
        <pt x="367" y="362" on="0"/>
        <pt x="367" y="324" on="0"/>
        <pt x="361" y="302" on="1"/>
        <pt x="214" y="302" on="1"/>
        <pt x="214" y="248" on="1"/>
        <pt x="361" y="248" on="1"/>
        <pt x="367" y="226" on="0"/>
        <pt x="367" y="188" on="0"/>
        <pt x="361" y="166" on="1"/>
        <pt x="227" y="166" on="1"/>
        <pt x="250" y="100" on="0"/>
        <pt x="375" y="100" on="0"/>
        <pt x="433" y="138" on="1"/>
        <pt x="456" y="125" on="0"/>
        <pt x="489" y="79" on="0"/>
        <pt x="492" y="55" on="1"/>
        <pt x="402" y="-15" on="0"/>
        <pt x="206" y="-15" on="0"/>
        <pt x="104" y="85" on="0"/>
        <pt x="85" y="166" on="1"/>
        <pt x="10" y="166" on="1"/>
        <pt x="5" y="184" on="0"/>
        <pt x="5" y="230" on="0"/>
        <pt x="10" y="248" on="1"/>
        <pt x="75" y="248" on="1"/>
        <pt x="74" y="256" on="0"/>
        <pt x="74" y="274" on="1"/>
        <pt x="74" y="302" on="1"/>
        <pt x="10" y="302" on="1"/>
        <pt x="5" y="320" on="0"/>
        <pt x="5" y="366" on="0"/>
        <pt x="10" y="384" on="1"/>
        <pt x="84" y="384" on="1"/>
        <pt x="125" y="565" on="0"/>
        <pt x="296" y="565" on="1"/>
        <pt x="405" y="565" on="0"/>
        <pt x="492" y="497" on="1"/>
        <pt x="489" y="472" on="0"/>
        <pt x="455" y="423" on="0"/>
      </contour>
    </TTGlyph>
    <TTGlyph name="F" xMin="78" yMin="-6" xMax="515" yMax="683">
      <contour>
        <pt x="231" y="0" on="1"/>
        <pt x="200" y="-6" on="0"/>
        <pt x="109" y="-6" on="0"/>
        <pt x="78" y="0" on="1"/>
        <pt x="78" y="677" on="1"/>
        <pt x="85" y="683" on="1"/>
        <pt x="508" y="683" on="1"/>
        <pt x="515" y="659" on="0"/>
        <pt x="515" y="624" on="1"/>
        <pt x="515" y="553" on="0"/>
        <pt x="433" y="553" on="1"/>
        <pt x="230" y="553" on="1"/>
        <pt x="231" y="525" on="0"/>
        <pt x="231" y="470" on="1"/>
        <pt x="231" y="403" on="1"/>
        <pt x="448" y="403" on="1"/>
        <pt x="456" y="379" on="0"/>
        <pt x="456" y="302" on="0"/>
        <pt x="448" y="278" on="1"/>
        <pt x="231" y="278" on="1"/>
      </contour>
    </TTGlyph>
    <TTGlyph name="G" xMin="38" yMin="-15" xMax="600" yMax="698">
      <contour>
        <pt x="342" y="384" on="1"/>
        <pt x="498" y="385" on="1"/>
        <pt x="499" y="385" on="0"/>
        <pt x="500" y="385" on="1"/>
        <pt x="600" y="385" on="0"/>
        <pt x="600" y="289" on="1"/>
        <pt x="600" y="27" on="1"/>
        <pt x="476" y="-15" on="0"/>
        <pt x="188" y="-15" on="0"/>
        <pt x="38" y="173" on="0"/>
        <pt x="38" y="337" on="1"/>
        <pt x="38" y="425" on="0"/>
        <pt x="91" y="566" on="0"/>
        <pt x="136" y="610" on="1"/>
        <pt x="226" y="698" on="0"/>
        <pt x="486" y="698" on="0"/>
        <pt x="598" y="626" on="1"/>
        <pt x="595" y="595" on="0"/>
        <pt x="554" y="532" on="0"/>
        <pt x="529" y="516" on="1"/>
        <pt x="447" y="571" on="0"/>
        <pt x="364" y="571" on="1"/>
        <pt x="194" y="571" on="0"/>
        <pt x="194" y="106" on="0"/>
        <pt x="364" y="106" on="1"/>
        <pt x="407" y="106" on="0"/>
        <pt x="456" y="115" on="1"/>
        <pt x="456" y="188" on="1"/>
        <pt x="456" y="233" on="0"/>
        <pt x="458" y="257" on="1"/>
        <pt x="403" y="257" on="1"/>
        <pt x="365" y="257" on="0"/>
        <pt x="331" y="286" on="0"/>
        <pt x="331" y="356" on="0"/>
      </contour>
    </TTGlyph>
    <TTGlyph name="H" xMin="78" yMin="-6" xMax="607" yMax="689">
      <contour>
        <pt x="455" y="415" on="1"/>
        <pt x="454" y="489" on="1"/>
        <pt x="454" y="683" on="1"/>
        <pt x="484" y="689" on="0"/>
        <pt x="577" y="689" on="0"/>
        <pt x="607" y="683" on="1"/>
        <pt x="607" y="0" on="1"/>
        <pt x="576" y="-6" on="0"/>
        <pt x="485" y="-6" on="0"/>
        <pt x="454" y="0" on="1"/>
        <pt x="454" y="215" on="1"/>
        <pt x="455" y="289" on="1"/>
        <pt x="404" y="288" on="1"/>
        <pt x="281" y="288" on="1"/>
        <pt x="230" y="289" on="1"/>
        <pt x="231" y="215" on="1"/>
        <pt x="231" y="0" on="1"/>
        <pt x="201" y="-6" on="0"/>
        <pt x="107" y="-6" on="0"/>
        <pt x="78" y="0" on="1"/>
        <pt x="78" y="683" on="1"/>
        <pt x="107" y="689" on="0"/>
        <pt x="201" y="689" on="0"/>
        <pt x="231" y="683" on="1"/>
        <pt x="231" y="489" on="1"/>
        <pt x="230" y="415" on="1"/>
        <pt x="281" y="416" on="1"/>
        <pt x="404" y="416" on="1"/>
      </contour>
    </TTGlyph>
    <TTGlyph name="Hbar" xMin="9" yMin="-6" xMax="684" yMax="689">
      <contour>
        <pt x="234" y="287" on="1"/>
        <pt x="235" y="213" on="1"/>
        <pt x="235" y="0" on="1"/>
        <pt x="205" y="-6" on="0"/>
        <pt x="111" y="-6" on="0"/>
        <pt x="82" y="0" on="1"/>
        <pt x="82" y="489" on="1"/>
        <pt x="17" y="489" on="1"/>
        <pt x="9" y="514" on="0"/>
        <pt x="9" y="573" on="0"/>
        <pt x="17" y="600" on="1"/>
        <pt x="82" y="600" on="1"/>
        <pt x="82" y="683" on="1"/>
        <pt x="111" y="689" on="0"/>
        <pt x="205" y="689" on="0"/>
        <pt x="235" y="683" on="1"/>
        <pt x="235" y="600" on="1"/>
        <pt x="458" y="600" on="1"/>
        <pt x="458" y="683" on="1"/>
        <pt x="488" y="689" on="0"/>
        <pt x="581" y="689" on="0"/>
        <pt x="611" y="683" on="1"/>
        <pt x="611" y="600" on="1"/>
        <pt x="677" y="600" on="1"/>
        <pt x="684" y="572" on="0"/>
        <pt x="684" y="516" on="0"/>
        <pt x="677" y="489" on="1"/>
        <pt x="611" y="489" on="1"/>
        <pt x="611" y="0" on="1"/>
        <pt x="580" y="-6" on="0"/>
        <pt x="489" y="-6" on="0"/>
        <pt x="458" y="0" on="1"/>
        <pt x="458" y="213" on="1"/>
        <pt x="459" y="287" on="1"/>
        <pt x="408" y="286" on="1"/>
        <pt x="285" y="286" on="1"/>
      </contour>
      <contour>
        <pt x="234" y="411" on="1"/>
        <pt x="285" y="412" on="1"/>
        <pt x="408" y="412" on="1"/>
        <pt x="459" y="411" on="1"/>
        <pt x="458" y="487" on="1"/>
        <pt x="458" y="489" on="1"/>
        <pt x="235" y="489" on="1"/>
        <pt x="235" y="487" on="1"/>
      </contour>
    </TTGlyph>
    <TTGlyph name="I" xMin="80" yMin="-6" xMax="233" yMax="689">
      <contour>
        <pt x="80" y="0" on="1"/>
        <pt x="80" y="683" on="1"/>
        <pt x="110" y="689" on="0"/>
        <pt x="203" y="689" on="0"/>
        <pt x="233" y="683" on="1"/>
        <pt x="233" y="0" on="1"/>
        <pt x="203" y="-6" on="0"/>
        <pt x="110" y="-6" on="0"/>
      </contour>
    </TTGlyph>
    <TTGlyph name="IJ" xMin="80" yMin="-10" xMax="707" yMax="689">
      <contour>
        <pt x="80" y="0" on="1"/>
        <pt x="80" y="683" on="1"/>
        <pt x="110" y="689" on="0"/>
        <pt x="203" y="689" on="0"/>
        <pt x="233" y="683" on="1"/>
        <pt x="233" y="0" on="1"/>
        <pt x="203" y="-6" on="0"/>
        <pt x="110" y="-6" on="0"/>
      </contour>
      <contour>
        <pt x="370" y="147" on="1"/>
        <pt x="418" y="116" on="0"/>
        <pt x="515" y="116" on="0"/>
        <pt x="554" y="178" on="0"/>
        <pt x="554" y="245" on="1"/>
        <pt x="554" y="683" on="1"/>
        <pt x="584" y="689" on="0"/>
        <pt x="677" y="689" on="0"/>
        <pt x="707" y="683" on="1"/>
        <pt x="707" y="260" on="1"/>
        <pt x="707" y="137" on="0"/>
        <pt x="663" y="67" on="1"/>
        <pt x="614" y="-10" on="0"/>
        <pt x="479" y="-10" on="1"/>
        <pt x="386" y="-10" on="0"/>
        <pt x="317" y="34" on="1"/>
        <pt x="327" y="100" on="0"/>
      </contour>
    </TTGlyph>
    <TTGlyph name="Iacute" xMin="36" yMin="-6" xMax="316" yMax="935">
      <contour>
        <pt x="80" y="0" on="1"/>
        <pt x="80" y="683" on="1"/>
        <pt x="110" y="689" on="0"/>
        <pt x="203" y="689" on="0"/>
        <pt x="233" y="683" on="1"/>
        <pt x="233" y="0" on="1"/>
        <pt x="203" y="-6" on="0"/>
        <pt x="110" y="-6" on="0"/>
      </contour>
      <contour>
        <pt x="36" y="800" on="1"/>
        <pt x="257" y="935" on="1"/>
        <pt x="277" y="920" on="0"/>
        <pt x="313" y="853" on="0"/>
        <pt x="316" y="822" on="1"/>
        <pt x="78" y="728" on="1"/>
        <pt x="63" y="737" on="0"/>
        <pt x="38" y="780" on="0"/>
      </contour>
    </TTGlyph>
    <TTGlyph name="Icircumflex" xMin="-25" yMin="-6" xMax="331" yMax="915">
      <contour>
        <pt x="80" y="0" on="1"/>
        <pt x="80" y="683" on="1"/>
        <pt x="110" y="689" on="0"/>
        <pt x="203" y="689" on="0"/>
        <pt x="233" y="683" on="1"/>
        <pt x="233" y="0" on="1"/>
        <pt x="203" y="-6" on="0"/>
        <pt x="110" y="-6" on="0"/>
      </contour>
      <contour>
        <pt x="272" y="736" on="1"/>
        <pt x="155" y="811" on="1"/>
        <pt x="36" y="725" on="1"/>
        <pt x="19" y="731" on="0"/>
        <pt x="-20" y="768" on="0"/>
        <pt x="-25" y="787" on="1"/>
        <pt x="93" y="907" on="1"/>
        <pt x="124" y="914" on="0"/>
        <pt x="186" y="914" on="0"/>
        <pt x="218" y="908" on="1"/>
        <pt x="331" y="798" on="1"/>
        <pt x="325" y="777" on="0"/>
        <pt x="289" y="743" on="0"/>
      </contour>
    </TTGlyph>
    <TTGlyph name="Idieresis" xMin="-29" yMin="-6" xMax="343" yMax="867">
      <contour>
        <pt x="80" y="0" on="1"/>
        <pt x="80" y="683" on="1"/>
        <pt x="110" y="689" on="0"/>
        <pt x="203" y="689" on="0"/>
        <pt x="233" y="683" on="1"/>
        <pt x="233" y="0" on="1"/>
        <pt x="203" y="-6" on="0"/>
        <pt x="110" y="-6" on="0"/>
      </contour>
      <contour>
        <pt x="212" y="851" on="1"/>
        <pt x="240" y="867" on="0"/>
        <pt x="306" y="867" on="0"/>
        <pt x="331" y="851" on="1"/>
        <pt x="343" y="835" on="0"/>
        <pt x="343" y="768" on="0"/>
        <pt x="331" y="753" on="1"/>
        <pt x="307" y="736" on="0"/>
        <pt x="239" y="736" on="0"/>
        <pt x="212" y="753" on="1"/>
        <pt x="198" y="768" on="0"/>
        <pt x="198" y="834" on="0"/>
      </contour>
      <contour>
        <pt x="6" y="867" on="0"/>
        <pt x="74" y="867" on="0"/>
        <pt x="102" y="851" on="1"/>
        <pt x="114" y="837" on="0"/>
        <pt x="114" y="766" on="0"/>
        <pt x="102" y="753" on="1"/>
        <pt x="75" y="736" on="0"/>
        <pt x="5" y="736" on="0"/>
        <pt x="-17" y="753" on="1"/>
        <pt x="-29" y="768" on="0"/>
        <pt x="-29" y="835" on="0"/>
        <pt x="-17" y="851" on="1"/>
      </contour>
    </TTGlyph>
    <TTGlyph name="Igrave" xMin="8" yMin="-6" xMax="288" yMax="935">
      <contour>
        <pt x="80" y="0" on="1"/>
        <pt x="80" y="683" on="1"/>
        <pt x="110" y="689" on="0"/>
        <pt x="203" y="689" on="0"/>
        <pt x="233" y="683" on="1"/>
        <pt x="233" y="0" on="1"/>
        <pt x="203" y="-6" on="0"/>
        <pt x="110" y="-6" on="0"/>
      </contour>
      <contour>
        <pt x="67" y="935" on="1"/>
        <pt x="288" y="800" on="1"/>
        <pt x="280" y="748" on="0"/>
        <pt x="246" y="728" on="1"/>
        <pt x="8" y="822" on="1"/>
        <pt x="11" y="853" on="0"/>
        <pt x="47" y="920" on="0"/>
      </contour>
    </TTGlyph>
    <TTGlyph name="Itilde" xMin="-41" yMin="-6" xMax="355" yMax="904">
      <contour>
        <pt x="80" y="0" on="1"/>
        <pt x="80" y="683" on="1"/>
        <pt x="110" y="689" on="0"/>
        <pt x="203" y="689" on="0"/>
        <pt x="233" y="683" on="1"/>
        <pt x="233" y="0" on="1"/>
        <pt x="203" y="-6" on="0"/>
        <pt x="110" y="-6" on="0"/>
      </contour>
      <contour>
        <pt x="159" y="759" on="1"/>
        <pt x="111" y="782" on="1"/>
        <pt x="95" y="791" on="0"/>
        <pt x="59" y="791" on="0"/>
        <pt x="43" y="767" on="1"/>
        <pt x="34" y="755" on="1"/>
        <pt x="12" y="755" on="0"/>
        <pt x="-33" y="780" on="0"/>
        <pt x="-41" y="799" on="1"/>
        <pt x="-32" y="819" on="1"/>
        <pt x="9" y="904" on="0"/>
        <pt x="89" y="904" on="1"/>
        <pt x="124" y="904" on="0"/>
        <pt x="155" y="887" on="1"/>
        <pt x="203" y="864" on="1"/>
        <pt x="219" y="855" on="0"/>
        <pt x="254" y="855" on="0"/>
        <pt x="271" y="879" on="1"/>
        <pt x="280" y="892" on="1"/>
        <pt x="302" y="892" on="0"/>
        <pt x="346" y="866" on="0"/>
        <pt x="355" y="847" on="1"/>
        <pt x="346" y="828" on="1"/>
        <pt x="327" y="788" on="0"/>
        <pt x="264" y="742" on="0"/>
        <pt x="195" y="742" on="0"/>
      </contour>
    </TTGlyph>
    <TTGlyph name="J" xMin="10" yMin="-10" xMax="400" yMax="689">
      <contour>
        <pt x="63" y="147" on="1"/>
        <pt x="111" y="116" on="0"/>
        <pt x="208" y="116" on="0"/>
        <pt x="247" y="178" on="0"/>
        <pt x="247" y="245" on="1"/>
        <pt x="247" y="683" on="1"/>
        <pt x="277" y="689" on="0"/>
        <pt x="370" y="689" on="0"/>
        <pt x="400" y="683" on="1"/>
        <pt x="400" y="260" on="1"/>
        <pt x="400" y="137" on="0"/>
        <pt x="356" y="67" on="1"/>
        <pt x="307" y="-10" on="0"/>
        <pt x="172" y="-10" on="1"/>
        <pt x="79" y="-10" on="0"/>
        <pt x="10" y="34" on="1"/>
        <pt x="20" y="100" on="0"/>
      </contour>
    </TTGlyph>
    <TTGlyph name="Jcircumflex" xMin="10" yMin="-10" xMax="498" yMax="914">
      <contour>
        <pt x="63" y="147" on="1"/>
        <pt x="111" y="116" on="0"/>
        <pt x="208" y="116" on="0"/>
        <pt x="247" y="178" on="0"/>
        <pt x="247" y="245" on="1"/>
        <pt x="247" y="683" on="1"/>
        <pt x="277" y="689" on="0"/>
        <pt x="370" y="689" on="0"/>
        <pt x="400" y="683" on="1"/>
        <pt x="400" y="260" on="1"/>
        <pt x="400" y="137" on="0"/>
        <pt x="356" y="67" on="1"/>
        <pt x="307" y="-10" on="0"/>
        <pt x="172" y="-10" on="1"/>
        <pt x="79" y="-10" on="0"/>
        <pt x="10" y="34" on="1"/>
        <pt x="20" y="100" on="0"/>
      </contour>
      <contour>
        <pt x="439" y="735" on="1"/>
        <pt x="322" y="810" on="1"/>
        <pt x="203" y="724" on="1"/>
        <pt x="186" y="730" on="0"/>
        <pt x="147" y="767" on="0"/>
        <pt x="142" y="786" on="1"/>
        <pt x="260" y="906" on="1"/>
        <pt x="291" y="913" on="0"/>
        <pt x="353" y="913" on="0"/>
        <pt x="385" y="907" on="1"/>
        <pt x="498" y="797" on="1"/>
        <pt x="492" y="776" on="0"/>
        <pt x="456" y="742" on="0"/>
      </contour>
    </TTGlyph>
    <TTGlyph name="K" xMin="78" yMin="-8" xMax="609" yMax="689">
      <contour>
        <pt x="609" y="38" on="1"/>
        <pt x="578" y="-8" on="0"/>
        <pt x="508" y="-8" on="1"/>
        <pt x="468" y="-8" on="0"/>
        <pt x="429" y="32" on="0"/>
        <pt x="415" y="79" on="1"/>
        <pt x="375" y="200" on="1"/>
        <pt x="359" y="249" on="0"/>
        <pt x="315" y="290" on="0"/>
        <pt x="278" y="290" on="1"/>
        <pt x="267" y="290" on="0"/>
        <pt x="231" y="288" on="1"/>
        <pt x="231" y="0" on="1"/>
        <pt x="201" y="-6" on="0"/>
        <pt x="107" y="-6" on="0"/>
        <pt x="78" y="0" on="1"/>
        <pt x="78" y="683" on="1"/>
        <pt x="107" y="689" on="0"/>
        <pt x="201" y="689" on="0"/>
        <pt x="231" y="683" on="1"/>
        <pt x="231" y="416" on="1"/>
        <pt x="260" y="417" on="1"/>
        <pt x="278" y="417" on="0"/>
        <pt x="294" y="430" on="0"/>
        <pt x="305" y="450" on="1"/>
        <pt x="404" y="635" on="1"/>
        <pt x="419" y="664" on="0"/>
        <pt x="452" y="688" on="0"/>
        <pt x="535" y="688" on="0"/>
        <pt x="575" y="684" on="1"/>
        <pt x="583" y="673" on="1"/>
        <pt x="458" y="440" on="1"/>
        <pt x="435" y="396" on="0"/>
        <pt x="404" y="370" on="1"/>
        <pt x="450" y="360" on="0"/>
        <pt x="499" y="304" on="0"/>
        <pt x="516" y="256" on="1"/>
        <pt x="558" y="129" on="1"/>
        <pt x="559" y="127" on="0"/>
        <pt x="567" y="103" on="0"/>
        <pt x="570" y="97" on="0"/>
        <pt x="577" y="78" on="0"/>
        <pt x="583" y="70" on="0"/>
        <pt x="592" y="55" on="0"/>
        <pt x="598" y="50" on="1"/>
        <pt x="598" y="50" on="0"/>
      </contour>
    </TTGlyph>
    <TTGlyph name="Kcommaaccent" xMin="78" yMin="-288" xMax="609" yMax="689">
      <contour>
        <pt x="609" y="38" on="1"/>
        <pt x="578" y="-8" on="0"/>
        <pt x="508" y="-8" on="1"/>
        <pt x="468" y="-8" on="0"/>
        <pt x="429" y="32" on="0"/>
        <pt x="415" y="79" on="1"/>
        <pt x="375" y="200" on="1"/>
        <pt x="359" y="249" on="0"/>
        <pt x="315" y="290" on="0"/>
        <pt x="278" y="290" on="1"/>
        <pt x="267" y="290" on="0"/>
        <pt x="231" y="288" on="1"/>
        <pt x="231" y="0" on="1"/>
        <pt x="201" y="-6" on="0"/>
        <pt x="107" y="-6" on="0"/>
        <pt x="78" y="0" on="1"/>
        <pt x="78" y="683" on="1"/>
        <pt x="107" y="689" on="0"/>
        <pt x="201" y="689" on="0"/>
        <pt x="231" y="683" on="1"/>
        <pt x="231" y="416" on="1"/>
        <pt x="260" y="417" on="1"/>
        <pt x="278" y="417" on="0"/>
        <pt x="294" y="430" on="0"/>
        <pt x="305" y="450" on="1"/>
        <pt x="404" y="635" on="1"/>
        <pt x="419" y="664" on="0"/>
        <pt x="452" y="688" on="0"/>
        <pt x="535" y="688" on="0"/>
        <pt x="575" y="684" on="1"/>
        <pt x="583" y="673" on="1"/>
        <pt x="458" y="440" on="1"/>
        <pt x="435" y="396" on="0"/>
        <pt x="404" y="370" on="1"/>
        <pt x="450" y="360" on="0"/>
        <pt x="499" y="304" on="0"/>
        <pt x="516" y="256" on="1"/>
        <pt x="558" y="129" on="1"/>
        <pt x="559" y="127" on="0"/>
        <pt x="567" y="103" on="0"/>
        <pt x="570" y="97" on="0"/>
        <pt x="577" y="78" on="0"/>
        <pt x="583" y="70" on="0"/>
        <pt x="592" y="55" on="0"/>
        <pt x="598" y="50" on="1"/>
        <pt x="598" y="50" on="0"/>
      </contour>
      <contour>
        <pt x="267" y="-75" on="1"/>
        <pt x="300" y="-51" on="0"/>
        <pt x="350" y="-51" on="1"/>
        <pt x="375" y="-51" on="0"/>
        <pt x="397" y="-59" on="1"/>
        <pt x="409" y="-83" on="0"/>
        <pt x="409" y="-119" on="1"/>
        <pt x="409" y="-178" on="0"/>
        <pt x="329" y="-267" on="0"/>
        <pt x="260" y="-288" on="1"/>
        <pt x="222" y="-275" on="0"/>
        <pt x="214" y="-227" on="1"/>
        <pt x="280" y="-189" on="0"/>
        <pt x="280" y="-128" on="1"/>
        <pt x="280" y="-101" on="0"/>
      </contour>
    </TTGlyph>
    <TTGlyph name="L" xMin="77" yMin="-3" xMax="500" yMax="689">
      <contour>
        <pt x="323" y="129" on="1"/>
        <pt x="500" y="129" on="1"/>
        <pt x="500" y="96" on="0"/>
        <pt x="496" y="72" on="1"/>
        <pt x="484" y="-3" on="0"/>
        <pt x="396" y="-3" on="1"/>
        <pt x="166" y="-3" on="1"/>
        <pt x="125" y="-3" on="0"/>
        <pt x="77" y="45" on="0"/>
        <pt x="77" y="87" on="1"/>
        <pt x="77" y="683" on="1"/>
        <pt x="84" y="689" on="1"/>
        <pt x="140" y="689" on="1"/>
        <pt x="230" y="689" on="0"/>
        <pt x="230" y="593" on="1"/>
        <pt x="230" y="126" on="1"/>
        <pt x="280" y="129" on="0"/>
      </contour>
    </TTGlyph>
    <TTGlyph name="Ldot" xMin="77" yMin="-3" xMax="500" yMax="689">
      <contour>
        <pt x="323" y="129" on="1"/>
        <pt x="500" y="129" on="1"/>
        <pt x="500" y="96" on="0"/>
        <pt x="496" y="72" on="1"/>
        <pt x="484" y="-3" on="0"/>
        <pt x="396" y="-3" on="1"/>
        <pt x="166" y="-3" on="1"/>
        <pt x="125" y="-3" on="0"/>
        <pt x="77" y="45" on="0"/>
        <pt x="77" y="87" on="1"/>
        <pt x="77" y="683" on="1"/>
        <pt x="84" y="689" on="1"/>
        <pt x="140" y="689" on="1"/>
        <pt x="230" y="689" on="0"/>
        <pt x="230" y="593" on="1"/>
        <pt x="230" y="126" on="1"/>
        <pt x="280" y="129" on="0"/>
      </contour>
      <contour>
        <pt x="347" y="304" on="1"/>
        <pt x="336" y="326" on="0"/>
        <pt x="336" y="395" on="0"/>
        <pt x="347" y="417" on="1"/>
        <pt x="373" y="435" on="0"/>
        <pt x="451" y="435" on="0"/>
        <pt x="477" y="417" on="1"/>
        <pt x="486" y="396" on="0"/>
        <pt x="486" y="325" on="0"/>
        <pt x="477" y="304" on="1"/>
        <pt x="454" y="287" on="0"/>
        <pt x="370" y="287" on="0"/>
      </contour>
    </TTGlyph>
    <TTGlyph name="Lslash" xMin="-3" yMin="-3" xMax="510" yMax="689">
      <contour>
        <pt x="240" y="593" on="1"/>
        <pt x="240" y="434" on="1"/>
        <pt x="397" y="490" on="1"/>
        <pt x="408" y="484" on="1"/>
        <pt x="416" y="459" on="0"/>
        <pt x="416" y="402" on="0"/>
        <pt x="411" y="372" on="1"/>
        <pt x="240" y="313" on="1"/>
        <pt x="240" y="126" on="1"/>
        <pt x="290" y="129" on="0"/>
        <pt x="333" y="129" on="1"/>
        <pt x="510" y="129" on="1"/>
        <pt x="510" y="96" on="0"/>
        <pt x="506" y="72" on="1"/>
        <pt x="494" y="-3" on="0"/>
        <pt x="406" y="-3" on="1"/>
        <pt x="176" y="-3" on="1"/>
        <pt x="135" y="-3" on="0"/>
        <pt x="87" y="45" on="0"/>
        <pt x="87" y="87" on="1"/>
        <pt x="87" y="266" on="1"/>
        <pt x="17" y="241" on="1"/>
        <pt x="7" y="247" on="1"/>
        <pt x="-2" y="272" on="0"/>
        <pt x="-2" y="329" on="0"/>
        <pt x="4" y="359" on="1"/>
        <pt x="87" y="388" on="1"/>
        <pt x="87" y="683" on="1"/>
        <pt x="94" y="689" on="1"/>
        <pt x="150" y="689" on="1"/>
        <pt x="240" y="689" on="0"/>
      </contour>
    </TTGlyph>
    <TTGlyph name="M" xMin="57" yMin="-6" xMax="772" yMax="689">
      <contour>
        <pt x="57" y="2" on="1"/>
        <pt x="110" y="682" on="1"/>
        <pt x="148" y="689" on="0"/>
        <pt x="273" y="689" on="0"/>
        <pt x="310" y="682" on="1"/>
        <pt x="374" y="428" on="1"/>
        <pt x="401" y="317" on="0"/>
        <pt x="412" y="249" on="1"/>
        <pt x="418" y="249" on="1"/>
        <pt x="429" y="317" on="0"/>
        <pt x="456" y="428" on="1"/>
        <pt x="520" y="682" on="1"/>
        <pt x="558" y="689" on="0"/>
        <pt x="682" y="689" on="0"/>
        <pt x="719" y="682" on="1"/>
        <pt x="772" y="2" on="1"/>
        <pt x="744" y="-6" on="0"/>
        <pt x="656" y="-6" on="0"/>
        <pt x="628" y="-1" on="1"/>
        <pt x="612" y="289" on="1"/>
        <pt x="604" y="427" on="0"/>
        <pt x="604" y="516" on="1"/>
        <pt x="597" y="516" on="1"/>
        <pt x="493" y="101" on="1"/>
        <pt x="466" y="96" on="0"/>
        <pt x="365" y="96" on="0"/>
        <pt x="336" y="101" on="1"/>
        <pt x="233" y="516" on="1"/>
        <pt x="226" y="516" on="1"/>
        <pt x="224" y="394" on="0"/>
        <pt x="218" y="289" on="1"/>
        <pt x="202" y="-1" on="1"/>
        <pt x="174" y="-6" on="0"/>
        <pt x="86" y="-6" on="0"/>
      </contour>
    </TTGlyph>
    <TTGlyph name="N" xMin="78" yMin="-6" xMax="616" yMax="689">
      <contour>
        <pt x="609" y="689" on="1"/>
        <pt x="616" y="683" on="1"/>
        <pt x="616" y="3" on="1"/>
        <pt x="578" y="-6" on="0"/>
        <pt x="475" y="-6" on="0"/>
        <pt x="435" y="0" on="1"/>
        <pt x="269" y="366" on="1"/>
        <pt x="227" y="466" on="0"/>
        <pt x="212" y="507" on="1"/>
        <pt x="208" y="506" on="1"/>
        <pt x="220" y="364" on="0"/>
        <pt x="220" y="215" on="1"/>
        <pt x="220" y="0" on="1"/>
        <pt x="190" y="-6" on="0"/>
        <pt x="107" y="-6" on="0"/>
        <pt x="78" y="0" on="1"/>
        <pt x="78" y="680" on="1"/>
        <pt x="114" y="689" on="0"/>
        <pt x="217" y="689" on="0"/>
        <pt x="257" y="683" on="1"/>
        <pt x="419" y="318" on="1"/>
        <pt x="482" y="167" on="1"/>
        <pt x="486" y="168" on="1"/>
        <pt x="474" y="306" on="0"/>
        <pt x="474" y="457" on="1"/>
        <pt x="474" y="597" on="1"/>
        <pt x="474" y="647" on="0"/>
        <pt x="514" y="689" on="0"/>
        <pt x="559" y="689" on="1"/>
      </contour>
    </TTGlyph>
    <TTGlyph name="Nacute" xMin="78" yMin="-6" xMax="616" yMax="934">
      <contour>
        <pt x="609" y="689" on="1"/>
        <pt x="616" y="683" on="1"/>
        <pt x="616" y="3" on="1"/>
        <pt x="578" y="-6" on="0"/>
        <pt x="475" y="-6" on="0"/>
        <pt x="435" y="0" on="1"/>
        <pt x="269" y="366" on="1"/>
        <pt x="227" y="466" on="0"/>
        <pt x="212" y="507" on="1"/>
        <pt x="208" y="506" on="1"/>
        <pt x="220" y="364" on="0"/>
        <pt x="220" y="215" on="1"/>
        <pt x="220" y="0" on="1"/>
        <pt x="190" y="-6" on="0"/>
        <pt x="107" y="-6" on="0"/>
        <pt x="78" y="0" on="1"/>
        <pt x="78" y="680" on="1"/>
        <pt x="114" y="689" on="0"/>
        <pt x="217" y="689" on="0"/>
        <pt x="257" y="683" on="1"/>
        <pt x="419" y="318" on="1"/>
        <pt x="482" y="167" on="1"/>
        <pt x="486" y="168" on="1"/>
        <pt x="474" y="306" on="0"/>
        <pt x="474" y="457" on="1"/>
        <pt x="474" y="597" on="1"/>
        <pt x="474" y="647" on="0"/>
        <pt x="514" y="689" on="0"/>
        <pt x="559" y="689" on="1"/>
      </contour>
      <contour>
        <pt x="229" y="799" on="1"/>
        <pt x="450" y="934" on="1"/>
        <pt x="470" y="919" on="0"/>
        <pt x="506" y="852" on="0"/>
        <pt x="509" y="821" on="1"/>
        <pt x="271" y="727" on="1"/>
        <pt x="256" y="736" on="0"/>
        <pt x="231" y="779" on="0"/>
      </contour>
    </TTGlyph>
    <TTGlyph name="Ncaron" xMin="78" yMin="-6" xMax="616" yMax="927">
      <contour>
        <pt x="609" y="689" on="1"/>
        <pt x="616" y="683" on="1"/>
        <pt x="616" y="3" on="1"/>
        <pt x="578" y="-6" on="0"/>
        <pt x="475" y="-6" on="0"/>
        <pt x="435" y="0" on="1"/>
        <pt x="269" y="366" on="1"/>
        <pt x="227" y="466" on="0"/>
        <pt x="212" y="507" on="1"/>
        <pt x="208" y="506" on="1"/>
        <pt x="220" y="364" on="0"/>
        <pt x="220" y="215" on="1"/>
        <pt x="220" y="0" on="1"/>
        <pt x="190" y="-6" on="0"/>
        <pt x="107" y="-6" on="0"/>
        <pt x="78" y="0" on="1"/>
        <pt x="78" y="680" on="1"/>
        <pt x="114" y="689" on="0"/>
        <pt x="217" y="689" on="0"/>
        <pt x="257" y="683" on="1"/>
        <pt x="419" y="318" on="1"/>
        <pt x="482" y="167" on="1"/>
        <pt x="486" y="168" on="1"/>
        <pt x="474" y="306" on="0"/>
        <pt x="474" y="457" on="1"/>
        <pt x="474" y="597" on="1"/>
        <pt x="474" y="647" on="0"/>
        <pt x="514" y="689" on="0"/>
        <pt x="559" y="689" on="1"/>
      </contour>
      <contour>
        <pt x="228" y="915" on="1"/>
        <pt x="345" y="841" on="1"/>
        <pt x="465" y="927" on="1"/>
        <pt x="482" y="921" on="0"/>
        <pt x="522" y="885" on="0"/>
        <pt x="527" y="866" on="1"/>
        <pt x="408" y="745" on="1"/>
        <pt x="377" y="737" on="0"/>
        <pt x="314" y="737" on="0"/>
        <pt x="282" y="744" on="1"/>
        <pt x="169" y="854" on="1"/>
        <pt x="175" y="875" on="0"/>
        <pt x="211" y="909" on="0"/>
      </contour>
    </TTGlyph>
    <TTGlyph name="Ntilde" xMin="78" yMin="-6" xMax="616" yMax="903">
      <contour>
        <pt x="609" y="689" on="1"/>
        <pt x="616" y="683" on="1"/>
        <pt x="616" y="3" on="1"/>
        <pt x="578" y="-6" on="0"/>
        <pt x="475" y="-6" on="0"/>
        <pt x="435" y="0" on="1"/>
        <pt x="269" y="366" on="1"/>
        <pt x="227" y="466" on="0"/>
        <pt x="212" y="507" on="1"/>
        <pt x="208" y="506" on="1"/>
        <pt x="220" y="364" on="0"/>
        <pt x="220" y="215" on="1"/>
        <pt x="220" y="0" on="1"/>
        <pt x="190" y="-6" on="0"/>
        <pt x="107" y="-6" on="0"/>
        <pt x="78" y="0" on="1"/>
        <pt x="78" y="680" on="1"/>
        <pt x="114" y="689" on="0"/>
        <pt x="217" y="689" on="0"/>
        <pt x="257" y="683" on="1"/>
        <pt x="419" y="318" on="1"/>
        <pt x="482" y="167" on="1"/>
        <pt x="486" y="168" on="1"/>
        <pt x="474" y="306" on="0"/>
        <pt x="474" y="457" on="1"/>
        <pt x="474" y="597" on="1"/>
        <pt x="474" y="647" on="0"/>
        <pt x="514" y="689" on="0"/>
        <pt x="559" y="689" on="1"/>
      </contour>
      <contour>
        <pt x="352" y="758" on="1"/>
        <pt x="304" y="781" on="1"/>
        <pt x="288" y="790" on="0"/>
        <pt x="252" y="790" on="0"/>
        <pt x="236" y="766" on="1"/>
        <pt x="227" y="754" on="1"/>
        <pt x="205" y="754" on="0"/>
        <pt x="160" y="779" on="0"/>
        <pt x="152" y="798" on="1"/>
        <pt x="161" y="818" on="1"/>
        <pt x="202" y="903" on="0"/>
        <pt x="282" y="903" on="1"/>
        <pt x="317" y="903" on="0"/>
        <pt x="348" y="886" on="1"/>
        <pt x="396" y="863" on="1"/>
        <pt x="412" y="854" on="0"/>
        <pt x="447" y="854" on="0"/>
        <pt x="464" y="878" on="1"/>
        <pt x="473" y="891" on="1"/>
        <pt x="495" y="891" on="0"/>
        <pt x="539" y="865" on="0"/>
        <pt x="548" y="846" on="1"/>
        <pt x="539" y="827" on="1"/>
        <pt x="520" y="787" on="0"/>
        <pt x="457" y="741" on="0"/>
        <pt x="388" y="741" on="0"/>
      </contour>
    </TTGlyph>
    <TTGlyph name="O" xMin="38" yMin="-15" xMax="628" yMax="698">
      <contour>
        <pt x="197" y="580" on="0"/>
        <pt x="197" y="103" on="0"/>
        <pt x="468" y="103" on="0"/>
        <pt x="468" y="580" on="0"/>
      </contour>
      <contour>
        <pt x="145" y="48" on="1"/>
        <pt x="38" y="137" on="0"/>
        <pt x="38" y="546" on="0"/>
        <pt x="145" y="635" on="1"/>
        <pt x="222" y="698" on="0"/>
        <pt x="444" y="698" on="0"/>
        <pt x="521" y="635" on="1"/>
        <pt x="628" y="546" on="0"/>
        <pt x="628" y="137" on="0"/>
        <pt x="521" y="48" on="1"/>
        <pt x="444" y="-15" on="0"/>
        <pt x="222" y="-15" on="0"/>
      </contour>
    </TTGlyph>
    <TTGlyph name="OE" xMin="38" yMin="-15" xMax="887" yMax="698">
      <contour>
        <pt x="579" y="194" on="1"/>
        <pt x="578" y="125" on="1"/>
        <pt x="578" y="124" on="1"/>
        <pt x="622" y="126" on="0"/>
        <pt x="651" y="126" on="1"/>
        <pt x="887" y="126" on="1"/>
        <pt x="887" y="90" on="0"/>
        <pt x="884" y="72" on="1"/>
        <pt x="872" y="-2" on="0"/>
        <pt x="787" y="-2" on="1"/>
        <pt x="475" y="-2" on="1"/>
        <pt x="380" y="-15" on="0"/>
        <pt x="335" y="-15" on="1"/>
        <pt x="223" y="-15" on="0"/>
        <pt x="146" y="48" on="1"/>
        <pt x="38" y="139" on="0"/>
        <pt x="38" y="544" on="0"/>
        <pt x="146" y="635" on="1"/>
        <pt x="223" y="698" on="0"/>
        <pt x="335" y="698" on="1"/>
        <pt x="383" y="698" on="0"/>
        <pt x="477" y="683" on="1"/>
        <pt x="862" y="683" on="1"/>
        <pt x="868" y="655" on="0"/>
        <pt x="868" y="592" on="0"/>
        <pt x="855" y="555" on="1"/>
        <pt x="578" y="555" on="1"/>
        <pt x="579" y="484" on="1"/>
        <pt x="579" y="405" on="1"/>
        <pt x="605" y="406" on="0"/>
        <pt x="646" y="406" on="1"/>
        <pt x="804" y="406" on="1"/>
        <pt x="813" y="378" on="0"/>
        <pt x="813" y="311" on="0"/>
        <pt x="804" y="281" on="1"/>
        <pt x="579" y="281" on="1"/>
      </contour>
      <contour>
        <pt x="334" y="103" on="1"/>
        <pt x="378" y="103" on="0"/>
        <pt x="431" y="118" on="1"/>
        <pt x="431" y="565" on="1"/>
        <pt x="378" y="580" on="0"/>
        <pt x="335" y="580" on="1"/>
        <pt x="195" y="580" on="0"/>
        <pt x="195" y="103" on="0"/>
      </contour>
    </TTGlyph>
    <TTGlyph name="Oacute" xMin="38" yMin="-15" xMax="628" yMax="934">
      <contour>
        <pt x="197" y="580" on="0"/>
        <pt x="197" y="103" on="0"/>
        <pt x="468" y="103" on="0"/>
        <pt x="468" y="580" on="0"/>
      </contour>
      <contour>
        <pt x="145" y="48" on="1"/>
        <pt x="38" y="137" on="0"/>
        <pt x="38" y="546" on="0"/>
        <pt x="145" y="635" on="1"/>
        <pt x="222" y="698" on="0"/>
        <pt x="444" y="698" on="0"/>
        <pt x="521" y="635" on="1"/>
        <pt x="628" y="546" on="0"/>
        <pt x="628" y="137" on="0"/>
        <pt x="521" y="48" on="1"/>
        <pt x="444" y="-15" on="0"/>
        <pt x="222" y="-15" on="0"/>
      </contour>
      <contour>
        <pt x="212" y="799" on="1"/>
        <pt x="433" y="934" on="1"/>
        <pt x="453" y="919" on="0"/>
        <pt x="489" y="852" on="0"/>
        <pt x="492" y="821" on="1"/>
        <pt x="254" y="727" on="1"/>
        <pt x="239" y="736" on="0"/>
        <pt x="214" y="779" on="0"/>
      </contour>
    </TTGlyph>
    <TTGlyph name="Ocircumflex" xMin="38" yMin="-15" xMax="628" yMax="914">
      <contour>
        <pt x="197" y="580" on="0"/>
        <pt x="197" y="103" on="0"/>
        <pt x="468" y="103" on="0"/>
        <pt x="468" y="580" on="0"/>
      </contour>
      <contour>
        <pt x="145" y="48" on="1"/>
        <pt x="38" y="137" on="0"/>
        <pt x="38" y="546" on="0"/>
        <pt x="145" y="635" on="1"/>
        <pt x="222" y="698" on="0"/>
        <pt x="444" y="698" on="0"/>
        <pt x="521" y="635" on="1"/>
        <pt x="628" y="546" on="0"/>
        <pt x="628" y="137" on="0"/>
        <pt x="521" y="48" on="1"/>
        <pt x="444" y="-15" on="0"/>
        <pt x="222" y="-15" on="0"/>
      </contour>
      <contour>
        <pt x="448" y="735" on="1"/>
        <pt x="331" y="810" on="1"/>
        <pt x="212" y="724" on="1"/>
        <pt x="195" y="730" on="0"/>
        <pt x="156" y="767" on="0"/>
        <pt x="151" y="786" on="1"/>
        <pt x="269" y="906" on="1"/>
        <pt x="300" y="913" on="0"/>
        <pt x="362" y="913" on="0"/>
        <pt x="394" y="907" on="1"/>
        <pt x="507" y="797" on="1"/>
        <pt x="501" y="776" on="0"/>
        <pt x="465" y="742" on="0"/>
      </contour>
    </TTGlyph>
    <TTGlyph name="Odieresis" xMin="38" yMin="-15" xMax="628" yMax="866">
      <contour>
        <pt x="197" y="580" on="0"/>
        <pt x="197" y="103" on="0"/>
        <pt x="468" y="103" on="0"/>
        <pt x="468" y="580" on="0"/>
      </contour>
      <contour>
        <pt x="145" y="48" on="1"/>
        <pt x="38" y="137" on="0"/>
        <pt x="38" y="546" on="0"/>
        <pt x="145" y="635" on="1"/>
        <pt x="222" y="698" on="0"/>
        <pt x="444" y="698" on="0"/>
        <pt x="521" y="635" on="1"/>
        <pt x="628" y="546" on="0"/>
        <pt x="628" y="137" on="0"/>
        <pt x="521" y="48" on="1"/>
        <pt x="444" y="-15" on="0"/>
        <pt x="222" y="-15" on="0"/>
      </contour>
      <contour>
        <pt x="388" y="850" on="1"/>
        <pt x="416" y="866" on="0"/>
        <pt x="482" y="866" on="0"/>
        <pt x="507" y="850" on="1"/>
        <pt x="519" y="834" on="0"/>
        <pt x="519" y="767" on="0"/>
        <pt x="507" y="752" on="1"/>
        <pt x="483" y="735" on="0"/>
        <pt x="415" y="735" on="0"/>
        <pt x="388" y="752" on="1"/>
        <pt x="374" y="767" on="0"/>
        <pt x="374" y="833" on="0"/>
      </contour>
      <contour>
        <pt x="182" y="866" on="0"/>
        <pt x="250" y="866" on="0"/>
        <pt x="278" y="850" on="1"/>
        <pt x="290" y="836" on="0"/>
        <pt x="290" y="765" on="0"/>
        <pt x="278" y="752" on="1"/>
        <pt x="251" y="735" on="0"/>
        <pt x="181" y="735" on="0"/>
        <pt x="159" y="752" on="1"/>
        <pt x="147" y="767" on="0"/>
        <pt x="147" y="834" on="0"/>
        <pt x="159" y="850" on="1"/>
      </contour>
    </TTGlyph>
    <TTGlyph name="Ograve" xMin="38" yMin="-15" xMax="628" yMax="934">
      <contour>
        <pt x="197" y="580" on="0"/>
        <pt x="197" y="103" on="0"/>
        <pt x="468" y="103" on="0"/>
        <pt x="468" y="580" on="0"/>
      </contour>
      <contour>
        <pt x="145" y="48" on="1"/>
        <pt x="38" y="137" on="0"/>
        <pt x="38" y="546" on="0"/>
        <pt x="145" y="635" on="1"/>
        <pt x="222" y="698" on="0"/>
        <pt x="444" y="698" on="0"/>
        <pt x="521" y="635" on="1"/>
        <pt x="628" y="546" on="0"/>
        <pt x="628" y="137" on="0"/>
        <pt x="521" y="48" on="1"/>
        <pt x="444" y="-15" on="0"/>
        <pt x="222" y="-15" on="0"/>
      </contour>
      <contour>
        <pt x="243" y="934" on="1"/>
        <pt x="464" y="799" on="1"/>
        <pt x="456" y="747" on="0"/>
        <pt x="422" y="727" on="1"/>
        <pt x="184" y="821" on="1"/>
        <pt x="187" y="852" on="0"/>
        <pt x="223" y="919" on="0"/>
      </contour>
    </TTGlyph>
    <TTGlyph name="Oslash" xMin="38" yMin="-70" xMax="631" yMax="756">
      <contour>
        <pt x="127" y="65" on="1"/>
        <pt x="38" y="158" on="0"/>
        <pt x="38" y="544" on="0"/>
        <pt x="146" y="635" on="1"/>
        <pt x="221" y="698" on="0"/>
        <pt x="334" y="698" on="1"/>
        <pt x="398" y="698" on="0"/>
        <pt x="450" y="678" on="1"/>
        <pt x="495" y="756" on="1"/>
        <pt x="554" y="747" on="0"/>
        <pt x="589" y="704" on="1"/>
        <pt x="540" y="618" on="1"/>
        <pt x="631" y="524" on="0"/>
        <pt x="631" y="342" on="1"/>
        <pt x="631" y="140" on="0"/>
        <pt x="523" y="48" on="1"/>
        <pt x="448" y="-15" on="0"/>
        <pt x="334" y="-15" on="1"/>
        <pt x="270" y="-15" on="0"/>
        <pt x="218" y="5" on="1"/>
        <pt x="175" y="-70" on="1"/>
        <pt x="149" y="-66" on="0"/>
        <pt x="96" y="-38" on="0"/>
        <pt x="80" y="-19" on="1"/>
      </contour>
      <contour>
        <pt x="478" y="342" on="1"/>
        <pt x="478" y="417" on="0"/>
        <pt x="463" y="473" on="1"/>
        <pt x="275" y="112" on="1"/>
        <pt x="303" y="99" on="0"/>
        <pt x="334" y="99" on="1"/>
        <pt x="478" y="99" on="0"/>
      </contour>
      <contour>
        <pt x="190" y="342" on="1"/>
        <pt x="190" y="262" on="0"/>
        <pt x="205" y="211" on="1"/>
        <pt x="393" y="571" on="1"/>
        <pt x="365" y="584" on="0"/>
        <pt x="334" y="584" on="1"/>
        <pt x="190" y="584" on="0"/>
      </contour>
    </TTGlyph>
    <TTGlyph name="Otilde" xMin="38" yMin="-15" xMax="628" yMax="911">
      <contour>
        <pt x="197" y="580" on="0"/>
        <pt x="197" y="103" on="0"/>
        <pt x="468" y="103" on="0"/>
        <pt x="468" y="580" on="0"/>
      </contour>
      <contour>
        <pt x="145" y="48" on="1"/>
        <pt x="38" y="137" on="0"/>
        <pt x="38" y="546" on="0"/>
        <pt x="145" y="635" on="1"/>
        <pt x="222" y="698" on="0"/>
        <pt x="444" y="698" on="0"/>
        <pt x="521" y="635" on="1"/>
        <pt x="628" y="546" on="0"/>
        <pt x="628" y="137" on="0"/>
        <pt x="521" y="48" on="1"/>
        <pt x="444" y="-15" on="0"/>
        <pt x="222" y="-15" on="0"/>
      </contour>
      <contour>
        <pt x="329" y="766" on="1"/>
        <pt x="280" y="789" on="1"/>
        <pt x="262" y="798" on="0"/>
        <pt x="229" y="798" on="0"/>
        <pt x="210" y="774" on="1"/>
        <pt x="200" y="761" on="1"/>
        <pt x="178" y="761" on="0"/>
        <pt x="133" y="787" on="0"/>
        <pt x="125" y="806" on="1"/>
        <pt x="134" y="825" on="1"/>
        <pt x="152" y="864" on="0"/>
        <pt x="216" y="911" on="0"/>
        <pt x="290" y="911" on="0"/>
        <pt x="324" y="894" on="1"/>
        <pt x="373" y="871" on="1"/>
        <pt x="391" y="862" on="0"/>
        <pt x="425" y="862" on="0"/>
        <pt x="443" y="886" on="1"/>
        <pt x="453" y="898" on="1"/>
        <pt x="475" y="898" on="0"/>
        <pt x="519" y="873" on="0"/>
        <pt x="528" y="854" on="1"/>
        <pt x="519" y="834" on="1"/>
        <pt x="501" y="795" on="0"/>
        <pt x="436" y="748" on="0"/>
        <pt x="365" y="748" on="0"/>
      </contour>
    </TTGlyph>
    <TTGlyph name="P" xMin="78" yMin="-6" xMax="556" yMax="689">
      <contour>
        <pt x="424" y="689" on="0"/>
        <pt x="556" y="569" on="0"/>
        <pt x="556" y="340" on="0"/>
        <pt x="423" y="218" on="0"/>
        <pt x="314" y="218" on="1"/>
        <pt x="231" y="218" on="1"/>
        <pt x="231" y="0" on="1"/>
        <pt x="201" y="-6" on="0"/>
        <pt x="107" y="-6" on="0"/>
        <pt x="78" y="0" on="1"/>
        <pt x="78" y="678" on="1"/>
        <pt x="85" y="685" on="1"/>
        <pt x="253" y="689" on="0"/>
        <pt x="314" y="689" on="1"/>
      </contour>
      <contour>
        <pt x="231" y="572" on="1"/>
        <pt x="231" y="333" on="1"/>
        <pt x="260" y="334" on="0"/>
        <pt x="340" y="334" on="0"/>
        <pt x="387" y="375" on="0"/>
        <pt x="400" y="423" on="0"/>
        <pt x="400" y="500" on="0"/>
        <pt x="357" y="571" on="0"/>
        <pt x="259" y="571" on="0"/>
      </contour>
    </TTGlyph>
    <TTGlyph name="Q" xMin="38" yMin="-142" xMax="637" yMax="698">
      <contour>
        <pt x="438" y="-104" on="1"/>
        <pt x="335" y="-15" on="1"/>
        <pt x="334" y="-15" on="1"/>
        <pt x="222" y="-15" on="0"/>
        <pt x="146" y="47" on="1"/>
        <pt x="38" y="139" on="0"/>
        <pt x="38" y="545" on="0"/>
        <pt x="146" y="636" on="1"/>
        <pt x="220" y="698" on="0"/>
        <pt x="447" y="698" on="0"/>
        <pt x="521" y="636" on="1"/>
        <pt x="629" y="544" on="0"/>
        <pt x="629" y="341" on="1"/>
        <pt x="629" y="164" on="0"/>
        <pt x="550" y="79" on="1"/>
        <pt x="521" y="46" on="0"/>
        <pt x="487" y="32" on="1"/>
        <pt x="511" y="15" on="1"/>
        <pt x="579" y="-33" on="0"/>
        <pt x="637" y="-33" on="1"/>
        <pt x="636" y="-82" on="0"/>
        <pt x="580" y="-142" on="0"/>
        <pt x="541" y="-142" on="1"/>
        <pt x="481" y="-142" on="0"/>
      </contour>
      <contour>
        <pt x="471" y="580" on="0"/>
        <pt x="195" y="580" on="0"/>
        <pt x="195" y="103" on="0"/>
        <pt x="471" y="103" on="0"/>
      </contour>
    </TTGlyph>
    <TTGlyph name="R" xMin="78" yMin="-9" xMax="597" yMax="689">
      <contour>
        <pt x="562" y="473" on="1"/>
        <pt x="562" y="406" on="0"/>
        <pt x="489" y="308" on="0"/>
        <pt x="440" y="290" on="1"/>
        <pt x="491" y="272" on="0"/>
        <pt x="516" y="199" on="1"/>
        <pt x="548" y="110" on="1"/>
        <pt x="565" y="62" on="0"/>
        <pt x="597" y="37" on="1"/>
        <pt x="582" y="17" on="0"/>
        <pt x="526" y="-9" on="0"/>
        <pt x="456" y="-9" on="0"/>
        <pt x="418" y="31" on="0"/>
        <pt x="401" y="80" on="1"/>
        <pt x="363" y="189" on="1"/>
        <pt x="353" y="220" on="0"/>
        <pt x="314" y="254" on="0"/>
        <pt x="276" y="254" on="1"/>
        <pt x="229" y="254" on="1"/>
        <pt x="229" y="0" on="1"/>
        <pt x="199" y="-6" on="0"/>
        <pt x="107" y="-6" on="0"/>
        <pt x="78" y="0" on="1"/>
        <pt x="78" y="678" on="1"/>
        <pt x="85" y="685" on="1"/>
        <pt x="253" y="689" on="0"/>
        <pt x="321" y="689" on="1"/>
        <pt x="430" y="689" on="0"/>
        <pt x="562" y="580" on="0"/>
      </contour>
      <contour>
        <pt x="229" y="574" on="1"/>
        <pt x="229" y="371" on="1"/>
        <pt x="295" y="373" on="0"/>
        <pt x="309" y="373" on="1"/>
        <pt x="406" y="373" on="0"/>
        <pt x="406" y="573" on="0"/>
        <pt x="309" y="573" on="1"/>
        <pt x="259" y="573" on="0"/>
      </contour>
    </TTGlyph>
    <TTGlyph name="Racute" xMin="78" yMin="-9" xMax="597" yMax="934">
      <contour>
        <pt x="562" y="473" on="1"/>
        <pt x="562" y="406" on="0"/>
        <pt x="489" y="308" on="0"/>
        <pt x="440" y="290" on="1"/>
        <pt x="491" y="272" on="0"/>
        <pt x="516" y="199" on="1"/>
        <pt x="548" y="110" on="1"/>
        <pt x="565" y="62" on="0"/>
        <pt x="597" y="37" on="1"/>
        <pt x="582" y="17" on="0"/>
        <pt x="526" y="-9" on="0"/>
        <pt x="456" y="-9" on="0"/>
        <pt x="418" y="31" on="0"/>
        <pt x="401" y="80" on="1"/>
        <pt x="363" y="189" on="1"/>
        <pt x="353" y="220" on="0"/>
        <pt x="314" y="254" on="0"/>
        <pt x="276" y="254" on="1"/>
        <pt x="229" y="254" on="1"/>
        <pt x="229" y="0" on="1"/>
        <pt x="199" y="-6" on="0"/>
        <pt x="107" y="-6" on="0"/>
        <pt x="78" y="0" on="1"/>
        <pt x="78" y="678" on="1"/>
        <pt x="85" y="685" on="1"/>
        <pt x="253" y="689" on="0"/>
        <pt x="321" y="689" on="1"/>
        <pt x="430" y="689" on="0"/>
        <pt x="562" y="580" on="0"/>
      </contour>
      <contour>
        <pt x="229" y="574" on="1"/>
        <pt x="229" y="371" on="1"/>
        <pt x="295" y="373" on="0"/>
        <pt x="309" y="373" on="1"/>
        <pt x="406" y="373" on="0"/>
        <pt x="406" y="573" on="0"/>
        <pt x="309" y="573" on="1"/>
        <pt x="259" y="573" on="0"/>
      </contour>
      <contour>
        <pt x="182" y="799" on="1"/>
        <pt x="403" y="934" on="1"/>
        <pt x="423" y="919" on="0"/>
        <pt x="459" y="852" on="0"/>
        <pt x="462" y="821" on="1"/>
        <pt x="224" y="727" on="1"/>
        <pt x="209" y="736" on="0"/>
        <pt x="184" y="779" on="0"/>
      </contour>
    </TTGlyph>
    <TTGlyph name="Rcaron" xMin="78" yMin="-9" xMax="597" yMax="927">
      <contour>
        <pt x="562" y="473" on="1"/>
        <pt x="562" y="406" on="0"/>
        <pt x="489" y="308" on="0"/>
        <pt x="440" y="290" on="1"/>
        <pt x="491" y="272" on="0"/>
        <pt x="516" y="199" on="1"/>
        <pt x="548" y="110" on="1"/>
        <pt x="565" y="62" on="0"/>
        <pt x="597" y="37" on="1"/>
        <pt x="582" y="17" on="0"/>
        <pt x="526" y="-9" on="0"/>
        <pt x="456" y="-9" on="0"/>
        <pt x="418" y="31" on="0"/>
        <pt x="401" y="80" on="1"/>
        <pt x="363" y="189" on="1"/>
        <pt x="353" y="220" on="0"/>
        <pt x="314" y="254" on="0"/>
        <pt x="276" y="254" on="1"/>
        <pt x="229" y="254" on="1"/>
        <pt x="229" y="0" on="1"/>
        <pt x="199" y="-6" on="0"/>
        <pt x="107" y="-6" on="0"/>
        <pt x="78" y="0" on="1"/>
        <pt x="78" y="678" on="1"/>
        <pt x="85" y="685" on="1"/>
        <pt x="253" y="689" on="0"/>
        <pt x="321" y="689" on="1"/>
        <pt x="430" y="689" on="0"/>
        <pt x="562" y="580" on="0"/>
      </contour>
      <contour>
        <pt x="229" y="574" on="1"/>
        <pt x="229" y="371" on="1"/>
        <pt x="295" y="373" on="0"/>
        <pt x="309" y="373" on="1"/>
        <pt x="406" y="373" on="0"/>
        <pt x="406" y="573" on="0"/>
        <pt x="309" y="573" on="1"/>
        <pt x="259" y="573" on="0"/>
      </contour>
      <contour>
        <pt x="181" y="915" on="1"/>
        <pt x="298" y="841" on="1"/>
        <pt x="418" y="927" on="1"/>
        <pt x="435" y="921" on="0"/>
        <pt x="475" y="885" on="0"/>
        <pt x="480" y="866" on="1"/>
        <pt x="361" y="745" on="1"/>
        <pt x="330" y="737" on="0"/>
        <pt x="267" y="737" on="0"/>
        <pt x="235" y="744" on="1"/>
        <pt x="122" y="854" on="1"/>
        <pt x="128" y="875" on="0"/>
        <pt x="164" y="909" on="0"/>
      </contour>
    </TTGlyph>
    <TTGlyph name="Rcommaaccent" xMin="78" yMin="-288" xMax="597" yMax="689">
      <contour>
        <pt x="562" y="473" on="1"/>
        <pt x="562" y="406" on="0"/>
        <pt x="489" y="308" on="0"/>
        <pt x="440" y="290" on="1"/>
        <pt x="491" y="272" on="0"/>
        <pt x="516" y="199" on="1"/>
        <pt x="548" y="110" on="1"/>
        <pt x="565" y="62" on="0"/>
        <pt x="597" y="37" on="1"/>
        <pt x="582" y="17" on="0"/>
        <pt x="526" y="-9" on="0"/>
        <pt x="456" y="-9" on="0"/>
        <pt x="418" y="31" on="0"/>
        <pt x="401" y="80" on="1"/>
        <pt x="363" y="189" on="1"/>
        <pt x="353" y="220" on="0"/>
        <pt x="314" y="254" on="0"/>
        <pt x="276" y="254" on="1"/>
        <pt x="229" y="254" on="1"/>
        <pt x="229" y="0" on="1"/>
        <pt x="199" y="-6" on="0"/>
        <pt x="107" y="-6" on="0"/>
        <pt x="78" y="0" on="1"/>
        <pt x="78" y="678" on="1"/>
        <pt x="85" y="685" on="1"/>
        <pt x="253" y="689" on="0"/>
        <pt x="321" y="689" on="1"/>
        <pt x="430" y="689" on="0"/>
        <pt x="562" y="580" on="0"/>
      </contour>
      <contour>
        <pt x="229" y="574" on="1"/>
        <pt x="229" y="371" on="1"/>
        <pt x="295" y="373" on="0"/>
        <pt x="309" y="373" on="1"/>
        <pt x="406" y="373" on="0"/>
        <pt x="406" y="573" on="0"/>
        <pt x="309" y="573" on="1"/>
        <pt x="259" y="573" on="0"/>
      </contour>
      <contour>
        <pt x="263" y="-75" on="1"/>
        <pt x="296" y="-51" on="0"/>
        <pt x="346" y="-51" on="1"/>
        <pt x="371" y="-51" on="0"/>
        <pt x="393" y="-59" on="1"/>
        <pt x="405" y="-83" on="0"/>
        <pt x="405" y="-119" on="1"/>
        <pt x="405" y="-178" on="0"/>
        <pt x="325" y="-267" on="0"/>
        <pt x="256" y="-288" on="1"/>
        <pt x="218" y="-275" on="0"/>
        <pt x="210" y="-227" on="1"/>
        <pt x="276" y="-189" on="0"/>
        <pt x="276" y="-128" on="1"/>
        <pt x="276" y="-101" on="0"/>
      </contour>
    </TTGlyph>
    <TTGlyph name="S" xMin="17" yMin="-15" xMax="529" yMax="698">
      <contour>
        <pt x="17" y="60" on="1"/>
        <pt x="20" y="92" on="0"/>
        <pt x="54" y="155" on="0"/>
        <pt x="77" y="174" on="1"/>
        <pt x="186" y="108" on="0"/>
        <pt x="279" y="108" on="1"/>
        <pt x="322" y="108" on="0"/>
        <pt x="367" y="149" on="0"/>
        <pt x="367" y="178" on="1"/>
        <pt x="367" y="228" on="0"/>
        <pt x="300" y="258" on="1"/>
        <pt x="182" y="308" on="1"/>
        <pt x="40" y="370" on="0"/>
        <pt x="40" y="491" on="1"/>
        <pt x="40" y="582" on="0"/>
        <pt x="178" y="698" on="0"/>
        <pt x="403" y="698" on="0"/>
        <pt x="513" y="641" on="1"/>
        <pt x="508" y="572" on="0"/>
        <pt x="461" y="526" on="1"/>
        <pt x="359" y="575" on="0"/>
        <pt x="281" y="575" on="1"/>
        <pt x="240" y="575" on="0"/>
        <pt x="196" y="536" on="0"/>
        <pt x="196" y="511" on="1"/>
        <pt x="196" y="471" on="0"/>
        <pt x="258" y="444" on="1"/>
        <pt x="378" y="394" on="1"/>
        <pt x="450" y="363" on="0"/>
        <pt x="529" y="262" on="0"/>
        <pt x="529" y="198" on="1"/>
        <pt x="529" y="103" on="0"/>
        <pt x="394" y="-15" on="0"/>
        <pt x="268" y="-15" on="1"/>
        <pt x="206" y="-15" on="0"/>
        <pt x="71" y="25" on="0"/>
      </contour>
    </TTGlyph>
    <TTGlyph name="Sacute" xMin="17" yMin="-15" xMax="529" yMax="934">
      <contour>
        <pt x="17" y="60" on="1"/>
        <pt x="20" y="92" on="0"/>
        <pt x="54" y="155" on="0"/>
        <pt x="77" y="174" on="1"/>
        <pt x="186" y="108" on="0"/>
        <pt x="279" y="108" on="1"/>
        <pt x="322" y="108" on="0"/>
        <pt x="367" y="149" on="0"/>
        <pt x="367" y="178" on="1"/>
        <pt x="367" y="228" on="0"/>
        <pt x="300" y="258" on="1"/>
        <pt x="182" y="308" on="1"/>
        <pt x="40" y="370" on="0"/>
        <pt x="40" y="491" on="1"/>
        <pt x="40" y="582" on="0"/>
        <pt x="178" y="698" on="0"/>
        <pt x="403" y="698" on="0"/>
        <pt x="513" y="641" on="1"/>
        <pt x="508" y="572" on="0"/>
        <pt x="461" y="526" on="1"/>
        <pt x="359" y="575" on="0"/>
        <pt x="281" y="575" on="1"/>
        <pt x="240" y="575" on="0"/>
        <pt x="196" y="536" on="0"/>
        <pt x="196" y="511" on="1"/>
        <pt x="196" y="471" on="0"/>
        <pt x="258" y="444" on="1"/>
        <pt x="378" y="394" on="1"/>
        <pt x="450" y="363" on="0"/>
        <pt x="529" y="262" on="0"/>
        <pt x="529" y="198" on="1"/>
        <pt x="529" y="103" on="0"/>
        <pt x="394" y="-15" on="0"/>
        <pt x="268" y="-15" on="1"/>
        <pt x="206" y="-15" on="0"/>
        <pt x="71" y="25" on="0"/>
      </contour>
      <contour>
        <pt x="164" y="799" on="1"/>
        <pt x="385" y="934" on="1"/>
        <pt x="405" y="919" on="0"/>
        <pt x="441" y="852" on="0"/>
        <pt x="444" y="821" on="1"/>
        <pt x="206" y="727" on="1"/>
        <pt x="191" y="736" on="0"/>
        <pt x="166" y="779" on="0"/>
      </contour>
    </TTGlyph>
    <TTGlyph name="Scaron" xMin="17" yMin="-15" xMax="529" yMax="927">
      <contour>
        <pt x="17" y="60" on="1"/>
        <pt x="20" y="92" on="0"/>
        <pt x="54" y="155" on="0"/>
        <pt x="77" y="174" on="1"/>
        <pt x="186" y="108" on="0"/>
        <pt x="279" y="108" on="1"/>
        <pt x="322" y="108" on="0"/>
        <pt x="367" y="149" on="0"/>
        <pt x="367" y="178" on="1"/>
        <pt x="367" y="228" on="0"/>
        <pt x="300" y="258" on="1"/>
        <pt x="182" y="308" on="1"/>
        <pt x="40" y="370" on="0"/>
        <pt x="40" y="491" on="1"/>
        <pt x="40" y="582" on="0"/>
        <pt x="178" y="698" on="0"/>
        <pt x="403" y="698" on="0"/>
        <pt x="513" y="641" on="1"/>
        <pt x="508" y="572" on="0"/>
        <pt x="461" y="526" on="1"/>
        <pt x="359" y="575" on="0"/>
        <pt x="281" y="575" on="1"/>
        <pt x="240" y="575" on="0"/>
        <pt x="196" y="536" on="0"/>
        <pt x="196" y="511" on="1"/>
        <pt x="196" y="471" on="0"/>
        <pt x="258" y="444" on="1"/>
        <pt x="378" y="394" on="1"/>
        <pt x="450" y="363" on="0"/>
        <pt x="529" y="262" on="0"/>
        <pt x="529" y="198" on="1"/>
        <pt x="529" y="103" on="0"/>
        <pt x="394" y="-15" on="0"/>
        <pt x="268" y="-15" on="1"/>
        <pt x="206" y="-15" on="0"/>
        <pt x="71" y="25" on="0"/>
      </contour>
      <contour>
        <pt x="163" y="915" on="1"/>
        <pt x="280" y="841" on="1"/>
        <pt x="400" y="927" on="1"/>
        <pt x="417" y="921" on="0"/>
        <pt x="457" y="885" on="0"/>
        <pt x="462" y="866" on="1"/>
        <pt x="343" y="745" on="1"/>
        <pt x="312" y="737" on="0"/>
        <pt x="249" y="737" on="0"/>
        <pt x="217" y="744" on="1"/>
        <pt x="104" y="854" on="1"/>
        <pt x="110" y="875" on="0"/>
        <pt x="146" y="909" on="0"/>
      </contour>
    </TTGlyph>
    <TTGlyph name="T" xMin="5" yMin="-6" xMax="508" yMax="683">
      <contour>
        <pt x="330" y="557" on="1"/>
        <pt x="331" y="483" on="1"/>
        <pt x="331" y="0" on="1"/>
        <pt x="300" y="-6" on="0"/>
        <pt x="209" y="-6" on="0"/>
        <pt x="178" y="0" on="1"/>
        <pt x="178" y="483" on="1"/>
        <pt x="179" y="557" on="1"/>
        <pt x="178" y="557" on="1"/>
        <pt x="116" y="556" on="1"/>
        <pt x="10" y="556" on="1"/>
        <pt x="5" y="585" on="0"/>
        <pt x="5" y="654" on="0"/>
        <pt x="10" y="683" on="1"/>
        <pt x="500" y="683" on="1"/>
        <pt x="508" y="657" on="0"/>
        <pt x="508" y="587" on="0"/>
        <pt x="470" y="556" on="0"/>
        <pt x="428" y="556" on="1"/>
        <pt x="393" y="556" on="1"/>
        <pt x="331" y="557" on="1"/>
      </contour>
    </TTGlyph>
    <TTGlyph name="Tcaron" xMin="5" yMin="-6" xMax="508" yMax="927">
      <contour>
        <pt x="330" y="557" on="1"/>
        <pt x="331" y="483" on="1"/>
        <pt x="331" y="0" on="1"/>
        <pt x="300" y="-6" on="0"/>
        <pt x="209" y="-6" on="0"/>
        <pt x="178" y="0" on="1"/>
        <pt x="178" y="483" on="1"/>
        <pt x="179" y="557" on="1"/>
        <pt x="178" y="557" on="1"/>
        <pt x="116" y="556" on="1"/>
        <pt x="10" y="556" on="1"/>
        <pt x="5" y="585" on="0"/>
        <pt x="5" y="654" on="0"/>
        <pt x="10" y="683" on="1"/>
        <pt x="500" y="683" on="1"/>
        <pt x="508" y="657" on="0"/>
        <pt x="508" y="587" on="0"/>
        <pt x="470" y="556" on="0"/>
        <pt x="428" y="556" on="1"/>
        <pt x="393" y="556" on="1"/>
        <pt x="331" y="557" on="1"/>
      </contour>
      <contour>
        <pt x="132" y="915" on="1"/>
        <pt x="249" y="841" on="1"/>
        <pt x="369" y="927" on="1"/>
        <pt x="386" y="921" on="0"/>
        <pt x="426" y="885" on="0"/>
        <pt x="431" y="866" on="1"/>
        <pt x="312" y="745" on="1"/>
        <pt x="281" y="737" on="0"/>
        <pt x="218" y="737" on="0"/>
        <pt x="186" y="744" on="1"/>
        <pt x="73" y="854" on="1"/>
        <pt x="79" y="875" on="0"/>
        <pt x="115" y="909" on="0"/>
      </contour>
    </TTGlyph>
    <TTGlyph name="Thorn" xMin="78" yMin="-6" xMax="556" yMax="689">
      <contour>
        <pt x="78" y="0" on="1"/>
        <pt x="78" y="683" on="1"/>
        <pt x="107" y="689" on="0"/>
        <pt x="201" y="689" on="0"/>
        <pt x="231" y="683" on="1"/>
        <pt x="231" y="588" on="1"/>
        <pt x="258" y="589" on="0"/>
        <pt x="312" y="589" on="1"/>
        <pt x="424" y="589" on="0"/>
        <pt x="556" y="478" on="0"/>
        <pt x="556" y="251" on="0"/>
        <pt x="422" y="137" on="0"/>
        <pt x="312" y="137" on="1"/>
        <pt x="231" y="137" on="1"/>
        <pt x="231" y="0" on="1"/>
        <pt x="201" y="-6" on="0"/>
        <pt x="107" y="-6" on="0"/>
      </contour>
      <contour>
        <pt x="299" y="471" on="1"/>
        <pt x="231" y="472" on="1"/>
        <pt x="231" y="253" on="1"/>
        <pt x="289" y="255" on="0"/>
        <pt x="299" y="255" on="1"/>
        <pt x="400" y="255" on="0"/>
        <pt x="400" y="471" on="0"/>
      </contour>
    </TTGlyph>
    <TTGlyph name="U" xMin="68" yMin="-15" xMax="604" yMax="689">
      <contour>
        <pt x="604" y="683" on="1"/>
        <pt x="604" y="251" on="1"/>
        <pt x="604" y="124" on="0"/>
        <pt x="464" y="-15" on="0"/>
        <pt x="208" y="-15" on="0"/>
        <pt x="68" y="124" on="0"/>
        <pt x="68" y="251" on="1"/>
        <pt x="68" y="683" on="1"/>
        <pt x="75" y="689" on="1"/>
        <pt x="131" y="689" on="1"/>
        <pt x="221" y="689" on="0"/>
        <pt x="221" y="593" on="1"/>
        <pt x="221" y="249" on="1"/>
        <pt x="221" y="177" on="0"/>
        <pt x="276" y="107" on="0"/>
        <pt x="397" y="107" on="0"/>
        <pt x="451" y="177" on="0"/>
        <pt x="451" y="249" on="1"/>
        <pt x="451" y="683" on="1"/>
        <pt x="481" y="689" on="0"/>
        <pt x="575" y="689" on="0"/>
      </contour>
    </TTGlyph>
    <TTGlyph name="Uacute" xMin="68" yMin="-15" xMax="604" yMax="934">
      <contour>
        <pt x="604" y="683" on="1"/>
        <pt x="604" y="251" on="1"/>
        <pt x="604" y="124" on="0"/>
        <pt x="464" y="-15" on="0"/>
        <pt x="208" y="-15" on="0"/>
        <pt x="68" y="124" on="0"/>
        <pt x="68" y="251" on="1"/>
        <pt x="68" y="683" on="1"/>
        <pt x="75" y="689" on="1"/>
        <pt x="131" y="689" on="1"/>
        <pt x="221" y="689" on="0"/>
        <pt x="221" y="593" on="1"/>
        <pt x="221" y="249" on="1"/>
        <pt x="221" y="177" on="0"/>
        <pt x="276" y="107" on="0"/>
        <pt x="397" y="107" on="0"/>
        <pt x="451" y="177" on="0"/>
        <pt x="451" y="249" on="1"/>
        <pt x="451" y="683" on="1"/>
        <pt x="481" y="689" on="0"/>
        <pt x="575" y="689" on="0"/>
      </contour>
      <contour>
        <pt x="213" y="799" on="1"/>
        <pt x="434" y="934" on="1"/>
        <pt x="454" y="919" on="0"/>
        <pt x="490" y="852" on="0"/>
        <pt x="493" y="821" on="1"/>
        <pt x="255" y="727" on="1"/>
        <pt x="240" y="736" on="0"/>
        <pt x="215" y="779" on="0"/>
      </contour>
    </TTGlyph>
    <TTGlyph name="Ucircumflex" xMin="68" yMin="-15" xMax="604" yMax="914">
      <contour>
        <pt x="604" y="683" on="1"/>
        <pt x="604" y="251" on="1"/>
        <pt x="604" y="124" on="0"/>
        <pt x="464" y="-15" on="0"/>
        <pt x="208" y="-15" on="0"/>
        <pt x="68" y="124" on="0"/>
        <pt x="68" y="251" on="1"/>
        <pt x="68" y="683" on="1"/>
        <pt x="75" y="689" on="1"/>
        <pt x="131" y="689" on="1"/>
        <pt x="221" y="689" on="0"/>
        <pt x="221" y="593" on="1"/>
        <pt x="221" y="249" on="1"/>
        <pt x="221" y="177" on="0"/>
        <pt x="276" y="107" on="0"/>
        <pt x="397" y="107" on="0"/>
        <pt x="451" y="177" on="0"/>
        <pt x="451" y="249" on="1"/>
        <pt x="451" y="683" on="1"/>
        <pt x="481" y="689" on="0"/>
        <pt x="575" y="689" on="0"/>
      </contour>
      <contour>
        <pt x="449" y="735" on="1"/>
        <pt x="332" y="810" on="1"/>
        <pt x="213" y="724" on="1"/>
        <pt x="196" y="730" on="0"/>
        <pt x="157" y="767" on="0"/>
        <pt x="152" y="786" on="1"/>
        <pt x="270" y="906" on="1"/>
        <pt x="301" y="913" on="0"/>
        <pt x="363" y="913" on="0"/>
        <pt x="395" y="907" on="1"/>
        <pt x="508" y="797" on="1"/>
        <pt x="502" y="776" on="0"/>
        <pt x="466" y="742" on="0"/>
      </contour>
    </TTGlyph>
    <TTGlyph name="Udieresis" xMin="68" yMin="-15" xMax="604" yMax="866">
      <contour>
        <pt x="604" y="683" on="1"/>
        <pt x="604" y="251" on="1"/>
        <pt x="604" y="124" on="0"/>
        <pt x="464" y="-15" on="0"/>
        <pt x="208" y="-15" on="0"/>
        <pt x="68" y="124" on="0"/>
        <pt x="68" y="251" on="1"/>
        <pt x="68" y="683" on="1"/>
        <pt x="75" y="689" on="1"/>
        <pt x="131" y="689" on="1"/>
        <pt x="221" y="689" on="0"/>
        <pt x="221" y="593" on="1"/>
        <pt x="221" y="249" on="1"/>
        <pt x="221" y="177" on="0"/>
        <pt x="276" y="107" on="0"/>
        <pt x="397" y="107" on="0"/>
        <pt x="451" y="177" on="0"/>
        <pt x="451" y="249" on="1"/>
        <pt x="451" y="683" on="1"/>
        <pt x="481" y="689" on="0"/>
        <pt x="575" y="689" on="0"/>
      </contour>
      <contour>
        <pt x="389" y="850" on="1"/>
        <pt x="417" y="866" on="0"/>
        <pt x="483" y="866" on="0"/>
        <pt x="508" y="850" on="1"/>
        <pt x="520" y="834" on="0"/>
        <pt x="520" y="767" on="0"/>
        <pt x="508" y="752" on="1"/>
        <pt x="484" y="735" on="0"/>
        <pt x="416" y="735" on="0"/>
        <pt x="389" y="752" on="1"/>
        <pt x="375" y="767" on="0"/>
        <pt x="375" y="833" on="0"/>
      </contour>
      <contour>
        <pt x="183" y="866" on="0"/>
        <pt x="251" y="866" on="0"/>
        <pt x="279" y="850" on="1"/>
        <pt x="291" y="836" on="0"/>
        <pt x="291" y="765" on="0"/>
        <pt x="279" y="752" on="1"/>
        <pt x="252" y="735" on="0"/>
        <pt x="182" y="735" on="0"/>
        <pt x="160" y="752" on="1"/>
        <pt x="148" y="767" on="0"/>
        <pt x="148" y="834" on="0"/>
        <pt x="160" y="850" on="1"/>
      </contour>
    </TTGlyph>
    <TTGlyph name="Ugrave" xMin="68" yMin="-15" xMax="604" yMax="934">
      <contour>
        <pt x="604" y="683" on="1"/>
        <pt x="604" y="251" on="1"/>
        <pt x="604" y="124" on="0"/>
        <pt x="464" y="-15" on="0"/>
        <pt x="208" y="-15" on="0"/>
        <pt x="68" y="124" on="0"/>
        <pt x="68" y="251" on="1"/>
        <pt x="68" y="683" on="1"/>
        <pt x="75" y="689" on="1"/>
        <pt x="131" y="689" on="1"/>
        <pt x="221" y="689" on="0"/>
        <pt x="221" y="593" on="1"/>
        <pt x="221" y="249" on="1"/>
        <pt x="221" y="177" on="0"/>
        <pt x="276" y="107" on="0"/>
        <pt x="397" y="107" on="0"/>
        <pt x="451" y="177" on="0"/>
        <pt x="451" y="249" on="1"/>
        <pt x="451" y="683" on="1"/>
        <pt x="481" y="689" on="0"/>
        <pt x="575" y="689" on="0"/>
      </contour>
      <contour>
        <pt x="244" y="934" on="1"/>
        <pt x="465" y="799" on="1"/>
        <pt x="457" y="747" on="0"/>
        <pt x="423" y="727" on="1"/>
        <pt x="185" y="821" on="1"/>
        <pt x="188" y="852" on="0"/>
        <pt x="224" y="919" on="0"/>
      </contour>
    </TTGlyph>
    <TTGlyph name="Uring" xMin="68" yMin="-15" xMax="604" yMax="913">
      <contour>
        <pt x="604" y="683" on="1"/>
        <pt x="604" y="251" on="1"/>
        <pt x="604" y="124" on="0"/>
        <pt x="464" y="-15" on="0"/>
        <pt x="208" y="-15" on="0"/>
        <pt x="68" y="124" on="0"/>
        <pt x="68" y="251" on="1"/>
        <pt x="68" y="683" on="1"/>
        <pt x="75" y="689" on="1"/>
        <pt x="131" y="689" on="1"/>
        <pt x="221" y="689" on="0"/>
        <pt x="221" y="593" on="1"/>
        <pt x="221" y="249" on="1"/>
        <pt x="221" y="177" on="0"/>
        <pt x="276" y="107" on="0"/>
        <pt x="397" y="107" on="0"/>
        <pt x="451" y="177" on="0"/>
        <pt x="451" y="249" on="1"/>
        <pt x="451" y="683" on="1"/>
        <pt x="481" y="689" on="0"/>
        <pt x="575" y="689" on="0"/>
      </contour>
      <contour>
        <pt x="196" y="733" on="0"/>
        <pt x="196" y="841" on="0"/>
        <pt x="272" y="913" on="0"/>
        <pt x="396" y="913" on="0"/>
        <pt x="472" y="841" on="0"/>
        <pt x="472" y="733" on="0"/>
        <pt x="396" y="661" on="0"/>
        <pt x="272" y="661" on="0"/>
      </contour>
      <contour>
        <pt x="285" y="809" on="0"/>
        <pt x="285" y="765" on="0"/>
        <pt x="312" y="736" on="0"/>
        <pt x="356" y="736" on="0"/>
        <pt x="383" y="765" on="0"/>
        <pt x="383" y="809" on="0"/>
        <pt x="356" y="838" on="0"/>
        <pt x="312" y="838" on="0"/>
      </contour>
    </TTGlyph>
    <TTGlyph name="V" xMin="10" yMin="-6" xMax="593" yMax="692">
      <contour>
        <pt x="314" y="128" on="1"/>
        <pt x="450" y="683" on="1"/>
        <pt x="476" y="689" on="0"/>
        <pt x="557" y="689" on="0"/>
        <pt x="586" y="679" on="1"/>
        <pt x="593" y="670" on="1"/>
        <pt x="404" y="0" on="1"/>
        <pt x="350" y="-6" on="0"/>
        <pt x="240" y="-6" on="0"/>
        <pt x="191" y="22" on="0"/>
        <pt x="179" y="64" on="1"/>
        <pt x="10" y="669" on="1"/>
        <pt x="64" y="692" on="0"/>
        <pt x="136" y="692" on="0"/>
        <pt x="174" y="656" on="0"/>
        <pt x="185" y="616" on="1"/>
        <pt x="265" y="321" on="1"/>
        <pt x="285" y="251" on="0"/>
        <pt x="304" y="141" on="1"/>
        <pt x="306" y="128" on="0"/>
      </contour>
    </TTGlyph>
    <TTGlyph name="W" xMin="17" yMin="-6" xMax="875" yMax="692">
      <contour>
        <pt x="136" y="64" on="1"/>
        <pt x="17" y="674" on="1"/>
        <pt x="58" y="692" on="0"/>
        <pt x="138" y="692" on="0"/>
        <pt x="175" y="656" on="0"/>
        <pt x="182" y="608" on="1"/>
        <pt x="227" y="338" on="1"/>
        <pt x="249" y="211" on="0"/>
        <pt x="256" y="132" on="0"/>
        <pt x="259" y="127" on="0"/>
        <pt x="265" y="127" on="1"/>
        <pt x="351" y="670" on="1"/>
        <pt x="393" y="677" on="0"/>
        <pt x="506" y="677" on="0"/>
        <pt x="547" y="670" on="1"/>
        <pt x="626" y="141" on="1"/>
        <pt x="627" y="131" on="0"/>
        <pt x="632" y="127" on="0"/>
        <pt x="637" y="127" on="1"/>
        <pt x="647" y="219" on="0"/>
        <pt x="667" y="340" on="1"/>
        <pt x="727" y="683" on="1"/>
        <pt x="755" y="689" on="0"/>
        <pt x="833" y="689" on="0"/>
        <pt x="868" y="679" on="1"/>
        <pt x="875" y="669" on="1"/>
        <pt x="741" y="1" on="1"/>
        <pt x="680" y="-6" on="0"/>
        <pt x="570" y="-6" on="0"/>
        <pt x="524" y="22" on="0"/>
        <pt x="517" y="64" on="1"/>
        <pt x="481" y="287" on="1"/>
        <pt x="458" y="449" on="0"/>
        <pt x="451" y="521" on="1"/>
        <pt x="443" y="521" on="1"/>
        <pt x="430" y="411" on="0"/>
        <pt x="409" y="287" on="1"/>
        <pt x="362" y="1" on="1"/>
        <pt x="297" y="-6" on="0"/>
        <pt x="191" y="-6" on="0"/>
        <pt x="144" y="21" on="0"/>
      </contour>
    </TTGlyph>
    <TTGlyph name="X" xMin="10" yMin="-9" xMax="602" yMax="692">
      <contour>
        <pt x="434" y="683" on="1"/>
        <pt x="458" y="689" on="0"/>
        <pt x="543" y="689" on="0"/>
        <pt x="578" y="676" on="1"/>
        <pt x="582" y="668" on="1"/>
        <pt x="394" y="358" on="1"/>
        <pt x="602" y="24" on="1"/>
        <pt x="555" y="-9" on="0"/>
        <pt x="470" y="-9" on="0"/>
        <pt x="426" y="17" on="0"/>
        <pt x="405" y="51" on="1"/>
        <pt x="295" y="228" on="1"/>
        <pt x="159" y="0" on="1"/>
        <pt x="135" y="-6" on="0"/>
        <pt x="53" y="-6" on="0"/>
        <pt x="14" y="7" on="1"/>
        <pt x="10" y="16" on="1"/>
        <pt x="217" y="353" on="1"/>
        <pt x="27" y="659" on="1"/>
        <pt x="74" y="692" on="0"/>
        <pt x="159" y="692" on="0"/>
        <pt x="202" y="666" on="0"/>
        <pt x="223" y="633" on="1"/>
        <pt x="316" y="483" on="1"/>
      </contour>
    </TTGlyph>
    <TTGlyph name="Y" xMin="-1" yMin="-6" xMax="538" yMax="691">
      <contour>
        <pt x="324" y="505" on="1"/>
        <pt x="395" y="683" on="1"/>
        <pt x="420" y="689" on="0"/>
        <pt x="501" y="689" on="0"/>
        <pt x="532" y="678" on="1"/>
        <pt x="538" y="669" on="1"/>
        <pt x="345" y="211" on="1"/>
        <pt x="345" y="0" on="1"/>
        <pt x="315" y="-6" on="0"/>
        <pt x="221" y="-6" on="0"/>
        <pt x="192" y="0" on="1"/>
        <pt x="192" y="215" on="1"/>
        <pt x="-1" y="665" on="1"/>
        <pt x="46" y="691" on="0"/>
        <pt x="124" y="691" on="0"/>
        <pt x="160" y="663" on="0"/>
        <pt x="173" y="630" on="1"/>
        <pt x="225" y="500" on="1"/>
        <pt x="249" y="438" on="0"/>
        <pt x="270" y="359" on="1"/>
        <pt x="276" y="359" on="1"/>
        <pt x="292" y="424" on="0"/>
      </contour>
    </TTGlyph>
    <TTGlyph name="Yacute" xMin="-7" yMin="-6" xMax="532" yMax="934">
      <contour>
        <pt x="318" y="505" on="1"/>
        <pt x="389" y="683" on="1"/>
        <pt x="414" y="689" on="0"/>
        <pt x="495" y="689" on="0"/>
        <pt x="526" y="678" on="1"/>
        <pt x="532" y="669" on="1"/>
        <pt x="339" y="211" on="1"/>
        <pt x="339" y="0" on="1"/>
        <pt x="309" y="-6" on="0"/>
        <pt x="215" y="-6" on="0"/>
        <pt x="186" y="0" on="1"/>
        <pt x="186" y="215" on="1"/>
        <pt x="-7" y="665" on="1"/>
        <pt x="40" y="691" on="0"/>
        <pt x="118" y="691" on="0"/>
        <pt x="154" y="663" on="0"/>
        <pt x="167" y="630" on="1"/>
        <pt x="219" y="500" on="1"/>
        <pt x="243" y="438" on="0"/>
        <pt x="264" y="359" on="1"/>
        <pt x="270" y="359" on="1"/>
        <pt x="286" y="424" on="0"/>
      </contour>
      <contour>
        <pt x="145" y="799" on="1"/>
        <pt x="366" y="934" on="1"/>
        <pt x="386" y="919" on="0"/>
        <pt x="422" y="852" on="0"/>
        <pt x="425" y="821" on="1"/>
        <pt x="187" y="727" on="1"/>
        <pt x="172" y="736" on="0"/>
        <pt x="147" y="779" on="0"/>
      </contour>
    </TTGlyph>
    <TTGlyph name="Ydieresis" xMin="-7" yMin="-6" xMax="532" yMax="866">
      <contour>
        <pt x="318" y="505" on="1"/>
        <pt x="389" y="683" on="1"/>
        <pt x="414" y="689" on="0"/>
        <pt x="495" y="689" on="0"/>
        <pt x="526" y="678" on="1"/>
        <pt x="532" y="669" on="1"/>
        <pt x="339" y="211" on="1"/>
        <pt x="339" y="0" on="1"/>
        <pt x="309" y="-6" on="0"/>
        <pt x="215" y="-6" on="0"/>
        <pt x="186" y="0" on="1"/>
        <pt x="186" y="215" on="1"/>
        <pt x="-7" y="665" on="1"/>
        <pt x="40" y="691" on="0"/>
        <pt x="118" y="691" on="0"/>
        <pt x="154" y="663" on="0"/>
        <pt x="167" y="630" on="1"/>
        <pt x="219" y="500" on="1"/>
        <pt x="243" y="438" on="0"/>
        <pt x="264" y="359" on="1"/>
        <pt x="270" y="359" on="1"/>
        <pt x="286" y="424" on="0"/>
      </contour>
      <contour>
        <pt x="321" y="850" on="1"/>
        <pt x="349" y="866" on="0"/>
        <pt x="415" y="866" on="0"/>
        <pt x="440" y="850" on="1"/>
        <pt x="452" y="834" on="0"/>
        <pt x="452" y="767" on="0"/>
        <pt x="440" y="752" on="1"/>
        <pt x="416" y="735" on="0"/>
        <pt x="348" y="735" on="0"/>
        <pt x="321" y="752" on="1"/>
        <pt x="307" y="767" on="0"/>
        <pt x="307" y="833" on="0"/>
      </contour>
      <contour>
        <pt x="115" y="866" on="0"/>
        <pt x="183" y="866" on="0"/>
        <pt x="211" y="850" on="1"/>
        <pt x="223" y="836" on="0"/>
        <pt x="223" y="765" on="0"/>
        <pt x="211" y="752" on="1"/>
        <pt x="184" y="735" on="0"/>
        <pt x="114" y="735" on="0"/>
        <pt x="92" y="752" on="1"/>
        <pt x="80" y="767" on="0"/>
        <pt x="80" y="834" on="0"/>
        <pt x="92" y="850" on="1"/>
      </contour>
    </TTGlyph>
    <TTGlyph name="Z" xMin="39" yMin="0" xMax="538" yMax="683">
      <contour>
        <pt x="57" y="149" on="1"/>
        <pt x="284" y="465" on="1"/>
        <pt x="316" y="510" on="0"/>
        <pt x="364" y="564" on="1"/>
        <pt x="361" y="567" on="1"/>
        <pt x="293" y="558" on="0"/>
        <pt x="207" y="558" on="1"/>
        <pt x="61" y="558" on="1"/>
        <pt x="55" y="580" on="0"/>
        <pt x="55" y="642" on="0"/>
        <pt x="66" y="683" on="1"/>
        <pt x="504" y="683" on="1"/>
        <pt x="525" y="608" on="0"/>
        <pt x="525" y="560" on="0"/>
        <pt x="508" y="535" on="1"/>
        <pt x="281" y="219" on="1"/>
        <pt x="249" y="174" on="0"/>
        <pt x="203" y="124" on="1"/>
        <pt x="206" y="121" on="1"/>
        <pt x="292" y="127" on="0"/>
        <pt x="352" y="127" on="1"/>
        <pt x="415" y="127" on="1"/>
        <pt x="480" y="127" on="0"/>
        <pt x="528" y="150" on="1"/>
        <pt x="538" y="118" on="0"/>
        <pt x="538" y="41" on="0"/>
        <pt x="484" y="0" on="0"/>
        <pt x="438" y="0" on="1"/>
        <pt x="56" y="0" on="1"/>
        <pt x="39" y="76" on="0"/>
        <pt x="39" y="124" on="0"/>
      </contour>
    </TTGlyph>
    <TTGlyph name="Zacute" xMin="39" yMin="0" xMax="538" yMax="934">
      <contour>
        <pt x="57" y="149" on="1"/>
        <pt x="284" y="465" on="1"/>
        <pt x="316" y="510" on="0"/>
        <pt x="364" y="564" on="1"/>
        <pt x="361" y="567" on="1"/>
        <pt x="293" y="558" on="0"/>
        <pt x="207" y="558" on="1"/>
        <pt x="61" y="558" on="1"/>
        <pt x="55" y="580" on="0"/>
        <pt x="55" y="642" on="0"/>
        <pt x="66" y="683" on="1"/>
        <pt x="504" y="683" on="1"/>
        <pt x="525" y="608" on="0"/>
        <pt x="525" y="560" on="0"/>
        <pt x="508" y="535" on="1"/>
        <pt x="281" y="219" on="1"/>
        <pt x="249" y="174" on="0"/>
        <pt x="203" y="124" on="1"/>
        <pt x="206" y="121" on="1"/>
        <pt x="292" y="127" on="0"/>
        <pt x="352" y="127" on="1"/>
        <pt x="415" y="127" on="1"/>
        <pt x="480" y="127" on="0"/>
        <pt x="528" y="150" on="1"/>
        <pt x="538" y="118" on="0"/>
        <pt x="538" y="41" on="0"/>
        <pt x="484" y="0" on="0"/>
        <pt x="438" y="0" on="1"/>
        <pt x="56" y="0" on="1"/>
        <pt x="39" y="76" on="0"/>
        <pt x="39" y="124" on="0"/>
      </contour>
      <contour>
        <pt x="167" y="799" on="1"/>
        <pt x="388" y="934" on="1"/>
        <pt x="408" y="919" on="0"/>
        <pt x="444" y="852" on="0"/>
        <pt x="447" y="821" on="1"/>
        <pt x="209" y="727" on="1"/>
        <pt x="194" y="736" on="0"/>
        <pt x="169" y="779" on="0"/>
      </contour>
    </TTGlyph>
    <TTGlyph name="Zcaron" xMin="39" yMin="0" xMax="538" yMax="927">
      <contour>
        <pt x="57" y="149" on="1"/>
        <pt x="284" y="465" on="1"/>
        <pt x="316" y="510" on="0"/>
        <pt x="364" y="564" on="1"/>
        <pt x="361" y="567" on="1"/>
        <pt x="293" y="558" on="0"/>
        <pt x="207" y="558" on="1"/>
        <pt x="61" y="558" on="1"/>
        <pt x="55" y="580" on="0"/>
        <pt x="55" y="642" on="0"/>
        <pt x="66" y="683" on="1"/>
        <pt x="504" y="683" on="1"/>
        <pt x="525" y="608" on="0"/>
        <pt x="525" y="560" on="0"/>
        <pt x="508" y="535" on="1"/>
        <pt x="281" y="219" on="1"/>
        <pt x="249" y="174" on="0"/>
        <pt x="203" y="124" on="1"/>
        <pt x="206" y="121" on="1"/>
        <pt x="292" y="127" on="0"/>
        <pt x="352" y="127" on="1"/>
        <pt x="415" y="127" on="1"/>
        <pt x="480" y="127" on="0"/>
        <pt x="528" y="150" on="1"/>
        <pt x="538" y="118" on="0"/>
        <pt x="538" y="41" on="0"/>
        <pt x="484" y="0" on="0"/>
        <pt x="438" y="0" on="1"/>
        <pt x="56" y="0" on="1"/>
        <pt x="39" y="76" on="0"/>
        <pt x="39" y="124" on="0"/>
      </contour>
      <contour>
        <pt x="166" y="915" on="1"/>
        <pt x="283" y="841" on="1"/>
        <pt x="403" y="927" on="1"/>
        <pt x="420" y="921" on="0"/>
        <pt x="460" y="885" on="0"/>
        <pt x="465" y="866" on="1"/>
        <pt x="346" y="745" on="1"/>
        <pt x="315" y="737" on="0"/>
        <pt x="252" y="737" on="0"/>
        <pt x="220" y="744" on="1"/>
        <pt x="107" y="854" on="1"/>
        <pt x="113" y="875" on="0"/>
        <pt x="149" y="909" on="0"/>
      </contour>
    </TTGlyph>
    <TTGlyph name="Zdotaccent" xMin="39" yMin="0" xMax="538" yMax="885">
      <contour>
        <pt x="57" y="149" on="1"/>
        <pt x="284" y="465" on="1"/>
        <pt x="316" y="510" on="0"/>
        <pt x="364" y="564" on="1"/>
        <pt x="361" y="567" on="1"/>
        <pt x="293" y="558" on="0"/>
        <pt x="207" y="558" on="1"/>
        <pt x="61" y="558" on="1"/>
        <pt x="55" y="580" on="0"/>
        <pt x="55" y="642" on="0"/>
        <pt x="66" y="683" on="1"/>
        <pt x="504" y="683" on="1"/>
        <pt x="525" y="608" on="0"/>
        <pt x="525" y="560" on="0"/>
        <pt x="508" y="535" on="1"/>
        <pt x="281" y="219" on="1"/>
        <pt x="249" y="174" on="0"/>
        <pt x="203" y="124" on="1"/>
        <pt x="206" y="121" on="1"/>
        <pt x="292" y="127" on="0"/>
        <pt x="352" y="127" on="1"/>
        <pt x="415" y="127" on="1"/>
        <pt x="480" y="127" on="0"/>
        <pt x="528" y="150" on="1"/>
        <pt x="538" y="118" on="0"/>
        <pt x="538" y="41" on="0"/>
        <pt x="484" y="0" on="0"/>
        <pt x="438" y="0" on="1"/>
        <pt x="56" y="0" on="1"/>
        <pt x="39" y="76" on="0"/>
        <pt x="39" y="124" on="0"/>
      </contour>
      <contour>
        <pt x="205" y="785" on="0"/>
        <pt x="205" y="843" on="0"/>
        <pt x="216" y="870" on="1"/>
        <pt x="248" y="885" on="0"/>
        <pt x="332" y="885" on="0"/>
        <pt x="360" y="870" on="1"/>
        <pt x="371" y="843" on="0"/>
        <pt x="371" y="785" on="0"/>
        <pt x="360" y="757" on="1"/>
        <pt x="332" y="742" on="0"/>
        <pt x="241" y="742" on="0"/>
        <pt x="216" y="757" on="1"/>
      </contour>
    </TTGlyph>
    <TTGlyph name="a" xMin="32" yMin="-15" xMax="481" yMax="510">
      <contour>
        <pt x="481" y="69" on="1"/>
        <pt x="477" y="49" on="0"/>
        <pt x="448" y="3" on="0"/>
        <pt x="434" y="-8" on="1"/>
        <pt x="365" y="-5" on="0"/>
        <pt x="330" y="45" on="1"/>
        <pt x="266" y="-15" on="0"/>
        <pt x="111" y="-15" on="0"/>
        <pt x="32" y="77" on="0"/>
        <pt x="32" y="136" on="1"/>
        <pt x="32" y="221" on="0"/>
        <pt x="145" y="309" on="0"/>
        <pt x="229" y="309" on="1"/>
        <pt x="262" y="309" on="0"/>
        <pt x="304" y="306" on="1"/>
        <pt x="304" y="328" on="1"/>
        <pt x="304" y="394" on="0"/>
        <pt x="236" y="394" on="1"/>
        <pt x="193" y="394" on="0"/>
        <pt x="87" y="362" on="1"/>
        <pt x="57" y="397" on="0"/>
        <pt x="51" y="466" on="1"/>
        <pt x="98" y="486" on="0"/>
        <pt x="227" y="510" on="0"/>
        <pt x="277" y="510" on="1"/>
        <pt x="352" y="510" on="0"/>
        <pt x="453" y="427" on="0"/>
        <pt x="453" y="340" on="1"/>
        <pt x="453" y="136" on="1"/>
        <pt x="453" y="89" on="0"/>
      </contour>
      <contour>
        <pt x="226" y="96" on="1"/>
        <pt x="265" y="96" on="0"/>
        <pt x="304" y="129" on="1"/>
        <pt x="304" y="212" on="1"/>
        <pt x="282" y="213" on="0"/>
        <pt x="244" y="213" on="1"/>
        <pt x="177" y="213" on="0"/>
        <pt x="177" y="146" on="1"/>
        <pt x="177" y="125" on="0"/>
        <pt x="204" y="96" on="0"/>
      </contour>
    </TTGlyph>
    <TTGlyph name="a.smcp" xMin="6" yMin="-9" xMax="566" yMax="556">
      <contour>
        <pt x="211" y="100" on="1"/>
        <pt x="189" y="100" on="0"/>
        <pt x="178" y="101" on="1"/>
        <pt x="145" y="0" on="1"/>
        <pt x="120" y="-7" on="0"/>
        <pt x="36" y="-7" on="0"/>
        <pt x="11" y="4" on="1"/>
        <pt x="6" y="12" on="1"/>
        <pt x="201" y="550" on="1"/>
        <pt x="239" y="556" on="0"/>
        <pt x="335" y="556" on="0"/>
        <pt x="375" y="550" on="1"/>
        <pt x="566" y="7" on="1"/>
        <pt x="529" y="-9" on="0"/>
        <pt x="449" y="-9" on="0"/>
        <pt x="406" y="16" on="0"/>
        <pt x="394" y="55" on="1"/>
        <pt x="379" y="101" on="1"/>
        <pt x="368" y="100" on="0"/>
        <pt x="345" y="100" on="1"/>
      </contour>
      <contour>
        <pt x="216" y="218" on="1"/>
        <pt x="248" y="219" on="1"/>
        <pt x="314" y="219" on="1"/>
        <pt x="318" y="219" on="0"/>
        <pt x="338" y="218" on="0"/>
        <pt x="342" y="218" on="1"/>
        <pt x="329" y="260" on="1"/>
        <pt x="321" y="286" on="0"/>
        <pt x="284" y="434" on="1"/>
        <pt x="278" y="434" on="1"/>
        <pt x="276" y="428" on="0"/>
        <pt x="240" y="294" on="0"/>
        <pt x="231" y="264" on="1"/>
      </contour>
    </TTGlyph>
    <TTGlyph name="aacute" xMin="32" yMin="-15" xMax="481" yMax="765">
      <contour>
        <pt x="481" y="69" on="1"/>
        <pt x="477" y="49" on="0"/>
        <pt x="448" y="3" on="0"/>
        <pt x="434" y="-8" on="1"/>
        <pt x="365" y="-5" on="0"/>
        <pt x="330" y="45" on="1"/>
        <pt x="266" y="-15" on="0"/>
        <pt x="111" y="-15" on="0"/>
        <pt x="32" y="77" on="0"/>
        <pt x="32" y="136" on="1"/>
        <pt x="32" y="221" on="0"/>
        <pt x="145" y="309" on="0"/>
        <pt x="229" y="309" on="1"/>
        <pt x="262" y="309" on="0"/>
        <pt x="304" y="306" on="1"/>
        <pt x="304" y="328" on="1"/>
        <pt x="304" y="394" on="0"/>
        <pt x="236" y="394" on="1"/>
        <pt x="193" y="394" on="0"/>
        <pt x="87" y="362" on="1"/>
        <pt x="57" y="397" on="0"/>
        <pt x="51" y="466" on="1"/>
        <pt x="98" y="486" on="0"/>
        <pt x="227" y="510" on="0"/>
        <pt x="277" y="510" on="1"/>
        <pt x="352" y="510" on="0"/>
        <pt x="453" y="427" on="0"/>
        <pt x="453" y="340" on="1"/>
        <pt x="453" y="136" on="1"/>
        <pt x="453" y="89" on="0"/>
      </contour>
      <contour>
        <pt x="226" y="96" on="1"/>
        <pt x="265" y="96" on="0"/>
        <pt x="304" y="129" on="1"/>
        <pt x="304" y="212" on="1"/>
        <pt x="282" y="213" on="0"/>
        <pt x="244" y="213" on="1"/>
        <pt x="177" y="213" on="0"/>
        <pt x="177" y="146" on="1"/>
        <pt x="177" y="125" on="0"/>
        <pt x="204" y="96" on="0"/>
      </contour>
      <contour>
        <pt x="158" y="598" on="1"/>
        <pt x="312" y="765" on="1"/>
        <pt x="340" y="756" on="0"/>
        <pt x="395" y="706" on="0"/>
        <pt x="403" y="678" on="1"/>
        <pt x="220" y="540" on="1"/>
        <pt x="201" y="546" on="0"/>
        <pt x="166" y="578" on="0"/>
      </contour>
    </TTGlyph>
    <TTGlyph name="aacute.smcp" xMin="6" yMin="-9" xMax="566" yMax="817">
      <contour>
        <pt x="211" y="100" on="1"/>
        <pt x="189" y="100" on="0"/>
        <pt x="178" y="101" on="1"/>
        <pt x="145" y="0" on="1"/>
        <pt x="120" y="-7" on="0"/>
        <pt x="36" y="-7" on="0"/>
        <pt x="11" y="4" on="1"/>
        <pt x="6" y="12" on="1"/>
        <pt x="201" y="550" on="1"/>
        <pt x="239" y="556" on="0"/>
        <pt x="335" y="556" on="0"/>
        <pt x="375" y="550" on="1"/>
        <pt x="566" y="7" on="1"/>
        <pt x="529" y="-9" on="0"/>
        <pt x="449" y="-9" on="0"/>
        <pt x="406" y="16" on="0"/>
        <pt x="394" y="55" on="1"/>
        <pt x="379" y="101" on="1"/>
        <pt x="368" y="100" on="0"/>
        <pt x="345" y="100" on="1"/>
      </contour>
      <contour>
        <pt x="216" y="218" on="1"/>
        <pt x="248" y="219" on="1"/>
        <pt x="314" y="219" on="1"/>
        <pt x="318" y="219" on="0"/>
        <pt x="338" y="218" on="0"/>
        <pt x="342" y="218" on="1"/>
        <pt x="329" y="260" on="1"/>
        <pt x="321" y="286" on="0"/>
        <pt x="284" y="434" on="1"/>
        <pt x="278" y="434" on="1"/>
        <pt x="276" y="428" on="0"/>
        <pt x="240" y="294" on="0"/>
        <pt x="231" y="264" on="1"/>
      </contour>
      <contour>
        <pt x="199" y="650" on="1"/>
        <pt x="353" y="817" on="1"/>
        <pt x="381" y="808" on="0"/>
        <pt x="436" y="758" on="0"/>
        <pt x="444" y="730" on="1"/>
        <pt x="261" y="592" on="1"/>
        <pt x="242" y="598" on="0"/>
        <pt x="207" y="630" on="0"/>
      </contour>
    </TTGlyph>
    <TTGlyph name="acircumflex" xMin="32" yMin="-15" xMax="481" yMax="745">
      <component glyphName="a" x="0" y="0" flags="0x1004"/>
      <component glyphName="circumflex" x="50" y="0" flags="0x1004"/>
    </TTGlyph>
    <TTGlyph name="acircumflex.smcp" xMin="6" yMin="-9" xMax="566" yMax="797">
      <contour>
        <pt x="211" y="100" on="1"/>
        <pt x="189" y="100" on="0"/>
        <pt x="178" y="101" on="1"/>
        <pt x="145" y="0" on="1"/>
        <pt x="120" y="-7" on="0"/>
        <pt x="36" y="-7" on="0"/>
        <pt x="11" y="4" on="1"/>
        <pt x="6" y="12" on="1"/>
        <pt x="201" y="550" on="1"/>
        <pt x="239" y="556" on="0"/>
        <pt x="335" y="556" on="0"/>
        <pt x="375" y="550" on="1"/>
        <pt x="566" y="7" on="1"/>
        <pt x="529" y="-9" on="0"/>
        <pt x="449" y="-9" on="0"/>
        <pt x="406" y="16" on="0"/>
        <pt x="394" y="55" on="1"/>
        <pt x="379" y="101" on="1"/>
        <pt x="368" y="100" on="0"/>
        <pt x="345" y="100" on="1"/>
      </contour>
      <contour>
        <pt x="216" y="218" on="1"/>
        <pt x="248" y="219" on="1"/>
        <pt x="314" y="219" on="1"/>
        <pt x="318" y="219" on="0"/>
        <pt x="338" y="218" on="0"/>
        <pt x="342" y="218" on="1"/>
        <pt x="329" y="260" on="1"/>
        <pt x="321" y="286" on="0"/>
        <pt x="284" y="434" on="1"/>
        <pt x="278" y="434" on="1"/>
        <pt x="276" y="428" on="0"/>
        <pt x="240" y="294" on="0"/>
        <pt x="231" y="264" on="1"/>
      </contour>
      <contour>
        <pt x="387" y="603" on="1"/>
        <pt x="295" y="690" on="1"/>
        <pt x="198" y="596" on="1"/>
        <pt x="155" y="613" on="0"/>
        <pt x="132" y="653" on="1"/>
        <pt x="237" y="789" on="1"/>
        <pt x="261" y="797" on="0"/>
        <pt x="278" y="797" on="1"/>
        <pt x="331" y="797" on="0"/>
        <pt x="359" y="789" on="1"/>
        <pt x="452" y="664" on="1"/>
        <pt x="444" y="643" on="0"/>
        <pt x="405" y="609" on="0"/>
      </contour>
    </TTGlyph>
    <TTGlyph name="acute" xMin="106" yMin="540" xMax="351" yMax="765">
      <contour>
        <pt x="106" y="598" on="1"/>
        <pt x="260" y="765" on="1"/>
        <pt x="288" y="756" on="0"/>
        <pt x="343" y="706" on="0"/>
        <pt x="351" y="678" on="1"/>
        <pt x="168" y="540" on="1"/>
        <pt x="149" y="546" on="0"/>
        <pt x="114" y="578" on="0"/>
      </contour>
    </TTGlyph>
    <TTGlyph name="acute.cap" xMin="78" yMin="727" xMax="358" yMax="934">
      <contour>
        <pt x="78" y="799" on="1"/>
        <pt x="299" y="934" on="1"/>
        <pt x="319" y="919" on="0"/>
        <pt x="355" y="852" on="0"/>
        <pt x="358" y="821" on="1"/>
        <pt x="120" y="727" on="1"/>
        <pt x="105" y="736" on="0"/>
        <pt x="80" y="779" on="0"/>
      </contour>
    </TTGlyph>
    <TTGlyph name="adieresis" xMin="32" yMin="-15" xMax="481" yMax="686">
      <contour>
        <pt x="481" y="69" on="1"/>
        <pt x="477" y="49" on="0"/>
        <pt x="448" y="3" on="0"/>
        <pt x="434" y="-8" on="1"/>
        <pt x="365" y="-5" on="0"/>
        <pt x="330" y="45" on="1"/>
        <pt x="266" y="-15" on="0"/>
        <pt x="111" y="-15" on="0"/>
        <pt x="32" y="77" on="0"/>
        <pt x="32" y="136" on="1"/>
        <pt x="32" y="221" on="0"/>
        <pt x="145" y="309" on="0"/>
        <pt x="229" y="309" on="1"/>
        <pt x="262" y="309" on="0"/>
        <pt x="304" y="306" on="1"/>
        <pt x="304" y="328" on="1"/>
        <pt x="304" y="394" on="0"/>
        <pt x="236" y="394" on="1"/>
        <pt x="193" y="394" on="0"/>
        <pt x="87" y="362" on="1"/>
        <pt x="57" y="397" on="0"/>
        <pt x="51" y="466" on="1"/>
        <pt x="98" y="486" on="0"/>
        <pt x="227" y="510" on="0"/>
        <pt x="277" y="510" on="1"/>
        <pt x="352" y="510" on="0"/>
        <pt x="453" y="427" on="0"/>
        <pt x="453" y="340" on="1"/>
        <pt x="453" y="136" on="1"/>
        <pt x="453" y="89" on="0"/>
      </contour>
      <contour>
        <pt x="226" y="96" on="1"/>
        <pt x="265" y="96" on="0"/>
        <pt x="304" y="129" on="1"/>
        <pt x="304" y="212" on="1"/>
        <pt x="282" y="213" on="0"/>
        <pt x="244" y="213" on="1"/>
        <pt x="177" y="213" on="0"/>
        <pt x="177" y="146" on="1"/>
        <pt x="177" y="125" on="0"/>
        <pt x="204" y="96" on="0"/>
      </contour>
      <contour>
        <pt x="278" y="595" on="0"/>
        <pt x="278" y="649" on="0"/>
        <pt x="286" y="670" on="1"/>
        <pt x="313" y="686" on="0"/>
        <pt x="385" y="686" on="0"/>
        <pt x="411" y="670" on="1"/>
        <pt x="420" y="649" on="0"/>
        <pt x="420" y="593" on="0"/>
        <pt x="411" y="574" on="1"/>
        <pt x="385" y="558" on="0"/>
        <pt x="313" y="558" on="0"/>
        <pt x="286" y="574" on="1"/>
      </contour>
      <contour>
        <pt x="78" y="595" on="0"/>
        <pt x="78" y="649" on="0"/>
        <pt x="87" y="670" on="1"/>
        <pt x="113" y="686" on="0"/>
        <pt x="185" y="686" on="0"/>
        <pt x="212" y="670" on="1"/>
        <pt x="220" y="649" on="0"/>
        <pt x="220" y="594" on="0"/>
        <pt x="212" y="574" on="1"/>
        <pt x="185" y="558" on="0"/>
        <pt x="113" y="558" on="0"/>
        <pt x="87" y="574" on="1"/>
      </contour>
    </TTGlyph>
    <TTGlyph name="adieresis.smcp" xMin="6" yMin="-9" xMax="566" yMax="738">
      <contour>
        <pt x="211" y="100" on="1"/>
        <pt x="189" y="100" on="0"/>
        <pt x="178" y="101" on="1"/>
        <pt x="145" y="0" on="1"/>
        <pt x="120" y="-7" on="0"/>
        <pt x="36" y="-7" on="0"/>
        <pt x="11" y="4" on="1"/>
        <pt x="6" y="12" on="1"/>
        <pt x="201" y="550" on="1"/>
        <pt x="239" y="556" on="0"/>
        <pt x="335" y="556" on="0"/>
        <pt x="375" y="550" on="1"/>
        <pt x="566" y="7" on="1"/>
        <pt x="529" y="-9" on="0"/>
        <pt x="449" y="-9" on="0"/>
        <pt x="406" y="16" on="0"/>
        <pt x="394" y="55" on="1"/>
        <pt x="379" y="101" on="1"/>
        <pt x="368" y="100" on="0"/>
        <pt x="345" y="100" on="1"/>
      </contour>
      <contour>
        <pt x="216" y="218" on="1"/>
        <pt x="248" y="219" on="1"/>
        <pt x="314" y="219" on="1"/>
        <pt x="318" y="219" on="0"/>
        <pt x="338" y="218" on="0"/>
        <pt x="342" y="218" on="1"/>
        <pt x="329" y="260" on="1"/>
        <pt x="321" y="286" on="0"/>
        <pt x="284" y="434" on="1"/>
        <pt x="278" y="434" on="1"/>
        <pt x="276" y="428" on="0"/>
        <pt x="240" y="294" on="0"/>
        <pt x="231" y="264" on="1"/>
      </contour>
      <contour>
        <pt x="320" y="647" on="0"/>
        <pt x="320" y="701" on="0"/>
        <pt x="328" y="722" on="1"/>
        <pt x="355" y="738" on="0"/>
        <pt x="427" y="738" on="0"/>
        <pt x="453" y="722" on="1"/>
        <pt x="462" y="701" on="0"/>
        <pt x="462" y="645" on="0"/>
        <pt x="453" y="626" on="1"/>
        <pt x="427" y="610" on="0"/>
        <pt x="355" y="610" on="0"/>
        <pt x="328" y="626" on="1"/>
      </contour>
      <contour>
        <pt x="120" y="647" on="0"/>
        <pt x="120" y="701" on="0"/>
        <pt x="129" y="722" on="1"/>
        <pt x="155" y="738" on="0"/>
        <pt x="227" y="738" on="0"/>
        <pt x="254" y="722" on="1"/>
        <pt x="262" y="701" on="0"/>
        <pt x="262" y="646" on="0"/>
        <pt x="254" y="626" on="1"/>
        <pt x="227" y="610" on="0"/>
        <pt x="155" y="610" on="0"/>
        <pt x="129" y="626" on="1"/>
      </contour>
    </TTGlyph>
    <TTGlyph name="ae" xMin="32" yMin="-15" xMax="727" yMax="513">
      <contour>
        <pt x="715" y="201" on="1"/>
        <pt x="453" y="201" on="1"/>
        <pt x="456" y="153" on="0"/>
        <pt x="496" y="100" on="0"/>
        <pt x="599" y="100" on="0"/>
        <pt x="674" y="131" on="1"/>
        <pt x="706" y="99" on="0"/>
        <pt x="714" y="42" on="1"/>
        <pt x="635" y="-15" on="0"/>
        <pt x="411" y="-15" on="0"/>
        <pt x="355" y="58" on="1"/>
        <pt x="282" y="-15" on="0"/>
        <pt x="183" y="-15" on="1"/>
        <pt x="111" y="-15" on="0"/>
        <pt x="32" y="76" on="0"/>
        <pt x="32" y="137" on="1"/>
        <pt x="32" y="221" on="0"/>
        <pt x="145" y="309" on="0"/>
        <pt x="229" y="309" on="1"/>
        <pt x="264" y="309" on="0"/>
        <pt x="304" y="306" on="1"/>
        <pt x="304" y="328" on="1"/>
        <pt x="304" y="394" on="0"/>
        <pt x="237" y="394" on="1"/>
        <pt x="187" y="394" on="0"/>
        <pt x="87" y="362" on="1"/>
        <pt x="57" y="397" on="0"/>
        <pt x="51" y="466" on="1"/>
        <pt x="157" y="510" on="0"/>
        <pt x="266" y="510" on="1"/>
        <pt x="345" y="510" on="0"/>
        <pt x="390" y="462" on="1"/>
        <pt x="444" y="513" on="0"/>
        <pt x="522" y="513" on="1"/>
        <pt x="618" y="513" on="0"/>
        <pt x="727" y="394" on="0"/>
        <pt x="727" y="301" on="1"/>
        <pt x="727" y="245" on="0"/>
      </contour>
      <contour>
        <pt x="226" y="96" on="1"/>
        <pt x="275" y="96" on="0"/>
        <pt x="316" y="140" on="1"/>
        <pt x="306" y="175" on="0"/>
        <pt x="305" y="211" on="1"/>
        <pt x="283" y="213" on="0"/>
        <pt x="244" y="213" on="1"/>
        <pt x="177" y="213" on="0"/>
        <pt x="177" y="146" on="1"/>
        <pt x="177" y="125" on="0"/>
        <pt x="204" y="96" on="0"/>
      </contour>
      <contour>
        <pt x="521" y="407" on="1"/>
        <pt x="487" y="407" on="0"/>
        <pt x="455" y="357" on="0"/>
        <pt x="452" y="304" on="1"/>
        <pt x="589" y="304" on="1"/>
        <pt x="589" y="315" on="1"/>
        <pt x="589" y="407" on="0"/>
      </contour>
    </TTGlyph>
    <TTGlyph name="ae.smcp" xMin="2" yMin="-6" xMax="762" yMax="550">
      <contour>
        <pt x="494" y="115" on="1"/>
        <pt x="560" y="118" on="1"/>
        <pt x="762" y="118" on="1"/>
        <pt x="762" y="88" on="0"/>
        <pt x="760" y="70" on="1"/>
        <pt x="746" y="-2" on="0"/>
        <pt x="669" y="-2" on="1"/>
        <pt x="439" y="-2" on="1"/>
        <pt x="399" y="-2" on="0"/>
        <pt x="355" y="44" on="0"/>
        <pt x="355" y="84" on="1"/>
        <pt x="355" y="107" on="1"/>
        <pt x="344" y="106" on="0"/>
        <pt x="324" y="106" on="1"/>
        <pt x="238" y="106" on="1"/>
        <pt x="192" y="107" on="1"/>
        <pt x="141" y="0" on="1"/>
        <pt x="118" y="-6" on="0"/>
        <pt x="34" y="-6" on="0"/>
        <pt x="8" y="4" on="1"/>
        <pt x="2" y="13" on="1"/>
        <pt x="266" y="538" on="1"/>
        <pt x="291" y="550" on="0"/>
        <pt x="360" y="550" on="1"/>
        <pt x="744" y="550" on="1"/>
        <pt x="749" y="529" on="0"/>
        <pt x="749" y="463" on="0"/>
        <pt x="737" y="430" on="1"/>
        <pt x="494" y="430" on="1"/>
        <pt x="495" y="376" on="1"/>
        <pt x="495" y="334" on="1"/>
        <pt x="518" y="335" on="0"/>
        <pt x="555" y="335" on="1"/>
        <pt x="690" y="335" on="1"/>
        <pt x="698" y="314" on="0"/>
        <pt x="698" y="239" on="0"/>
        <pt x="690" y="220" on="1"/>
        <pt x="495" y="220" on="1"/>
        <pt x="495" y="177" on="1"/>
        <pt x="494" y="116" on="1"/>
      </contour>
      <contour>
        <pt x="323" y="217" on="1"/>
        <pt x="355" y="216" on="1"/>
        <pt x="355" y="446" on="1"/>
        <pt x="354" y="445" on="1"/>
        <pt x="350" y="445" on="1"/>
        <pt x="295" y="324" on="0"/>
        <pt x="274" y="280" on="1"/>
        <pt x="243" y="216" on="1"/>
        <pt x="281" y="217" on="1"/>
      </contour>
    </TTGlyph>
    <TTGlyph name="agrave" xMin="32" yMin="-15" xMax="481" yMax="765">
      <component glyphName="a" x="0" y="0" flags="0x1004"/>
      <component glyphName="grave" x="51" y="0" flags="0x1004"/>
    </TTGlyph>
    <TTGlyph name="agrave.smcp" xMin="6" yMin="-9" xMax="566" yMax="817">
      <contour>
        <pt x="211" y="100" on="1"/>
        <pt x="189" y="100" on="0"/>
        <pt x="178" y="101" on="1"/>
        <pt x="145" y="0" on="1"/>
        <pt x="120" y="-7" on="0"/>
        <pt x="36" y="-7" on="0"/>
        <pt x="11" y="4" on="1"/>
        <pt x="6" y="12" on="1"/>
        <pt x="201" y="550" on="1"/>
        <pt x="239" y="556" on="0"/>
        <pt x="335" y="556" on="0"/>
        <pt x="375" y="550" on="1"/>
        <pt x="566" y="7" on="1"/>
        <pt x="529" y="-9" on="0"/>
        <pt x="449" y="-9" on="0"/>
        <pt x="406" y="16" on="0"/>
        <pt x="394" y="55" on="1"/>
        <pt x="379" y="101" on="1"/>
        <pt x="368" y="100" on="0"/>
        <pt x="345" y="100" on="1"/>
      </contour>
      <contour>
        <pt x="216" y="218" on="1"/>
        <pt x="248" y="219" on="1"/>
        <pt x="314" y="219" on="1"/>
        <pt x="318" y="219" on="0"/>
        <pt x="338" y="218" on="0"/>
        <pt x="342" y="218" on="1"/>
        <pt x="329" y="260" on="1"/>
        <pt x="321" y="286" on="0"/>
        <pt x="284" y="434" on="1"/>
        <pt x="278" y="434" on="1"/>
        <pt x="276" y="428" on="0"/>
        <pt x="240" y="294" on="0"/>
        <pt x="231" y="264" on="1"/>
      </contour>
      <contour>
        <pt x="237" y="817" on="1"/>
        <pt x="391" y="650" on="1"/>
        <pt x="384" y="630" on="0"/>
        <pt x="348" y="598" on="0"/>
        <pt x="329" y="592" on="1"/>
        <pt x="146" y="730" on="1"/>
        <pt x="155" y="758" on="0"/>
        <pt x="209" y="808" on="0"/>
      </contour>
    </TTGlyph>
    <TTGlyph name="ampersand" xMin="41" yMin="-15" xMax="646" yMax="698">
      <contour>
        <pt x="531" y="296" on="1"/>
        <pt x="532" y="235" on="1"/>
        <pt x="532" y="159" on="1"/>
        <pt x="532" y="79" on="0"/>
        <pt x="539" y="0" on="1"/>
        <pt x="512" y="-9" on="0"/>
        <pt x="432" y="-9" on="0"/>
        <pt x="402" y="-2" on="1"/>
        <pt x="392" y="42" on="1"/>
        <pt x="328" y="-15" on="0"/>
        <pt x="144" y="-15" on="0"/>
        <pt x="41" y="96" on="0"/>
        <pt x="41" y="247" on="0"/>
        <pt x="115" y="347" on="0"/>
        <pt x="169" y="364" on="1"/>
        <pt x="125" y="381" on="0"/>
        <pt x="71" y="463" on="0"/>
        <pt x="71" y="516" on="1"/>
        <pt x="71" y="597" on="0"/>
        <pt x="188" y="698" on="0"/>
        <pt x="398" y="698" on="0"/>
        <pt x="495" y="665" on="1"/>
        <pt x="495" y="661" on="0"/>
        <pt x="495" y="631" on="0"/>
        <pt x="475" y="573" on="0"/>
        <pt x="457" y="553" on="1"/>
        <pt x="370" y="580" on="0"/>
        <pt x="271" y="580" on="0"/>
        <pt x="227" y="537" on="0"/>
        <pt x="227" y="503" on="1"/>
        <pt x="227" y="422" on="0"/>
        <pt x="330" y="422" on="1"/>
        <pt x="522" y="422" on="1"/>
        <pt x="581" y="422" on="0"/>
        <pt x="627" y="441" on="1"/>
        <pt x="646" y="417" on="0"/>
        <pt x="646" y="371" on="1"/>
        <pt x="646" y="296" on="0"/>
        <pt x="554" y="296" on="1"/>
      </contour>
      <contour>
        <pt x="385" y="234" on="1"/>
        <pt x="385" y="273" on="0"/>
        <pt x="386" y="296" on="1"/>
        <pt x="318" y="296" on="1"/>
        <pt x="259" y="296" on="0"/>
        <pt x="197" y="242" on="0"/>
        <pt x="197" y="148" on="0"/>
        <pt x="242" y="101" on="0"/>
        <pt x="278" y="101" on="1"/>
        <pt x="339" y="101" on="0"/>
        <pt x="385" y="141" on="1"/>
      </contour>
    </TTGlyph>
    <TTGlyph name="ampersand.smcp" xMin="37" yMin="-14" xMax="588" yMax="565">
      <contour>
        <pt x="307" y="347" on="1"/>
        <pt x="472" y="347" on="1"/>
        <pt x="530" y="347" on="0"/>
        <pt x="570" y="366" on="1"/>
        <pt x="588" y="342" on="0"/>
        <pt x="588" y="301" on="1"/>
        <pt x="588" y="230" on="0"/>
        <pt x="498" y="230" on="1"/>
        <pt x="487" y="230" on="1"/>
        <pt x="488" y="213" on="0"/>
        <pt x="488" y="173" on="1"/>
        <pt x="488" y="98" on="1"/>
        <pt x="488" y="64" on="0"/>
        <pt x="496" y="0" on="1"/>
        <pt x="472" y="-10" on="0"/>
        <pt x="384" y="-10" on="0"/>
        <pt x="360" y="-4" on="1"/>
        <pt x="351" y="34" on="1"/>
        <pt x="296" y="-14" on="0"/>
        <pt x="128" y="-14" on="0"/>
        <pt x="37" y="77" on="0"/>
        <pt x="37" y="199" on="0"/>
        <pt x="103" y="280" on="0"/>
        <pt x="152" y="293" on="1"/>
        <pt x="113" y="306" on="0"/>
        <pt x="66" y="372" on="0"/>
        <pt x="66" y="415" on="1"/>
        <pt x="66" y="483" on="0"/>
        <pt x="176" y="565" on="0"/>
        <pt x="365" y="565" on="0"/>
        <pt x="456" y="537" on="1"/>
        <pt x="457" y="530" on="0"/>
        <pt x="457" y="524" on="1"/>
        <pt x="457" y="470" on="0"/>
        <pt x="419" y="428" on="1"/>
        <pt x="337" y="452" on="0"/>
        <pt x="256" y="452" on="0"/>
        <pt x="222" y="424" on="0"/>
        <pt x="222" y="402" on="1"/>
        <pt x="222" y="347" on="0"/>
      </contour>
      <contour>
        <pt x="345" y="125" on="1"/>
        <pt x="345" y="230" on="1"/>
        <pt x="294" y="230" on="1"/>
        <pt x="190" y="230" on="0"/>
        <pt x="190" y="159" on="1"/>
        <pt x="190" y="127" on="0"/>
        <pt x="229" y="97" on="0"/>
        <pt x="258" y="97" on="1"/>
        <pt x="308" y="97" on="0"/>
      </contour>
    </TTGlyph>
    <TTGlyph name="aogonek" xMin="32" yMin="-218" xMax="509" yMax="510">
      <contour>
        <pt x="477" y="-111" on="1"/>
        <pt x="506" y="-136" on="0"/>
        <pt x="509" y="-178" on="1"/>
        <pt x="464" y="-218" on="0"/>
        <pt x="340" y="-218" on="0"/>
        <pt x="275" y="-164" on="0"/>
        <pt x="275" y="-119" on="1"/>
        <pt x="275" y="-44" on="0"/>
        <pt x="359" y="18" on="1"/>
        <pt x="342" y="30" on="0"/>
        <pt x="331" y="46" on="1"/>
        <pt x="264" y="-15" on="0"/>
        <pt x="111" y="-15" on="0"/>
        <pt x="32" y="77" on="0"/>
        <pt x="32" y="136" on="1"/>
        <pt x="32" y="221" on="0"/>
        <pt x="145" y="309" on="0"/>
        <pt x="229" y="309" on="1"/>
        <pt x="262" y="309" on="0"/>
        <pt x="304" y="306" on="1"/>
        <pt x="304" y="328" on="1"/>
        <pt x="304" y="394" on="0"/>
        <pt x="236" y="394" on="1"/>
        <pt x="193" y="394" on="0"/>
        <pt x="87" y="362" on="1"/>
        <pt x="57" y="397" on="0"/>
        <pt x="51" y="466" on="1"/>
        <pt x="98" y="486" on="0"/>
        <pt x="227" y="510" on="0"/>
        <pt x="277" y="510" on="1"/>
        <pt x="352" y="510" on="0"/>
        <pt x="453" y="427" on="0"/>
        <pt x="453" y="340" on="1"/>
        <pt x="453" y="136" on="1"/>
        <pt x="453" y="92" on="0"/>
        <pt x="484" y="69" on="1"/>
        <pt x="472" y="29" on="0"/>
        <pt x="384" y="-55" on="0"/>
        <pt x="384" y="-88" on="1"/>
        <pt x="384" y="-106" on="0"/>
        <pt x="408" y="-125" on="0"/>
        <pt x="451" y="-125" on="0"/>
      </contour>
      <contour>
        <pt x="226" y="96" on="1"/>
        <pt x="265" y="96" on="0"/>
        <pt x="304" y="129" on="1"/>
        <pt x="304" y="212" on="1"/>
        <pt x="282" y="213" on="0"/>
        <pt x="244" y="213" on="1"/>
        <pt x="177" y="213" on="0"/>
        <pt x="177" y="146" on="1"/>
        <pt x="177" y="125" on="0"/>
        <pt x="204" y="96" on="0"/>
      </contour>
    </TTGlyph>
    <TTGlyph name="aogonek.smcp" xMin="6" yMin="-218" xMax="605" yMax="556">
      <contour>
        <pt x="6" y="12" on="1"/>
        <pt x="201" y="550" on="1"/>
        <pt x="239" y="556" on="0"/>
        <pt x="335" y="556" on="0"/>
        <pt x="375" y="550" on="1"/>
        <pt x="566" y="7" on="1"/>
        <pt x="480" y="-34" on="0"/>
        <pt x="480" y="-89" on="1"/>
        <pt x="480" y="-106" on="0"/>
        <pt x="504" y="-125" on="0"/>
        <pt x="547" y="-125" on="0"/>
        <pt x="573" y="-111" on="1"/>
        <pt x="602" y="-136" on="0"/>
        <pt x="605" y="-178" on="1"/>
        <pt x="558" y="-218" on="0"/>
        <pt x="436" y="-218" on="0"/>
        <pt x="371" y="-164" on="0"/>
        <pt x="371" y="-119" on="1"/>
        <pt x="371" y="-58" on="0"/>
        <pt x="436" y="-1" on="1"/>
        <pt x="407" y="10" on="0"/>
        <pt x="394" y="55" on="1"/>
        <pt x="379" y="101" on="1"/>
        <pt x="368" y="100" on="0"/>
        <pt x="345" y="100" on="1"/>
        <pt x="211" y="100" on="1"/>
        <pt x="189" y="100" on="0"/>
        <pt x="178" y="101" on="1"/>
        <pt x="145" y="0" on="1"/>
        <pt x="120" y="-7" on="0"/>
        <pt x="36" y="-7" on="0"/>
        <pt x="11" y="4" on="1"/>
      </contour>
      <contour>
        <pt x="216" y="218" on="1"/>
        <pt x="248" y="219" on="1"/>
        <pt x="314" y="219" on="1"/>
        <pt x="318" y="219" on="0"/>
        <pt x="338" y="218" on="0"/>
        <pt x="342" y="218" on="1"/>
        <pt x="329" y="260" on="1"/>
        <pt x="321" y="286" on="0"/>
        <pt x="284" y="434" on="1"/>
        <pt x="278" y="434" on="1"/>
        <pt x="276" y="428" on="0"/>
        <pt x="240" y="294" on="0"/>
        <pt x="231" y="264" on="1"/>
      </contour>
    </TTGlyph>
    <TTGlyph name="aring" xMin="32" yMin="-15" xMax="481" yMax="795">
      <contour>
        <pt x="481" y="69" on="1"/>
        <pt x="477" y="49" on="0"/>
        <pt x="448" y="3" on="0"/>
        <pt x="434" y="-8" on="1"/>
        <pt x="365" y="-5" on="0"/>
        <pt x="330" y="45" on="1"/>
        <pt x="266" y="-15" on="0"/>
        <pt x="111" y="-15" on="0"/>
        <pt x="32" y="77" on="0"/>
        <pt x="32" y="136" on="1"/>
        <pt x="32" y="221" on="0"/>
        <pt x="145" y="309" on="0"/>
        <pt x="229" y="309" on="1"/>
        <pt x="262" y="309" on="0"/>
        <pt x="304" y="306" on="1"/>
        <pt x="304" y="328" on="1"/>
        <pt x="304" y="394" on="0"/>
        <pt x="236" y="394" on="1"/>
        <pt x="193" y="394" on="0"/>
        <pt x="87" y="362" on="1"/>
        <pt x="57" y="397" on="0"/>
        <pt x="51" y="466" on="1"/>
        <pt x="98" y="486" on="0"/>
        <pt x="227" y="510" on="0"/>
        <pt x="277" y="510" on="1"/>
        <pt x="352" y="510" on="0"/>
        <pt x="453" y="427" on="0"/>
        <pt x="453" y="340" on="1"/>
        <pt x="453" y="136" on="1"/>
        <pt x="453" y="89" on="0"/>
      </contour>
      <contour>
        <pt x="226" y="96" on="1"/>
        <pt x="265" y="96" on="0"/>
        <pt x="304" y="129" on="1"/>
        <pt x="304" y="212" on="1"/>
        <pt x="282" y="213" on="0"/>
        <pt x="244" y="213" on="1"/>
        <pt x="177" y="213" on="0"/>
        <pt x="177" y="146" on="1"/>
        <pt x="177" y="125" on="0"/>
        <pt x="204" y="96" on="0"/>
      </contour>
      <contour>
        <pt x="187" y="542" on="0"/>
        <pt x="111" y="615" on="0"/>
        <pt x="111" y="722" on="0"/>
        <pt x="187" y="795" on="0"/>
        <pt x="311" y="795" on="0"/>
        <pt x="387" y="722" on="0"/>
        <pt x="387" y="615" on="0"/>
        <pt x="311" y="542" on="0"/>
      </contour>
      <contour>
        <pt x="200" y="691" on="0"/>
        <pt x="200" y="647" on="0"/>
        <pt x="227" y="618" on="0"/>
        <pt x="271" y="618" on="0"/>
        <pt x="298" y="647" on="0"/>
        <pt x="298" y="691" on="0"/>
        <pt x="271" y="720" on="0"/>
        <pt x="227" y="720" on="0"/>
      </contour>
    </TTGlyph>
    <TTGlyph name="aring.smcp" xMin="6" yMin="-9" xMax="566" yMax="847">
      <contour>
        <pt x="211" y="100" on="1"/>
        <pt x="189" y="100" on="0"/>
        <pt x="178" y="101" on="1"/>
        <pt x="145" y="0" on="1"/>
        <pt x="120" y="-7" on="0"/>
        <pt x="36" y="-7" on="0"/>
        <pt x="11" y="4" on="1"/>
        <pt x="6" y="12" on="1"/>
        <pt x="201" y="550" on="1"/>
        <pt x="239" y="556" on="0"/>
        <pt x="335" y="556" on="0"/>
        <pt x="375" y="550" on="1"/>
        <pt x="566" y="7" on="1"/>
        <pt x="529" y="-9" on="0"/>
        <pt x="449" y="-9" on="0"/>
        <pt x="406" y="16" on="0"/>
        <pt x="394" y="55" on="1"/>
        <pt x="379" y="101" on="1"/>
        <pt x="368" y="100" on="0"/>
        <pt x="345" y="100" on="1"/>
      </contour>
      <contour>
        <pt x="216" y="218" on="1"/>
        <pt x="248" y="219" on="1"/>
        <pt x="314" y="219" on="1"/>
        <pt x="318" y="219" on="0"/>
        <pt x="338" y="218" on="0"/>
        <pt x="342" y="218" on="1"/>
        <pt x="329" y="260" on="1"/>
        <pt x="321" y="286" on="0"/>
        <pt x="284" y="434" on="1"/>
        <pt x="278" y="434" on="1"/>
        <pt x="276" y="428" on="0"/>
        <pt x="240" y="294" on="0"/>
        <pt x="231" y="264" on="1"/>
      </contour>
      <contour>
        <pt x="229" y="594" on="0"/>
        <pt x="153" y="667" on="0"/>
        <pt x="153" y="774" on="0"/>
        <pt x="229" y="847" on="0"/>
        <pt x="353" y="847" on="0"/>
        <pt x="429" y="774" on="0"/>
        <pt x="429" y="667" on="0"/>
        <pt x="353" y="594" on="0"/>
      </contour>
      <contour>
        <pt x="242" y="743" on="0"/>
        <pt x="242" y="699" on="0"/>
        <pt x="269" y="670" on="0"/>
        <pt x="313" y="670" on="0"/>
        <pt x="340" y="699" on="0"/>
        <pt x="340" y="743" on="0"/>
        <pt x="313" y="772" on="0"/>
        <pt x="269" y="772" on="0"/>
      </contour>
    </TTGlyph>
    <TTGlyph name="asciicircum" xMin="30" yMin="299" xMax="500" yMax="655">
      <contour>
        <pt x="500" y="306" on="1"/>
        <pt x="470" y="299" on="0"/>
        <pt x="384" y="299" on="0"/>
        <pt x="358" y="306" on="1"/>
        <pt x="305" y="433" on="1"/>
        <pt x="290" y="468" on="0"/>
        <pt x="269" y="537" on="1"/>
        <pt x="261" y="537" on="1"/>
        <pt x="240" y="468" on="0"/>
        <pt x="225" y="433" on="1"/>
        <pt x="172" y="306" on="1"/>
        <pt x="146" y="299" on="0"/>
        <pt x="125" y="299" on="1"/>
        <pt x="60" y="299" on="0"/>
        <pt x="30" y="306" on="1"/>
        <pt x="186" y="648" on="1"/>
        <pt x="213" y="655" on="0"/>
        <pt x="320" y="655" on="0"/>
        <pt x="344" y="648" on="1"/>
      </contour>
    </TTGlyph>
    <TTGlyph name="asciitilde" xMin="32" yMin="195" xMax="594" yMax="402">
      <contour>
        <pt x="298" y="381" on="1"/>
        <pt x="381" y="343" on="1"/>
        <pt x="406" y="332" on="0"/>
        <pt x="456" y="332" on="0"/>
        <pt x="481" y="360" on="1"/>
        <pt x="505" y="385" on="1"/>
        <pt x="530" y="383" on="0"/>
        <pt x="583" y="352" on="0"/>
        <pt x="594" y="328" on="1"/>
        <pt x="574" y="296" on="1"/>
        <pt x="514" y="195" on="0"/>
        <pt x="417" y="195" on="1"/>
        <pt x="374" y="195" on="0"/>
        <pt x="328" y="216" on="1"/>
        <pt x="245" y="253" on="1"/>
        <pt x="221" y="265" on="0"/>
        <pt x="170" y="265" on="0"/>
        <pt x="145" y="237" on="1"/>
        <pt x="121" y="211" on="1"/>
        <pt x="95" y="213" on="0"/>
        <pt x="43" y="245" on="0"/>
        <pt x="32" y="269" on="1"/>
        <pt x="51" y="301" on="1"/>
        <pt x="112" y="402" on="0"/>
        <pt x="209" y="402" on="1"/>
        <pt x="251" y="402" on="0"/>
      </contour>
    </TTGlyph>
    <TTGlyph name="asterisk" xMin="36" yMin="308" xMax="481" yMax="739">
      <contour>
        <pt x="37" y="525" on="1"/>
        <pt x="37" y="528" on="0"/>
        <pt x="37" y="553" on="0"/>
        <pt x="60" y="622" on="0"/>
        <pt x="75" y="640" on="1"/>
        <pt x="133" y="617" on="1"/>
        <pt x="166" y="606" on="0"/>
        <pt x="225" y="563" on="1"/>
        <pt x="203" y="633" on="0"/>
        <pt x="202" y="667" on="1"/>
        <pt x="199" y="730" on="1"/>
        <pt x="219" y="739" on="0"/>
        <pt x="298" y="739" on="0"/>
        <pt x="319" y="730" on="1"/>
        <pt x="316" y="667" on="1"/>
        <pt x="314" y="636" on="0"/>
        <pt x="293" y="564" on="1"/>
        <pt x="344" y="599" on="0"/>
        <pt x="384" y="616" on="1"/>
        <pt x="443" y="639" on="1"/>
        <pt x="457" y="622" on="0"/>
        <pt x="482" y="548" on="0"/>
        <pt x="481" y="525" on="1"/>
        <pt x="419" y="508" on="1"/>
        <pt x="383" y="499" on="0"/>
        <pt x="313" y="499" on="1"/>
        <pt x="369" y="457" on="0"/>
        <pt x="392" y="428" on="1"/>
        <pt x="432" y="379" on="1"/>
        <pt x="421" y="360" on="0"/>
        <pt x="358" y="313" on="0"/>
        <pt x="336" y="308" on="1"/>
        <pt x="301" y="361" on="1"/>
        <pt x="281" y="391" on="0"/>
        <pt x="259" y="458" on="1"/>
        <pt x="236" y="393" on="0"/>
        <pt x="216" y="362" on="1"/>
        <pt x="182" y="309" on="1"/>
        <pt x="160" y="313" on="0"/>
        <pt x="97" y="359" on="0"/>
        <pt x="85" y="379" on="1"/>
        <pt x="124" y="429" on="1"/>
        <pt x="146" y="457" on="0"/>
        <pt x="204" y="499" on="1"/>
        <pt x="135" y="499" on="0"/>
        <pt x="99" y="509" on="1"/>
      </contour>
    </TTGlyph>
    <TTGlyph name="at" xMin="40" yMin="-201" xMax="943" yMax="685">
      <contour>
        <pt x="692" y="411" on="1"/>
        <pt x="691" y="163" on="1"/>
        <pt x="691" y="110" on="0"/>
        <pt x="723" y="110" on="1"/>
        <pt x="796" y="110" on="0"/>
        <pt x="796" y="299" on="1"/>
        <pt x="796" y="427" on="0"/>
        <pt x="637" y="575" on="0"/>
        <pt x="362" y="575" on="0"/>
        <pt x="189" y="379" on="0"/>
        <pt x="189" y="68" on="0"/>
        <pt x="337" y="-88" on="0"/>
        <pt x="470" y="-88" on="1"/>
        <pt x="569" y="-88" on="0"/>
        <pt x="667" y="-50" on="1"/>
        <pt x="704" y="-90" on="0"/>
        <pt x="704" y="-151" on="1"/>
        <pt x="590" y="-201" on="0"/>
        <pt x="459" y="-201" on="1"/>
        <pt x="268" y="-201" on="0"/>
        <pt x="40" y="12" on="0"/>
        <pt x="40" y="424" on="0"/>
        <pt x="303" y="685" on="0"/>
        <pt x="697" y="685" on="0"/>
        <pt x="943" y="476" on="0"/>
        <pt x="943" y="295" on="1"/>
        <pt x="943" y="152" on="0"/>
        <pt x="812" y="2" on="0"/>
        <pt x="636" y="2" on="0"/>
        <pt x="587" y="61" on="1"/>
        <pt x="522" y="-2" on="0"/>
        <pt x="372" y="-2" on="0"/>
        <pt x="287" y="123" on="0"/>
        <pt x="287" y="344" on="0"/>
        <pt x="400" y="486" on="0"/>
        <pt x="501" y="486" on="1"/>
        <pt x="556" y="486" on="0"/>
        <pt x="661" y="442" on="0"/>
      </contour>
      <contour>
        <pt x="429" y="169" on="0"/>
        <pt x="454" y="109" on="0"/>
        <pt x="519" y="109" on="0"/>
        <pt x="553" y="146" on="1"/>
        <pt x="553" y="363" on="1"/>
        <pt x="529" y="382" on="0"/>
        <pt x="501" y="382" on="1"/>
        <pt x="429" y="382" on="0"/>
        <pt x="429" y="234" on="1"/>
      </contour>
    </TTGlyph>
    <TTGlyph name="atilde" xMin="32" yMin="-15" xMax="481" yMax="717">
      <component glyphName="a" x="0" y="0" flags="0x1004"/>
      <component glyphName="tilde" x="50" y="0" flags="0x1004"/>
    </TTGlyph>
    <TTGlyph name="atilde.smcp" xMin="6" yMin="-9" xMax="566" yMax="769">
      <contour>
        <pt x="211" y="100" on="1"/>
        <pt x="189" y="100" on="0"/>
        <pt x="178" y="101" on="1"/>
        <pt x="145" y="0" on="1"/>
        <pt x="120" y="-7" on="0"/>
        <pt x="36" y="-7" on="0"/>
        <pt x="11" y="4" on="1"/>
        <pt x="6" y="12" on="1"/>
        <pt x="201" y="550" on="1"/>
        <pt x="239" y="556" on="0"/>
        <pt x="335" y="556" on="0"/>
        <pt x="375" y="550" on="1"/>
        <pt x="566" y="7" on="1"/>
        <pt x="529" y="-9" on="0"/>
        <pt x="449" y="-9" on="0"/>
        <pt x="406" y="16" on="0"/>
        <pt x="394" y="55" on="1"/>
        <pt x="379" y="101" on="1"/>
        <pt x="368" y="100" on="0"/>
        <pt x="345" y="100" on="1"/>
      </contour>
      <contour>
        <pt x="216" y="218" on="1"/>
        <pt x="248" y="219" on="1"/>
        <pt x="314" y="219" on="1"/>
        <pt x="318" y="219" on="0"/>
        <pt x="338" y="218" on="0"/>
        <pt x="342" y="218" on="1"/>
        <pt x="329" y="260" on="1"/>
        <pt x="321" y="286" on="0"/>
        <pt x="284" y="434" on="1"/>
        <pt x="278" y="434" on="1"/>
        <pt x="276" y="428" on="0"/>
        <pt x="240" y="294" on="0"/>
        <pt x="231" y="264" on="1"/>
      </contour>
      <contour>
        <pt x="293" y="624" on="1"/>
        <pt x="248" y="647" on="1"/>
        <pt x="232" y="656" on="0"/>
        <pt x="201" y="656" on="0"/>
        <pt x="183" y="632" on="1"/>
        <pt x="174" y="619" on="1"/>
        <pt x="153" y="619" on="0"/>
        <pt x="111" y="645" on="0"/>
        <pt x="104" y="664" on="1"/>
        <pt x="112" y="683" on="1"/>
        <pt x="129" y="722" on="0"/>
        <pt x="189" y="769" on="0"/>
        <pt x="257" y="769" on="0"/>
        <pt x="289" y="752" on="1"/>
        <pt x="334" y="729" on="1"/>
        <pt x="350" y="720" on="0"/>
        <pt x="382" y="720" on="0"/>
        <pt x="399" y="744" on="1"/>
        <pt x="408" y="756" on="1"/>
        <pt x="429" y="756" on="0"/>
        <pt x="470" y="731" on="0"/>
        <pt x="478" y="712" on="1"/>
        <pt x="470" y="692" on="1"/>
        <pt x="453" y="653" on="0"/>
        <pt x="392" y="606" on="0"/>
        <pt x="327" y="606" on="0"/>
      </contour>
    </TTGlyph>
    <TTGlyph name="b" xMin="62" yMin="-9" xMax="503" yMax="736">
      <contour>
        <pt x="411" y="508" on="0"/>
        <pt x="502" y="370" on="0"/>
        <pt x="502" y="133" on="0"/>
        <pt x="369" y="-9" on="0"/>
        <pt x="149" y="-9" on="0"/>
        <pt x="62" y="25" on="1"/>
        <pt x="62" y="729" on="1"/>
        <pt x="69" y="736" on="1"/>
        <pt x="125" y="736" on="1"/>
        <pt x="170" y="736" on="0"/>
        <pt x="208" y="695" on="0"/>
        <pt x="208" y="646" on="1"/>
        <pt x="208" y="472" on="1"/>
        <pt x="263" y="508" on="0"/>
        <pt x="325" y="508" on="1"/>
      </contour>
      <contour>
        <pt x="282" y="388" on="1"/>
        <pt x="240" y="388" on="0"/>
        <pt x="208" y="353" on="1"/>
        <pt x="208" y="103" on="1"/>
        <pt x="235" y="98" on="0"/>
        <pt x="259" y="98" on="1"/>
        <pt x="350" y="98" on="0"/>
        <pt x="350" y="254" on="1"/>
        <pt x="350" y="386" on="0"/>
      </contour>
    </TTGlyph>
    <TTGlyph name="b.smcp" xMin="73" yMin="-4" xMax="527" yMax="555">
      <contour>
        <pt x="79" y="551" on="1"/>
        <pt x="185" y="555" on="0"/>
        <pt x="286" y="555" on="1"/>
        <pt x="498" y="555" on="0"/>
        <pt x="498" y="409" on="1"/>
        <pt x="498" y="372" on="0"/>
        <pt x="458" y="309" on="0"/>
        <pt x="424" y="297" on="1"/>
        <pt x="468" y="284" on="0"/>
        <pt x="527" y="206" on="0"/>
        <pt x="527" y="160" on="1"/>
        <pt x="527" y="-4" on="0"/>
        <pt x="298" y="-4" on="1"/>
        <pt x="198" y="-4" on="0"/>
        <pt x="79" y="-1" on="1"/>
        <pt x="73" y="4" on="1"/>
        <pt x="73" y="545" on="1"/>
      </contour>
      <contour>
        <pt x="219" y="100" on="1"/>
        <pt x="296" y="101" on="1"/>
        <pt x="376" y="101" on="0"/>
        <pt x="376" y="167" on="1"/>
        <pt x="376" y="196" on="0"/>
        <pt x="334" y="236" on="0"/>
        <pt x="288" y="236" on="1"/>
        <pt x="219" y="236" on="1"/>
      </contour>
      <contour>
        <pt x="219" y="453" on="1"/>
        <pt x="219" y="340" on="1"/>
        <pt x="278" y="340" on="1"/>
        <pt x="351" y="340" on="0"/>
        <pt x="351" y="452" on="0"/>
        <pt x="279" y="452" on="1"/>
        <pt x="240" y="452" on="0"/>
      </contour>
    </TTGlyph>
    <TTGlyph name="backslash" xMin="4" yMin="-118" xMax="445" yMax="767">
      <contour>
        <pt x="318" y="-118" on="1"/>
        <pt x="4" y="719" on="1"/>
        <pt x="55" y="758" on="0"/>
        <pt x="131" y="767" on="1"/>
        <pt x="445" y="-70" on="1"/>
        <pt x="394" y="-109" on="0"/>
      </contour>
    </TTGlyph>
    <TTGlyph name="bar" xMin="65" yMin="-148" xMax="203" yMax="780">
      <contour>
        <pt x="65" y="-142" on="1"/>
        <pt x="65" y="773" on="1"/>
        <pt x="89" y="780" on="0"/>
        <pt x="177" y="780" on="0"/>
        <pt x="203" y="773" on="1"/>
        <pt x="203" y="-142" on="1"/>
        <pt x="177" y="-148" on="0"/>
        <pt x="90" y="-148" on="0"/>
      </contour>
    </TTGlyph>
    <TTGlyph name="braceleft" xMin="37" yMin="-179" xMax="382" yMax="833">
      <contour>
        <pt x="44" y="375" on="1"/>
        <pt x="81" y="382" on="0"/>
        <pt x="129" y="445" on="0"/>
        <pt x="129" y="485" on="1"/>
        <pt x="129" y="647" on="1"/>
        <pt x="129" y="722" on="0"/>
        <pt x="215" y="811" on="0"/>
        <pt x="287" y="823" on="1"/>
        <pt x="352" y="833" on="1"/>
        <pt x="367" y="817" on="0"/>
        <pt x="382" y="766" on="0"/>
        <pt x="382" y="743" on="0"/>
        <pt x="380" y="737" on="1"/>
        <pt x="321" y="717" on="1"/>
        <pt x="303" y="711" on="0"/>
        <pt x="278" y="674" on="0"/>
        <pt x="278" y="646" on="1"/>
        <pt x="278" y="487" on="1"/>
        <pt x="278" y="436" on="0"/>
        <pt x="230" y="349" on="0"/>
        <pt x="191" y="331" on="1"/>
        <pt x="191" y="323" on="1"/>
        <pt x="230" y="306" on="0"/>
        <pt x="278" y="219" on="0"/>
        <pt x="278" y="167" on="1"/>
        <pt x="278" y="9" on="1"/>
        <pt x="278" y="-19" on="0"/>
        <pt x="303" y="-56" on="0"/>
        <pt x="321" y="-62" on="1"/>
        <pt x="380" y="-82" on="1"/>
        <pt x="382" y="-88" on="0"/>
        <pt x="382" y="-111" on="0"/>
        <pt x="367" y="-163" on="0"/>
        <pt x="352" y="-179" on="1"/>
        <pt x="287" y="-168" on="1"/>
        <pt x="215" y="-157" on="0"/>
        <pt x="129" y="-67" on="0"/>
        <pt x="129" y="8" on="1"/>
        <pt x="129" y="169" on="1"/>
        <pt x="129" y="209" on="0"/>
        <pt x="81" y="273" on="0"/>
        <pt x="44" y="280" on="1"/>
        <pt x="37" y="297" on="0"/>
        <pt x="37" y="357" on="0"/>
      </contour>
    </TTGlyph>
    <TTGlyph name="braceright" xMin="10" yMin="-179" xMax="354" yMax="833">
      <contour>
        <pt x="347" y="375" on="1"/>
        <pt x="354" y="357" on="0"/>
        <pt x="354" y="297" on="0"/>
        <pt x="347" y="280" on="1"/>
        <pt x="311" y="273" on="0"/>
        <pt x="263" y="209" on="0"/>
        <pt x="263" y="169" on="1"/>
        <pt x="263" y="8" on="1"/>
        <pt x="263" y="-67" on="0"/>
        <pt x="176" y="-157" on="0"/>
        <pt x="104" y="-168" on="1"/>
        <pt x="40" y="-179" on="1"/>
        <pt x="25" y="-163" on="0"/>
        <pt x="10" y="-111" on="0"/>
        <pt x="10" y="-88" on="0"/>
        <pt x="12" y="-82" on="1"/>
        <pt x="71" y="-62" on="1"/>
        <pt x="89" y="-56" on="0"/>
        <pt x="113" y="-19" on="0"/>
        <pt x="113" y="9" on="1"/>
        <pt x="113" y="167" on="1"/>
        <pt x="113" y="219" on="0"/>
        <pt x="162" y="306" on="0"/>
        <pt x="201" y="323" on="1"/>
        <pt x="201" y="331" on="1"/>
        <pt x="162" y="349" on="0"/>
        <pt x="113" y="436" on="0"/>
        <pt x="113" y="487" on="1"/>
        <pt x="113" y="646" on="1"/>
        <pt x="113" y="674" on="0"/>
        <pt x="89" y="711" on="0"/>
        <pt x="71" y="717" on="1"/>
        <pt x="12" y="737" on="1"/>
        <pt x="10" y="743" on="0"/>
        <pt x="10" y="766" on="0"/>
        <pt x="25" y="817" on="0"/>
        <pt x="40" y="833" on="1"/>
        <pt x="104" y="823" on="1"/>
        <pt x="176" y="811" on="0"/>
        <pt x="263" y="721" on="0"/>
        <pt x="263" y="647" on="1"/>
        <pt x="263" y="485" on="1"/>
        <pt x="263" y="445" on="0"/>
        <pt x="310" y="382" on="0"/>
      </contour>
    </TTGlyph>
    <TTGlyph name="bracketleft" xMin="98" yMin="-162" xMax="355" yMax="826">
      <contour>
        <pt x="350" y="-153" on="1"/>
        <pt x="107" y="-162" on="1"/>
        <pt x="98" y="-154" on="1"/>
        <pt x="98" y="819" on="1"/>
        <pt x="107" y="826" on="1"/>
        <pt x="350" y="818" on="1"/>
        <pt x="355" y="801" on="0"/>
        <pt x="355" y="740" on="0"/>
        <pt x="344" y="716" on="1"/>
        <pt x="244" y="713" on="1"/>
        <pt x="244" y="-48" on="1"/>
        <pt x="344" y="-51" on="1"/>
        <pt x="355" y="-77" on="0"/>
        <pt x="355" y="-138" on="0"/>
      </contour>
    </TTGlyph>
    <TTGlyph name="bracketright" xMin="33" yMin="-162" xMax="289" yMax="826">
      <contour>
        <pt x="281" y="-162" on="1"/>
        <pt x="38" y="-153" on="1"/>
        <pt x="33" y="-142" on="0"/>
        <pt x="33" y="-77" on="0"/>
        <pt x="44" y="-51" on="1"/>
        <pt x="144" y="-48" on="1"/>
        <pt x="144" y="713" on="1"/>
        <pt x="44" y="716" on="1"/>
        <pt x="33" y="740" on="0"/>
        <pt x="33" y="806" on="0"/>
        <pt x="38" y="818" on="1"/>
        <pt x="281" y="826" on="1"/>
        <pt x="289" y="819" on="1"/>
        <pt x="289" y="-154" on="1"/>
      </contour>
    </TTGlyph>
    <TTGlyph name="brokenbar" xMin="63" yMin="-148" xMax="199" yMax="780">
      <contour>
        <pt x="63" y="-142" on="1"/>
        <pt x="63" y="245" on="1"/>
        <pt x="88" y="252" on="0"/>
        <pt x="173" y="252" on="0"/>
        <pt x="199" y="245" on="1"/>
        <pt x="199" y="-142" on="1"/>
        <pt x="173" y="-148" on="0"/>
        <pt x="88" y="-148" on="0"/>
      </contour>
      <contour>
        <pt x="63" y="386" on="1"/>
        <pt x="63" y="773" on="1"/>
        <pt x="88" y="780" on="0"/>
        <pt x="173" y="780" on="0"/>
        <pt x="199" y="773" on="1"/>
        <pt x="199" y="386" on="1"/>
        <pt x="173" y="380" on="0"/>
        <pt x="88" y="380" on="0"/>
      </contour>
    </TTGlyph>
    <TTGlyph name="bullet" xMin="97" yMin="144" xMax="365" yMax="394">
      <contour>
        <pt x="97" y="207" on="0"/>
        <pt x="97" y="329" on="0"/>
        <pt x="115" y="365" on="1"/>
        <pt x="162" y="394" on="0"/>
        <pt x="301" y="394" on="0"/>
        <pt x="348" y="365" on="1"/>
        <pt x="365" y="325" on="0"/>
        <pt x="365" y="211" on="0"/>
        <pt x="348" y="171" on="1"/>
        <pt x="307" y="144" on="0"/>
        <pt x="156" y="144" on="0"/>
        <pt x="115" y="171" on="1"/>
      </contour>
    </TTGlyph>
    <TTGlyph name="c" xMin="32" yMin="-15" xMax="447" yMax="513">
      <contour>
        <pt x="313" y="281" on="1"/>
        <pt x="313" y="286" on="0"/>
        <pt x="313" y="290" on="1"/>
        <pt x="313" y="346" on="0"/>
        <pt x="290" y="402" on="0"/>
        <pt x="215" y="402" on="0"/>
        <pt x="184" y="329" on="0"/>
        <pt x="184" y="169" on="0"/>
        <pt x="229" y="102" on="0"/>
        <pt x="323" y="102" on="0"/>
        <pt x="386" y="145" on="1"/>
        <pt x="404" y="135" on="0"/>
        <pt x="438" y="84" on="0"/>
        <pt x="443" y="62" on="1"/>
        <pt x="409" y="27" on="0"/>
        <pt x="305" y="-15" on="0"/>
        <pt x="250" y="-15" on="1"/>
        <pt x="145" y="-15" on="0"/>
        <pt x="32" y="127" on="0"/>
        <pt x="32" y="382" on="0"/>
        <pt x="162" y="513" on="0"/>
        <pt x="339" y="513" on="0"/>
        <pt x="447" y="421" on="0"/>
        <pt x="447" y="349" on="1"/>
        <pt x="447" y="313" on="0"/>
        <pt x="408" y="276" on="0"/>
        <pt x="337" y="276" on="0"/>
      </contour>
    </TTGlyph>
    <TTGlyph name="c.smcp" xMin="33" yMin="-15" xMax="522" yMax="565">
      <contour>
        <pt x="381" y="305" on="1"/>
        <pt x="381" y="374" on="0"/>
        <pt x="342" y="447" on="0"/>
        <pt x="291" y="447" on="1"/>
        <pt x="187" y="447" on="0"/>
        <pt x="187" y="272" on="1"/>
        <pt x="187" y="110" on="0"/>
        <pt x="303" y="110" on="1"/>
        <pt x="371" y="110" on="0"/>
        <pt x="446" y="165" on="1"/>
        <pt x="468" y="153" on="0"/>
        <pt x="510" y="95" on="0"/>
        <pt x="515" y="70" on="1"/>
        <pt x="416" y="-15" on="0"/>
        <pt x="281" y="-15" on="1"/>
        <pt x="212" y="-15" on="0"/>
        <pt x="112" y="35" on="0"/>
        <pt x="85" y="78" on="1"/>
        <pt x="33" y="161" on="0"/>
        <pt x="33" y="273" on="1"/>
        <pt x="33" y="417" on="0"/>
        <pt x="184" y="565" on="0"/>
        <pt x="405" y="565" on="0"/>
        <pt x="522" y="456" on="0"/>
        <pt x="522" y="383" on="1"/>
        <pt x="522" y="301" on="0"/>
        <pt x="431" y="301" on="1"/>
        <pt x="415" y="301" on="0"/>
      </contour>
    </TTGlyph>
    <TTGlyph name="cacute" xMin="32" yMin="-15" xMax="447" yMax="765">
      <component glyphName="c" x="0" y="0" flags="0x1004"/>
      <component glyphName="acute" x="55" y="0" flags="0x1004"/>
    </TTGlyph>
    <TTGlyph name="cacute.smcp" xMin="33" yMin="-15" xMax="522" yMax="817">
      <contour>
        <pt x="381" y="305" on="1"/>
        <pt x="381" y="374" on="0"/>
        <pt x="342" y="447" on="0"/>
        <pt x="291" y="447" on="1"/>
        <pt x="187" y="447" on="0"/>
        <pt x="187" y="272" on="1"/>
        <pt x="187" y="110" on="0"/>
        <pt x="303" y="110" on="1"/>
        <pt x="371" y="110" on="0"/>
        <pt x="446" y="165" on="1"/>
        <pt x="468" y="153" on="0"/>
        <pt x="510" y="95" on="0"/>
        <pt x="515" y="70" on="1"/>
        <pt x="416" y="-15" on="0"/>
        <pt x="281" y="-15" on="1"/>
        <pt x="212" y="-15" on="0"/>
        <pt x="112" y="35" on="0"/>
        <pt x="85" y="78" on="1"/>
        <pt x="33" y="161" on="0"/>
        <pt x="33" y="273" on="1"/>
        <pt x="33" y="417" on="0"/>
        <pt x="184" y="565" on="0"/>
        <pt x="405" y="565" on="0"/>
        <pt x="522" y="456" on="0"/>
        <pt x="522" y="383" on="1"/>
        <pt x="522" y="301" on="0"/>
        <pt x="431" y="301" on="1"/>
        <pt x="415" y="301" on="0"/>
      </contour>
      <contour>
        <pt x="204" y="650" on="1"/>
        <pt x="358" y="817" on="1"/>
        <pt x="386" y="808" on="0"/>
        <pt x="441" y="758" on="0"/>
        <pt x="449" y="730" on="1"/>
        <pt x="266" y="592" on="1"/>
        <pt x="247" y="598" on="0"/>
        <pt x="212" y="630" on="0"/>
      </contour>
    </TTGlyph>
    <TTGlyph name="caron" xMin="38" yMin="553" xMax="360" yMax="756">
      <contour>
        <pt x="103" y="748" on="1"/>
        <pt x="195" y="661" on="1"/>
        <pt x="294" y="756" on="1"/>
        <pt x="338" y="741" on="0"/>
        <pt x="360" y="699" on="1"/>
        <pt x="254" y="562" on="1"/>
        <pt x="228" y="553" on="0"/>
        <pt x="194" y="553" on="0"/>
        <pt x="158" y="554" on="0"/>
        <pt x="131" y="562" on="1"/>
        <pt x="38" y="687" on="1"/>
        <pt x="48" y="708" on="0"/>
        <pt x="87" y="742" on="0"/>
      </contour>
    </TTGlyph>
    <TTGlyph name="caron.alt" xMin="192" yMin="553" xMax="328" yMax="802">
      <contour>
        <pt x="275" y="559" on="1"/>
        <pt x="262" y="554" on="0"/>
        <pt x="213" y="554" on="0"/>
        <pt x="192" y="565" on="1"/>
        <pt x="203" y="797" on="1"/>
        <pt x="219" y="801" on="0"/>
        <pt x="235" y="801" on="1"/>
        <pt x="296" y="801" on="0"/>
        <pt x="328" y="778" on="1"/>
      </contour>
    </TTGlyph>
    <TTGlyph name="caron.cap" xMin="18" yMin="737" xMax="376" yMax="927">
      <contour>
        <pt x="77" y="915" on="1"/>
        <pt x="194" y="841" on="1"/>
        <pt x="314" y="927" on="1"/>
        <pt x="331" y="921" on="0"/>
        <pt x="371" y="885" on="0"/>
        <pt x="376" y="866" on="1"/>
        <pt x="257" y="745" on="1"/>
        <pt x="226" y="737" on="0"/>
        <pt x="163" y="737" on="0"/>
        <pt x="131" y="744" on="1"/>
        <pt x="18" y="854" on="1"/>
        <pt x="24" y="875" on="0"/>
        <pt x="60" y="909" on="0"/>
      </contour>
    </TTGlyph>
    <TTGlyph name="ccaron" xMin="32" yMin="-15" xMax="447" yMax="756">
      <contour>
        <pt x="313" y="281" on="1"/>
        <pt x="313" y="286" on="0"/>
        <pt x="313" y="290" on="1"/>
        <pt x="313" y="346" on="0"/>
        <pt x="290" y="402" on="0"/>
        <pt x="215" y="402" on="0"/>
        <pt x="184" y="329" on="0"/>
        <pt x="184" y="169" on="0"/>
        <pt x="229" y="102" on="0"/>
        <pt x="323" y="102" on="0"/>
        <pt x="386" y="145" on="1"/>
        <pt x="404" y="135" on="0"/>
        <pt x="438" y="84" on="0"/>
        <pt x="443" y="62" on="1"/>
        <pt x="409" y="27" on="0"/>
        <pt x="305" y="-15" on="0"/>
        <pt x="250" y="-15" on="1"/>
        <pt x="145" y="-15" on="0"/>
        <pt x="32" y="127" on="0"/>
        <pt x="32" y="382" on="0"/>
        <pt x="162" y="513" on="0"/>
        <pt x="339" y="513" on="0"/>
        <pt x="447" y="421" on="0"/>
        <pt x="447" y="349" on="1"/>
        <pt x="447" y="313" on="0"/>
        <pt x="408" y="276" on="0"/>
        <pt x="337" y="276" on="0"/>
      </contour>
      <contour>
        <pt x="156" y="748" on="1"/>
        <pt x="248" y="661" on="1"/>
        <pt x="347" y="756" on="1"/>
        <pt x="391" y="741" on="0"/>
        <pt x="413" y="699" on="1"/>
        <pt x="307" y="562" on="1"/>
        <pt x="281" y="553" on="0"/>
        <pt x="247" y="553" on="0"/>
        <pt x="211" y="554" on="0"/>
        <pt x="184" y="562" on="1"/>
        <pt x="91" y="687" on="1"/>
        <pt x="101" y="708" on="0"/>
        <pt x="140" y="742" on="0"/>
      </contour>
    </TTGlyph>
    <TTGlyph name="ccaron.smcp" xMin="33" yMin="-15" xMax="522" yMax="808">
      <contour>
        <pt x="381" y="305" on="1"/>
        <pt x="381" y="374" on="0"/>
        <pt x="342" y="447" on="0"/>
        <pt x="291" y="447" on="1"/>
        <pt x="187" y="447" on="0"/>
        <pt x="187" y="272" on="1"/>
        <pt x="187" y="110" on="0"/>
        <pt x="303" y="110" on="1"/>
        <pt x="371" y="110" on="0"/>
        <pt x="446" y="165" on="1"/>
        <pt x="468" y="153" on="0"/>
        <pt x="510" y="95" on="0"/>
        <pt x="515" y="70" on="1"/>
        <pt x="416" y="-15" on="0"/>
        <pt x="281" y="-15" on="1"/>
        <pt x="212" y="-15" on="0"/>
        <pt x="112" y="35" on="0"/>
        <pt x="85" y="78" on="1"/>
        <pt x="33" y="161" on="0"/>
        <pt x="33" y="273" on="1"/>
        <pt x="33" y="417" on="0"/>
        <pt x="184" y="565" on="0"/>
        <pt x="405" y="565" on="0"/>
        <pt x="522" y="456" on="0"/>
        <pt x="522" y="383" on="1"/>
        <pt x="522" y="301" on="0"/>
        <pt x="431" y="301" on="1"/>
        <pt x="415" y="301" on="0"/>
      </contour>
      <contour>
        <pt x="200" y="800" on="1"/>
        <pt x="292" y="713" on="1"/>
        <pt x="391" y="808" on="1"/>
        <pt x="435" y="793" on="0"/>
        <pt x="457" y="751" on="1"/>
        <pt x="351" y="614" on="1"/>
        <pt x="325" y="605" on="0"/>
        <pt x="291" y="605" on="0"/>
        <pt x="255" y="606" on="0"/>
        <pt x="228" y="614" on="1"/>
        <pt x="135" y="739" on="1"/>
        <pt x="145" y="760" on="0"/>
        <pt x="184" y="794" on="0"/>
      </contour>
    </TTGlyph>
    <TTGlyph name="ccedilla" xMin="32" yMin="-231" xMax="447" yMax="513">
      <contour>
        <pt x="187" y="-77" on="1"/>
        <pt x="198" y="-36" on="0"/>
        <pt x="208" y="-12" on="1"/>
        <pt x="123" y="2" on="0"/>
        <pt x="32" y="140" on="0"/>
        <pt x="32" y="248" on="1"/>
        <pt x="32" y="382" on="0"/>
        <pt x="162" y="513" on="0"/>
        <pt x="339" y="513" on="0"/>
        <pt x="447" y="421" on="0"/>
        <pt x="447" y="349" on="1"/>
        <pt x="447" y="313" on="0"/>
        <pt x="408" y="276" on="0"/>
        <pt x="337" y="276" on="0"/>
        <pt x="313" y="281" on="1"/>
        <pt x="313" y="286" on="0"/>
        <pt x="313" y="290" on="1"/>
        <pt x="313" y="346" on="0"/>
        <pt x="290" y="402" on="0"/>
        <pt x="215" y="402" on="0"/>
        <pt x="184" y="329" on="0"/>
        <pt x="184" y="169" on="0"/>
        <pt x="229" y="102" on="0"/>
        <pt x="323" y="102" on="0"/>
        <pt x="386" y="145" on="1"/>
        <pt x="404" y="135" on="0"/>
        <pt x="438" y="84" on="0"/>
        <pt x="443" y="62" on="1"/>
        <pt x="384" y="0" on="0"/>
        <pt x="285" y="-13" on="1"/>
        <pt x="280" y="-21" on="0"/>
        <pt x="276" y="-32" on="1"/>
        <pt x="322" y="-35" on="0"/>
        <pt x="376" y="-84" on="0"/>
        <pt x="376" y="-170" on="0"/>
        <pt x="300" y="-231" on="0"/>
        <pt x="188" y="-231" on="0"/>
        <pt x="155" y="-208" on="1"/>
        <pt x="157" y="-168" on="0"/>
        <pt x="179" y="-143" on="1"/>
        <pt x="201" y="-156" on="0"/>
        <pt x="226" y="-156" on="1"/>
        <pt x="264" y="-156" on="0"/>
        <pt x="264" y="-126" on="1"/>
        <pt x="264" y="-112" on="0"/>
        <pt x="245" y="-95" on="0"/>
        <pt x="221" y="-95" on="0"/>
        <pt x="209" y="-99" on="1"/>
        <pt x="194" y="-92" on="0"/>
      </contour>
    </TTGlyph>
    <TTGlyph name="ccedilla.smcp" xMin="33" yMin="-231" xMax="522" yMax="565">
      <contour>
        <pt x="229" y="-77" on="1"/>
        <pt x="249" y="-13" on="1"/>
        <pt x="190" y="-8" on="0"/>
        <pt x="102" y="46" on="0"/>
        <pt x="78" y="88" on="1"/>
        <pt x="33" y="168" on="0"/>
        <pt x="33" y="273" on="1"/>
        <pt x="33" y="417" on="0"/>
        <pt x="184" y="565" on="0"/>
        <pt x="405" y="565" on="0"/>
        <pt x="522" y="456" on="0"/>
        <pt x="522" y="383" on="1"/>
        <pt x="522" y="301" on="0"/>
        <pt x="431" y="301" on="1"/>
        <pt x="415" y="301" on="0"/>
        <pt x="381" y="305" on="1"/>
        <pt x="381" y="374" on="0"/>
        <pt x="342" y="447" on="0"/>
        <pt x="291" y="447" on="1"/>
        <pt x="187" y="447" on="0"/>
        <pt x="187" y="272" on="1"/>
        <pt x="187" y="110" on="0"/>
        <pt x="303" y="110" on="1"/>
        <pt x="371" y="110" on="0"/>
        <pt x="446" y="165" on="1"/>
        <pt x="468" y="153" on="0"/>
        <pt x="510" y="95" on="0"/>
        <pt x="515" y="70" on="1"/>
        <pt x="437" y="2" on="0"/>
        <pt x="328" y="-12" on="1"/>
        <pt x="321" y="-26" on="0"/>
        <pt x="319" y="-32" on="1"/>
        <pt x="364" y="-35" on="0"/>
        <pt x="418" y="-84" on="0"/>
        <pt x="418" y="-170" on="0"/>
        <pt x="342" y="-231" on="0"/>
        <pt x="230" y="-231" on="0"/>
        <pt x="197" y="-208" on="1"/>
        <pt x="199" y="-168" on="0"/>
        <pt x="222" y="-143" on="1"/>
        <pt x="242" y="-156" on="0"/>
        <pt x="268" y="-156" on="1"/>
        <pt x="306" y="-156" on="0"/>
        <pt x="306" y="-126" on="1"/>
        <pt x="306" y="-112" on="0"/>
        <pt x="288" y="-95" on="0"/>
        <pt x="263" y="-95" on="0"/>
        <pt x="251" y="-99" on="1"/>
        <pt x="235" y="-91" on="0"/>
      </contour>
    </TTGlyph>
    <TTGlyph name="cedilla" xMin="103" yMin="-231" xMax="325" yMax="0">
      <contour>
        <pt x="136" y="-77" on="1"/>
        <pt x="145" y="-40" on="0"/>
        <pt x="162" y="0" on="1"/>
        <pt x="241" y="0" on="1"/>
        <pt x="230" y="-21" on="0"/>
        <pt x="225" y="-32" on="1"/>
        <pt x="271" y="-35" on="0"/>
        <pt x="325" y="-84" on="0"/>
        <pt x="325" y="-170" on="0"/>
        <pt x="249" y="-231" on="0"/>
        <pt x="138" y="-231" on="0"/>
        <pt x="103" y="-208" on="1"/>
        <pt x="105" y="-168" on="0"/>
        <pt x="128" y="-143" on="1"/>
        <pt x="148" y="-156" on="0"/>
        <pt x="175" y="-156" on="1"/>
        <pt x="212" y="-156" on="0"/>
        <pt x="212" y="-126" on="1"/>
        <pt x="212" y="-112" on="0"/>
        <pt x="194" y="-95" on="0"/>
        <pt x="170" y="-95" on="0"/>
        <pt x="158" y="-99" on="1"/>
        <pt x="143" y="-92" on="0"/>
      </contour>
    </TTGlyph>
    <TTGlyph name="cent" xMin="28" yMin="-36" xMax="438" yMax="686">
      <contour>
        <pt x="188" y="-33" on="1"/>
        <pt x="188" y="67" on="1"/>
        <pt x="102" y="86" on="0"/>
        <pt x="28" y="227" on="0"/>
        <pt x="28" y="435" on="0"/>
        <pt x="119" y="563" on="0"/>
        <pt x="191" y="581" on="1"/>
        <pt x="191" y="682" on="1"/>
        <pt x="208" y="686" on="0"/>
        <pt x="279" y="686" on="0"/>
        <pt x="298" y="682" on="1"/>
        <pt x="298" y="584" on="1"/>
        <pt x="361" y="571" on="0"/>
        <pt x="438" y="487" on="0"/>
        <pt x="438" y="433" on="1"/>
        <pt x="438" y="352" on="0"/>
        <pt x="358" y="352" on="1"/>
        <pt x="324" y="352" on="0"/>
        <pt x="305" y="358" on="1"/>
        <pt x="305" y="362" on="0"/>
        <pt x="305" y="365" on="1"/>
        <pt x="305" y="478" on="0"/>
        <pt x="243" y="478" on="1"/>
        <pt x="208" y="478" on="0"/>
        <pt x="179" y="404" on="0"/>
        <pt x="179" y="324" on="1"/>
        <pt x="179" y="179" on="0"/>
        <pt x="270" y="179" on="1"/>
        <pt x="317" y="179" on="0"/>
        <pt x="379" y="222" on="1"/>
        <pt x="397" y="208" on="0"/>
        <pt x="430" y="161" on="0"/>
        <pt x="434" y="140" on="1"/>
        <pt x="384" y="84" on="0"/>
        <pt x="295" y="66" on="1"/>
        <pt x="295" y="-33" on="1"/>
        <pt x="281" y="-36" on="0"/>
        <pt x="201" y="-36" on="0"/>
      </contour>
    </TTGlyph>
    <TTGlyph name="cent.smcp" xMin="24" yMin="-35" xMax="397" yMax="588">
      <contour>
        <pt x="165" y="-31" on="1"/>
        <pt x="165" y="49" on="1"/>
        <pt x="89" y="68" on="0"/>
        <pt x="24" y="192" on="0"/>
        <pt x="24" y="372" on="0"/>
        <pt x="104" y="486" on="0"/>
        <pt x="168" y="503" on="1"/>
        <pt x="168" y="585" on="1"/>
        <pt x="189" y="588" on="0"/>
        <pt x="248" y="588" on="0"/>
        <pt x="271" y="585" on="1"/>
        <pt x="271" y="505" on="1"/>
        <pt x="329" y="493" on="0"/>
        <pt x="397" y="418" on="0"/>
        <pt x="397" y="360" on="1"/>
        <pt x="397" y="283" on="0"/>
        <pt x="319" y="283" on="1"/>
        <pt x="290" y="283" on="0"/>
        <pt x="268" y="289" on="1"/>
        <pt x="268" y="348" on="0"/>
        <pt x="247" y="399" on="0"/>
        <pt x="190" y="399" on="0"/>
        <pt x="164" y="338" on="0"/>
        <pt x="164" y="269" on="1"/>
        <pt x="164" y="154" on="0"/>
        <pt x="244" y="154" on="1"/>
        <pt x="291" y="154" on="0"/>
        <pt x="343" y="184" on="1"/>
        <pt x="360" y="173" on="0"/>
        <pt x="390" y="127" on="0"/>
        <pt x="395" y="105" on="1"/>
        <pt x="346" y="59" on="0"/>
        <pt x="269" y="46" on="1"/>
        <pt x="269" y="-31" on="1"/>
        <pt x="254" y="-35" on="0"/>
        <pt x="184" y="-35" on="0"/>
      </contour>
    </TTGlyph>
    <TTGlyph name="circumflex" xMin="40" yMin="544" xMax="360" yMax="745">
      <contour>
        <pt x="295" y="551" on="1"/>
        <pt x="203" y="638" on="1"/>
        <pt x="106" y="544" on="1"/>
        <pt x="63" y="561" on="0"/>
        <pt x="40" y="601" on="1"/>
        <pt x="145" y="737" on="1"/>
        <pt x="169" y="745" on="0"/>
        <pt x="186" y="745" on="1"/>
        <pt x="239" y="745" on="0"/>
        <pt x="267" y="737" on="1"/>
        <pt x="360" y="612" on="1"/>
        <pt x="352" y="591" on="0"/>
        <pt x="313" y="557" on="0"/>
      </contour>
    </TTGlyph>
    <TTGlyph name="circumflex.cap" xMin="17" yMin="724" xMax="373" yMax="914">
      <contour>
        <pt x="314" y="735" on="1"/>
        <pt x="197" y="810" on="1"/>
        <pt x="78" y="724" on="1"/>
        <pt x="61" y="730" on="0"/>
        <pt x="22" y="767" on="0"/>
        <pt x="17" y="786" on="1"/>
        <pt x="135" y="906" on="1"/>
        <pt x="166" y="913" on="0"/>
        <pt x="228" y="913" on="0"/>
        <pt x="260" y="907" on="1"/>
        <pt x="373" y="797" on="1"/>
        <pt x="367" y="776" on="0"/>
        <pt x="331" y="742" on="0"/>
      </contour>
    </TTGlyph>
    <TTGlyph name="colon" xMin="58" yMin="-10" xMax="233" yMax="455">
      <contour>
        <pt x="58" y="30" on="0"/>
        <pt x="58" y="102" on="0"/>
        <pt x="70" y="125" on="1"/>
        <pt x="101" y="143" on="0"/>
        <pt x="191" y="143" on="0"/>
        <pt x="222" y="125" on="1"/>
        <pt x="233" y="102" on="0"/>
        <pt x="233" y="30" on="0"/>
        <pt x="222" y="7" on="1"/>
        <pt x="195" y="-10" on="0"/>
        <pt x="97" y="-10" on="0"/>
        <pt x="70" y="7" on="1"/>
      </contour>
      <contour>
        <pt x="58" y="342" on="0"/>
        <pt x="58" y="414" on="0"/>
        <pt x="70" y="437" on="1"/>
        <pt x="101" y="455" on="0"/>
        <pt x="191" y="455" on="0"/>
        <pt x="222" y="437" on="1"/>
        <pt x="233" y="414" on="0"/>
        <pt x="233" y="342" on="0"/>
        <pt x="222" y="319" on="1"/>
        <pt x="195" y="302" on="0"/>
        <pt x="97" y="302" on="0"/>
        <pt x="70" y="319" on="1"/>
      </contour>
    </TTGlyph>
    <TTGlyph name="comma" xMin="22" yMin="-178" xMax="234" yMax="142">
      <contour>
        <pt x="221" y="124" on="1"/>
        <pt x="234" y="92" on="0"/>
        <pt x="234" y="47" on="1"/>
        <pt x="234" y="-26" on="0"/>
        <pt x="143" y="-151" on="0"/>
        <pt x="59" y="-178" on="1"/>
        <pt x="41" y="-169" on="0"/>
        <pt x="23" y="-132" on="0"/>
        <pt x="23" y="-112" on="0"/>
        <pt x="23" y="-108" on="1"/>
        <pt x="60" y="-95" on="0"/>
        <pt x="111" y="-41" on="0"/>
        <pt x="115" y="-8" on="1"/>
        <pt x="86" y="-2" on="0"/>
        <pt x="72" y="7" on="1"/>
        <pt x="61" y="29" on="0"/>
        <pt x="61" y="102" on="0"/>
        <pt x="72" y="124" on="1"/>
        <pt x="104" y="142" on="0"/>
        <pt x="195" y="142" on="0"/>
      </contour>
    </TTGlyph>
    <TTGlyph name="commaaccent" xMin="86" yMin="-288" xMax="281" yMax="-51">
      <contour>
        <pt x="139" y="-75" on="1"/>
        <pt x="172" y="-51" on="0"/>
        <pt x="222" y="-51" on="1"/>
        <pt x="247" y="-51" on="0"/>
        <pt x="269" y="-59" on="1"/>
        <pt x="281" y="-83" on="0"/>
        <pt x="281" y="-119" on="1"/>
        <pt x="281" y="-178" on="0"/>
        <pt x="201" y="-267" on="0"/>
        <pt x="132" y="-288" on="1"/>
        <pt x="94" y="-275" on="0"/>
        <pt x="86" y="-227" on="1"/>
        <pt x="152" y="-189" on="0"/>
        <pt x="152" y="-128" on="1"/>
        <pt x="152" y="-101" on="0"/>
      </contour>
    </TTGlyph>
    <TTGlyph name="commaaccent.cap" xMin="86" yMin="-288" xMax="281" yMax="-51">
      <contour>
        <pt x="139" y="-75" on="1"/>
        <pt x="172" y="-51" on="0"/>
        <pt x="222" y="-51" on="1"/>
        <pt x="247" y="-51" on="0"/>
        <pt x="269" y="-59" on="1"/>
        <pt x="281" y="-83" on="0"/>
        <pt x="281" y="-119" on="1"/>
        <pt x="281" y="-178" on="0"/>
        <pt x="201" y="-267" on="0"/>
        <pt x="132" y="-288" on="1"/>
        <pt x="94" y="-275" on="0"/>
        <pt x="86" y="-227" on="1"/>
        <pt x="152" y="-189" on="0"/>
        <pt x="152" y="-128" on="1"/>
        <pt x="152" y="-101" on="0"/>
      </contour>
    </TTGlyph>
    <TTGlyph name="copyright" xMin="33" yMin="-21" xMax="758" yMax="704">
      <contour>
        <pt x="33" y="187" on="0"/>
        <pt x="33" y="495" on="0"/>
        <pt x="241" y="704" on="0"/>
        <pt x="549" y="704" on="0"/>
        <pt x="758" y="495" on="0"/>
        <pt x="758" y="187" on="0"/>
        <pt x="549" y="-21" on="0"/>
        <pt x="241" y="-21" on="0"/>
      </contour>
      <contour>
        <pt x="145" y="453" on="0"/>
        <pt x="145" y="229" on="0"/>
        <pt x="286" y="77" on="0"/>
        <pt x="504" y="77" on="0"/>
        <pt x="646" y="229" on="0"/>
        <pt x="646" y="453" on="0"/>
        <pt x="504" y="606" on="0"/>
        <pt x="286" y="606" on="0"/>
      </contour>
      <contour>
        <pt x="443" y="366" on="1"/>
        <pt x="443" y="453" on="0"/>
        <pt x="393" y="453" on="1"/>
        <pt x="339" y="453" on="0"/>
        <pt x="339" y="237" on="0"/>
        <pt x="416" y="237" on="1"/>
        <pt x="446" y="237" on="0"/>
        <pt x="500" y="270" on="1"/>
        <pt x="534" y="246" on="0"/>
        <pt x="540" y="204" on="1"/>
        <pt x="518" y="180" on="0"/>
        <pt x="435" y="148" on="0"/>
        <pt x="397" y="148" on="1"/>
        <pt x="305" y="148" on="0"/>
        <pt x="223" y="259" on="0"/>
        <pt x="223" y="440" on="0"/>
        <pt x="327" y="536" on="0"/>
        <pt x="462" y="536" on="0"/>
        <pt x="546" y="469" on="0"/>
        <pt x="546" y="420" on="1"/>
        <pt x="546" y="361" on="0"/>
        <pt x="484" y="361" on="1"/>
        <pt x="458" y="361" on="0"/>
      </contour>
    </TTGlyph>
    <TTGlyph name="currency" xMin="24" yMin="62" xMax="565" yMax="604">
      <contour>
        <pt x="94" y="217" on="1"/>
        <pt x="64" y="268" on="0"/>
        <pt x="64" y="399" on="0"/>
        <pt x="93" y="449" on="1"/>
        <pt x="24" y="526" on="1"/>
        <pt x="44" y="567" on="0"/>
        <pt x="99" y="602" on="1"/>
        <pt x="180" y="529" on="1"/>
        <pt x="230" y="554" on="0"/>
        <pt x="354" y="554" on="0"/>
        <pt x="406" y="529" on="1"/>
        <pt x="489" y="604" on="1"/>
        <pt x="535" y="577" on="0"/>
        <pt x="565" y="529" on="1"/>
        <pt x="494" y="449" on="1"/>
        <pt x="523" y="399" on="0"/>
        <pt x="523" y="267" on="0"/>
        <pt x="492" y="216" on="1"/>
        <pt x="562" y="138" on="1"/>
        <pt x="536" y="93" on="0"/>
        <pt x="487" y="62" on="1"/>
        <pt x="403" y="136" on="1"/>
        <pt x="354" y="113" on="0"/>
        <pt x="231" y="113" on="0"/>
        <pt x="182" y="136" on="1"/>
        <pt x="99" y="63" on="1"/>
        <pt x="54" y="90" on="0"/>
        <pt x="24" y="139" on="1"/>
      </contour>
      <contour>
        <pt x="251" y="445" on="0"/>
        <pt x="210" y="383" on="0"/>
        <pt x="210" y="285" on="0"/>
        <pt x="251" y="223" on="0"/>
        <pt x="336" y="223" on="0"/>
        <pt x="377" y="284" on="0"/>
        <pt x="377" y="383" on="0"/>
        <pt x="336" y="445" on="0"/>
      </contour>
    </TTGlyph>
    <TTGlyph name="currency.smcp" xMin="9" yMin="32" xMax="472" yMax="499">
      <contour>
        <pt x="66" y="173" on="1"/>
        <pt x="44" y="214" on="0"/>
        <pt x="44" y="319" on="0"/>
        <pt x="65" y="358" on="1"/>
        <pt x="9" y="422" on="1"/>
        <pt x="30" y="463" on="0"/>
        <pt x="84" y="496" on="1"/>
        <pt x="152" y="435" on="1"/>
        <pt x="192" y="452" on="0"/>
        <pt x="284" y="452" on="0"/>
        <pt x="324" y="436" on="1"/>
        <pt x="396" y="499" on="1"/>
        <pt x="438" y="475" on="0"/>
        <pt x="472" y="424" on="1"/>
        <pt x="413" y="356" on="1"/>
        <pt x="434" y="314" on="0"/>
        <pt x="434" y="215" on="0"/>
        <pt x="411" y="172" on="1"/>
        <pt x="468" y="108" on="1"/>
        <pt x="444" y="64" on="0"/>
        <pt x="393" y="32" on="1"/>
        <pt x="321" y="95" on="1"/>
        <pt x="284" y="81" on="0"/>
        <pt x="192" y="81" on="0"/>
        <pt x="155" y="96" on="1"/>
        <pt x="84" y="34" on="1"/>
        <pt x="44" y="57" on="0"/>
        <pt x="9" y="108" on="1"/>
      </contour>
      <contour>
        <pt x="180" y="266" on="1"/>
        <pt x="180" y="229" on="0"/>
        <pt x="209" y="182" on="0"/>
        <pt x="239" y="182" on="1"/>
        <pt x="299" y="182" on="0"/>
        <pt x="299" y="266" on="1"/>
        <pt x="299" y="304" on="0"/>
        <pt x="269" y="352" on="0"/>
        <pt x="239" y="352" on="1"/>
        <pt x="180" y="352" on="0"/>
      </contour>
    </TTGlyph>
</ttFont>
